<svg width="100%" height="100%" viewBox="0 0 8 12" fill="none" xmlns="http://www.w3.org/2000/svg">
<path d="M0.940948 11.9998C0.757525 12.0037 0.577403 11.9523 0.425624 11.8526C0.273844 11.753 0.157947 11.61 0.0940481 11.4437C0.030149 11.2774 0.021422 11.096 0.0690802 10.9247C0.116738 10.7534 0.218413 10.6008 0.35997 10.4879L5.76116 6.0138L0.35997 1.54126C0.262048 1.47167 0.180041 1.38332 0.119084 1.28167C0.0581275 1.18001 0.0195343 1.06725 0.00572114 0.950508C-0.00809202 0.833763 0.00317275 0.715543 0.0388099 0.603203C0.074447 0.490863 0.133688 0.386813 0.212825 0.297637C0.291962 0.208461 0.389288 0.136123 0.49871 0.085001C0.608131 0.0338793 0.727291 0.00516605 0.848725 0.000636101C0.97016 -0.00389385 1.09125 0.0158014 1.20442 0.0586185C1.31759 0.101436 1.4204 0.166385 1.50641 0.2494L7.69028 5.36536C7.78739 5.44549 7.86537 5.54495 7.91884 5.65704C7.97231 5.76914 8 5.89114 8 6.01459C8 6.13803 7.97231 6.26004 7.91884 6.37213C7.86537 6.48422 7.78739 6.58378 7.69028 6.66391L1.50641 11.7848C1.35019 11.919 1.14983 11.995 0.940948 11.9998Z" fill="currentColor"/>
</svg>
