<svg width="100%" height="100%" viewBox="0 0 21 20" fill="none" xmlns="http://www.w3.org/2000/svg">
<ellipse cx="10.7668" cy="10" rx="9.77465" ry="10" fill="currentColor"/>
<path d="M13.6991 8.45492C13.701 8.36624 13.6759 8.27916 13.6272 8.20577C13.5785 8.13239 13.5086 8.07636 13.4273 8.04547C13.3461 8.01458 13.2574 8.01036 13.1737 8.0334C13.09 8.05644 13.0154 8.1056 12.9602 8.17403L10.7736 10.7853L8.58769 8.17403C8.55368 8.12669 8.5105 8.08704 8.46082 8.05757C8.41114 8.0281 8.35603 8.00944 8.29897 8.00277C8.24192 7.99609 8.18414 8.00153 8.12923 8.01876C8.07433 8.03599 8.02348 8.06463 7.9799 8.10289C7.93631 8.14115 7.90096 8.18821 7.87597 8.24111C7.85099 8.29401 7.83696 8.35162 7.83474 8.41033C7.83253 8.46904 7.84215 8.52758 7.86308 8.5823C7.88401 8.63701 7.91575 8.68672 7.95632 8.7283L10.4567 11.718C10.4958 11.7649 10.5444 11.8026 10.5992 11.8285C10.654 11.8543 10.7136 11.8677 10.774 11.8677C10.8343 11.8677 10.8939 11.8543 10.9487 11.8285C11.0035 11.8026 11.0521 11.7649 11.0913 11.718L13.594 8.7283C13.6596 8.65277 13.6969 8.5559 13.6992 8.45492L13.6991 8.45492Z" fill="white"/>
</svg>
