<svg width="100%" height="100%" viewBox="2 2 25 25" fill="none" xmlns="http://www.w3.org/2000/svg">
<path d="M23.4542 16.501C22.9898 16.501 22.5942 16.1458 22.5525 15.6745C22.5081 15.1761 22.877 14.7361 23.3754 14.6921H23.3763C23.437 14.1955 23.8856 13.8452 24.3863 13.9032C24.8834 13.9644 25.2364 14.4166 25.1752 14.9133C25.0714 15.7565 24.3813 16.4226 23.5349 16.4974C23.5077 16.5001 23.4805 16.501 23.4542 16.501Z" fill="currentColor"/>
<path d="M8.7348 17.7887C8.26989 17.7887 7.87431 17.433 7.83308 16.9613C7.78913 16.4624 8.15842 16.0234 8.65686 15.9794L23.3757 14.6916C23.8769 14.6454 24.3137 15.017 24.3572 15.5154C24.4011 16.0143 24.0318 16.4534 23.5334 16.4973L8.81455 17.7851C8.78827 17.7874 8.76108 17.7887 8.7348 17.7887Z" fill="currentColor"/>
<path d="M24.2764 15.7089C24.2393 15.7089 24.2021 15.7067 24.1645 15.7021C23.6674 15.641 23.3144 15.1887 23.3756 14.6921L24.4753 5.7642C24.537 5.26757 24.9924 4.91459 25.4854 4.97576C25.9824 5.03693 26.3354 5.48915 26.2742 5.98578L25.1745 14.9137C25.1183 15.3727 24.7273 15.7089 24.2764 15.7089Z" fill="currentColor"/>
<path d="M6.32128 8.44809C5.85638 8.44809 5.4608 8.09238 5.41957 7.62068C5.37561 7.12179 5.74491 6.68271 6.24335 6.63876L25.2964 4.97171C25.7966 4.92595 26.2343 5.29706 26.2778 5.79549C26.3218 6.29438 25.9525 6.73346 25.454 6.77742L6.40103 8.44446C6.3743 8.44673 6.34757 8.44809 6.32128 8.44809Z" fill="currentColor"/>
<path d="M6.08491 6.67721C5.63813 6.67721 5.24889 6.34643 5.18817 5.89104V5.89014C4.68792 5.89014 4.28192 5.48459 4.28192 4.98389C4.28192 4.48318 4.68792 4.07764 5.18817 4.07764C6.09261 4.07764 6.86474 4.7537 6.98481 5.65043C7.05097 6.14661 6.70252 6.60245 6.20635 6.66906C6.16511 6.6745 6.12524 6.67721 6.08491 6.67721Z" fill="currentColor"/>
<path d="M5.18783 5.89062H3.625C3.12475 5.89062 2.71875 5.48462 2.71875 4.98438C2.71875 4.48413 3.12475 4.07812 3.625 4.07812H5.18783C5.68808 4.07812 6.09408 4.48413 6.09408 4.98438C6.09408 5.48462 5.68853 5.89062 5.18783 5.89062Z" fill="currentColor"/>
<path d="M7.35108 16.1726C6.9043 16.1726 6.51462 15.8418 6.45435 15.3859L5.18787 5.89068C5.12171 5.39451 5.47016 4.93866 5.96633 4.8725C6.45933 4.80544 6.9188 5.1548 6.9845 5.65097L8.25053 15.1467C8.31669 15.6429 7.96824 16.0987 7.47207 16.1649C7.43129 16.1703 7.39141 16.1726 7.35108 16.1726Z" fill="currentColor"/>
<path d="M11.4266 24.9219C9.70748 24.9219 8.25476 23.4692 8.25476 21.75C8.25476 20.0308 9.70748 18.5781 11.4266 18.5781C13.1458 18.5781 14.5985 20.0308 14.5985 21.75C14.5985 23.4692 13.1458 24.9219 11.4266 24.9219ZM11.4266 20.3906C10.7025 20.3906 10.0673 21.0259 10.0673 21.75C10.0673 22.4741 10.7025 23.1094 11.4266 23.1094C12.1507 23.1094 12.786 22.4741 12.786 21.75C12.786 21.0259 12.1503 20.3906 11.4266 20.3906Z" fill="currentColor"/>
<path d="M20.036 24.9219C18.3169 24.9219 16.8641 23.4692 16.8641 21.75C16.8641 20.0308 18.3169 18.5781 20.036 18.5781C21.7552 18.5781 23.2079 20.0308 23.2079 21.75C23.2079 23.4692 21.7552 24.9219 20.036 24.9219ZM20.036 20.3906C19.3119 20.3906 18.6766 21.0259 18.6766 21.75C18.6766 22.4741 19.3119 23.1094 20.036 23.1094C20.7601 23.1094 21.3954 22.4741 21.3954 21.75C21.3954 21.0259 20.7597 20.3906 20.036 20.3906Z" fill="currentColor"/>
<path d="M9.1447 17.7458C7.79393 17.7458 6.63574 16.7498 6.45403 15.3859C6.38788 14.8897 6.73678 14.4339 7.23296 14.3682C7.72551 14.3007 8.18498 14.6509 8.25068 15.1471C8.31502 15.6288 8.75184 15.9682 9.22762 15.9301C9.73739 15.8866 10.166 16.2559 10.2095 16.7539C10.2535 17.2523 9.8842 17.6919 9.38621 17.7358C9.3051 17.7422 9.22399 17.7458 9.1447 17.7458Z" fill="currentColor"/>
</svg>
