<svg width="100%" height="100%" viewBox="0 0 33 23" fill="none" xmlns="http://www.w3.org/2000/svg">
<path d="M24.2414 14.1605C22.0105 14.1605 20.1956 15.9755 20.1956 18.2064C20.1956 20.4373 22.0105 22.2523 24.2414 22.2523C26.4727 22.2523 28.2873 20.4373 28.2873 18.2064C28.2873 15.9755 26.4724 14.1605 24.2414 14.1605ZM24.2414 20.2293C23.1258 20.2293 22.2185 19.322 22.2185 18.2064C22.2185 17.0908 23.1258 16.1835 24.2414 16.1835C25.3571 16.1835 26.2644 17.0908 26.2644 18.2064C26.2644 19.3221 25.3571 20.2293 24.2414 20.2293Z" fill="currentColor"/>
<path d="M10.4183 14.1605C8.18734 14.1605 6.37241 15.9755 6.37241 18.2064C6.37241 20.4373 8.18734 22.2523 10.4183 22.2523C12.6492 22.2523 14.4641 20.4373 14.4641 18.2064C14.4641 15.9755 12.6492 14.1605 10.4183 14.1605ZM10.4183 20.2293C9.30265 20.2293 8.39534 19.322 8.39534 18.2064C8.39534 17.0908 9.30265 16.1835 10.4183 16.1835C11.5336 16.1835 12.4412 17.0908 12.4412 18.2064C12.4412 19.3221 11.5339 20.2293 10.4183 20.2293Z" fill="currentColor"/>
<path d="M26.9656 2.57995C26.7937 2.23841 26.4441 2.02295 26.0617 2.02295H20.7346V4.04588H25.4379L28.1922 9.52396L30 8.61496L26.9656 2.57995Z" fill="currentColor"/>
<path d="M21.2069 17.2286H13.5535V19.2516H21.2069V17.2286Z" fill="currentColor"/>
<path d="M7.38352 17.2286H3.87716C3.31847 17.2286 2.86572 17.6814 2.86572 18.2401C2.86572 18.7988 3.31853 19.2515 3.87716 19.2515H7.38358C7.94227 19.2515 8.39502 18.7987 8.39502 18.2401C8.39502 17.6814 7.94221 17.2286 7.38352 17.2286Z" fill="currentColor"/>
<path d="M31.8846 11.0452L29.8951 8.48279C29.7039 8.23599 29.4089 8.09167 29.0963 8.09167H21.7464V1.01144C21.7464 0.452745 21.2935 0 20.7349 0H3.87716C3.31847 0 2.86572 0.452807 2.86572 1.01144C2.86572 1.57006 3.31853 2.02287 3.87716 2.02287H19.7234V9.10311C19.7234 9.6618 20.1762 10.1145 20.7349 10.1145H28.601L30.0741 12.012V17.2285H27.2757C26.717 17.2285 26.2642 17.6813 26.2642 18.2399C26.2642 18.7986 26.717 19.2514 27.2757 19.2514H31.0855C31.6442 19.2514 32.0969 18.7986 32.097 18.2399V11.6656C32.097 11.441 32.0221 11.2225 31.8846 11.0452Z" fill="currentColor"/>
<path d="M7.31603 12.1039H2.66326C2.10457 12.1039 1.65182 12.5567 1.65182 13.1153C1.65182 13.674 2.10463 14.1268 2.66326 14.1268H7.31597C7.87466 14.1268 8.3274 13.6739 8.3274 13.1153C8.32746 12.5567 7.87466 12.1039 7.31603 12.1039Z" fill="currentColor"/>
<path d="M9.64262 8.12537H1.01144C0.452808 8.12537 0 8.57817 0 9.13686C0 9.69556 0.452808 10.1483 1.01144 10.1483H9.64262C10.2013 10.1483 10.6541 9.69549 10.6541 9.13686C10.6541 8.57824 10.2013 8.12537 9.64262 8.12537Z" fill="currentColor"/>
<path d="M11.2944 4.14697H2.66326C2.10457 4.14697 1.65182 4.59978 1.65182 5.15841C1.65182 5.7171 2.10463 6.16984 2.66326 6.16984H11.2944C11.8531 6.16984 12.3059 5.71704 12.3059 5.15841C12.3059 4.59978 11.8531 4.14697 11.2944 4.14697Z" fill="currentColor"/>
</svg>
