<svg width="100%" height="100%" viewBox="0 0 22 22" fill="none" xmlns="http://www.w3.org/2000/svg">
<g clip-path="url(#clip0)">
<path d="M21.7692 6.98327L11.3984 1.01013C11.2822 0.943236 11.1404 0.943236 11.0242 1.01013L0.653408 6.98327C0.533423 7.05241 0.459124 7.18239 0.459167 7.32328V20.9234C0.459167 20.9883 0.510558 21.0409 0.57393 21.0409H2.86224C2.92561 21.0409 2.97701 20.9883 2.97701 20.9234V9.38127H19.4455V20.9235C19.4455 20.9883 19.4969 21.0409 19.5603 21.0409H21.8486C21.912 21.0409 21.9634 20.9883 21.9634 20.9235V7.32319C21.9634 7.18235 21.8892 7.05241 21.7692 6.98327Z" fill="currentColor"/>
<path d="M17.6605 17.3965H14.8605C14.6499 17.3965 14.4792 17.5711 14.4792 17.7866V20.6512C14.4792 20.8667 14.6499 21.0413 14.8605 21.0413H17.6605C17.8711 21.0413 18.0419 20.8667 18.0419 20.6512V17.7866C18.0419 17.5711 17.8711 17.3965 17.6605 17.3965Z" fill="currentColor"/>
<path d="M12.6111 17.3965H9.81105C9.60044 17.3965 9.42972 17.5711 9.42972 17.7866V20.6512C9.42972 20.8667 9.60044 21.0413 9.81105 21.0413H12.6111C12.8217 21.0413 12.9924 20.8667 12.9924 20.6512V17.7866C12.9924 17.5711 12.8217 17.3965 12.6111 17.3965Z" fill="currentColor"/>
<path d="M7.56175 17.3965H4.76172C4.55115 17.3965 4.38043 17.5711 4.38043 17.7866V20.6512C4.38043 20.8667 4.55119 21.0413 4.76172 21.0413H7.56175C7.77231 21.0413 7.94303 20.8667 7.94303 20.6512V17.7866C7.94303 17.5711 7.77227 17.3965 7.56175 17.3965Z" fill="currentColor"/>
<path d="M17.6605 12.126H14.8605C14.6499 12.126 14.4792 12.3006 14.4792 12.516V15.3807C14.4792 15.5961 14.6499 15.7708 14.8605 15.7708H17.6605C17.8711 15.7708 18.0419 15.5961 18.0419 15.3807V12.516C18.0419 12.3006 17.8711 12.126 17.6605 12.126Z" fill="currentColor"/>
<path d="M12.6111 12.126H9.81105C9.60044 12.126 9.42972 12.3006 9.42972 12.516V15.3807C9.42972 15.5961 9.60044 15.7708 9.81105 15.7708H12.6111C12.8217 15.7708 12.9924 15.5961 12.9924 15.3807V12.516C12.9924 12.3006 12.8217 12.126 12.6111 12.126Z" fill="currentColor"/>
<path d="M7.56175 12.126H4.76172C4.55115 12.126 4.38043 12.3006 4.38043 12.516V15.3807C4.38043 15.5961 4.55119 15.7708 4.76172 15.7708H7.56175C7.77231 15.7708 7.94303 15.5961 7.94303 15.3807V12.516C7.94303 12.3006 7.77227 12.126 7.56175 12.126Z" fill="currentColor"/>
</g>
<defs>
<clipPath id="clip0">
<rect width="21.5042" height="22" fill="white" transform="translate(0.459167)"/>
</clipPath>
</defs>
</svg>
