<svg width="100%" height="100%" viewBox="0 0 9 8" fill="none" xmlns="http://www.w3.org/2000/svg">
<path d="M5.58506 4.02642C5.58506 4.20715 5.53146 4.38383 5.43105 4.5341C5.33064 4.68437 5.18793 4.8015 5.02095 4.87066C4.85398 4.93982 4.67024 4.95792 4.49298 4.92266C4.31572 4.8874 4.1529 4.80037 4.0251 4.67257C3.89731 4.54478 3.81027 4.38195 3.77502 4.20469C3.73976 4.02743 3.75785 3.8437 3.82702 3.67672C3.89618 3.50975 4.0133 3.36703 4.16358 3.26662C4.31385 3.16621 4.49052 3.11262 4.67126 3.11262C4.91361 3.11262 5.14604 3.2089 5.31741 3.38027C5.48878 3.55164 5.58506 3.78407 5.58506 4.02642ZM8.93565 2.19882V6.15862C8.93565 6.40097 8.83938 6.6334 8.66801 6.80477C8.49664 6.97614 8.26421 7.07242 8.02185 7.07242H1.32066C1.0783 7.07242 0.845877 6.97614 0.674506 6.80477C0.503135 6.6334 0.40686 6.40097 0.40686 6.15862V2.19882C0.40686 1.95647 0.503135 1.72404 0.674506 1.55267C0.845877 1.3813 1.0783 1.28502 1.32066 1.28502H2.92895L3.02642 0.980422C3.08961 0.801692 3.20682 0.647039 3.36181 0.537888C3.51681 0.428737 3.70191 0.370492 3.89148 0.371223H5.45103C5.64246 0.371581 5.82894 0.432046 5.98415 0.544085C6.13937 0.656123 6.25548 0.814077 6.31609 0.995652L6.41357 1.30025H8.02185C8.26159 1.30022 8.49174 1.3944 8.66268 1.56249C8.83362 1.73058 8.93166 1.95912 8.93565 2.19882ZM6.19426 4.02642C6.19426 3.7252 6.10493 3.43074 5.93758 3.18029C5.77023 2.92983 5.53237 2.73462 5.25408 2.61935C4.97579 2.50408 4.66957 2.47392 4.37413 2.53268C4.0787 2.59145 3.80733 2.7365 3.59433 2.9495C3.38134 3.16249 3.23629 3.43386 3.17752 3.7293C3.11876 4.02473 3.14892 4.33095 3.26419 4.60925C3.37946 4.88754 3.57467 5.1254 3.82512 5.29275C4.07558 5.4601 4.37004 5.54942 4.67126 5.54942C5.07518 5.54942 5.46256 5.38896 5.74818 5.10334C6.0338 4.81772 6.19426 4.43034 6.19426 4.02642Z" fill="currentColor"/>
</svg>
