<svg width="100%" height="100%" viewBox="0 0 26 26" fill="none" xmlns="http://www.w3.org/2000/svg">
<path d="M16.4197 4.08777H2.62346C2.21676 4.08777 1.89734 4.41455 1.89734 4.83063V13.7449C1.89734 14.1534 2.21676 14.4878 2.62346 14.4878H16.4197C16.819 14.4878 17.1458 14.1534 17.1458 13.7449V4.83063C17.1458 4.41455 16.8191 4.08777 16.4197 4.08777Z" fill="currentColor"/>
<path d="M1.89124 18.2017C1.89124 18.6102 2.21799 18.9446 2.61735 18.9446H3.40156C3.70653 17.3919 4.95545 16.1737 6.50934 15.9731H2.62461C2.36314 15.9731 2.12367 15.9285 1.89124 15.8394V18.2017Z" fill="currentColor"/>
<path d="M22.9047 18.9452H23.8051C24.2044 18.9452 24.5312 18.6109 24.5312 18.2024V11.6949C24.5312 10.5286 21.7502 7.80237 20.2254 7.80237H18.5989V13.7452C18.5989 14.9709 17.6186 15.9738 16.4205 15.9738H7.45285C9.00681 16.1744 10.2557 17.3926 10.5606 18.9452H15.7451C16.0792 17.2366 17.5532 15.9366 19.3249 15.9366C21.0894 15.9366 22.5707 17.2366 22.9047 18.9452ZM19.7896 9.62972C23.5074 9.44401 23.355 13.3737 23.355 13.3737H19.7896V9.62972Z" fill="currentColor"/>
<path d="M19.3225 21.9119C20.5336 21.9119 21.5154 20.9075 21.5154 19.6685C21.5154 18.4295 20.5336 17.425 19.3225 17.425C18.1114 17.425 17.1296 18.4295 17.1296 19.6685C17.1296 20.9075 18.1114 21.9119 19.3225 21.9119Z" fill="currentColor"/>
<path d="M6.97831 21.9119C8.1894 21.9119 9.17118 20.9075 9.17118 19.6685C9.17118 18.4295 8.1894 17.425 6.97831 17.425C5.76722 17.425 4.78543 18.4295 4.78543 19.6685C4.78543 20.9075 5.76722 21.9119 6.97831 21.9119Z" fill="currentColor"/>
</svg>
