<svg width="100%" height="100%" viewBox="0 0 24 24" fill="none" xmlns="http://www.w3.org/2000/svg">
<g clip-path="url(#clip0)">
<path d="M15.5977 14.0737C14.8468 14.0737 14.2358 14.6987 14.2358 15.4669C14.2358 16.2352 14.8468 16.8604 15.5977 16.8604C16.3488 16.8604 16.9595 16.2352 16.9595 15.4669C16.9593 14.6987 16.3486 14.0737 15.5977 14.0737Z" fill="currentColor"/>
<path d="M8.81 7.13025C8.05894 7.13025 7.44791 7.75537 7.44791 8.52375C7.44809 9.29175 8.05913 9.91669 8.81 9.91669C9.56088 9.91669 10.1716 9.29175 10.1716 8.52375C10.1716 7.75537 9.56088 7.13025 8.81 7.13025Z" fill="currentColor"/>
<path d="M12.2122 0C5.74421 0 0.482574 5.38294 0.482574 12C0.482574 18.6167 5.74421 24 12.2122 24C18.6794 24 23.9406 18.6167 23.9406 12C23.9406 5.38294 18.6794 0 12.2122 0ZM8.81039 5.62931C10.3701 5.62931 11.6394 6.92756 11.6394 8.52394C11.6394 10.1196 10.3701 11.4182 8.81039 11.4182C7.25017 11.4182 5.981 10.1196 5.981 8.52394C5.981 6.92756 7.25036 5.62931 8.81039 5.62931ZM7.95028 17.421C7.80733 17.5676 7.61911 17.6411 7.43162 17.6411C7.24394 17.6411 7.05609 17.5676 6.91277 17.421C6.62631 17.1279 6.62631 16.6524 6.91277 16.3597L16.4729 6.57881C16.7592 6.28575 17.2238 6.28575 17.5104 6.57881C17.7969 6.87188 17.7969 7.34738 17.5104 7.64025L7.95028 17.421ZM15.5978 18.3615C14.0377 18.3615 12.7684 17.0631 12.7684 15.4669C12.7684 13.8712 14.0377 12.5726 15.5978 12.5726C17.1576 12.5726 18.4268 13.8712 18.4268 15.4669C18.4266 17.0631 17.1574 18.3615 15.5978 18.3615Z" fill="currentColor"/>
</g>
<defs>
<clipPath id="clip0">
<rect width="23.4592" height="24" fill="white" transform="translate(0.481689)"/>
</clipPath>
</defs>
</svg>
