<svg width="100%" height="100%" viewBox="0 0 17 21" fill="none" xmlns="http://www.w3.org/2000/svg">
<path d="M14.7256 4.23539L11.0764 0.714585C11.0027 0.643601 10.903 0.603699 10.7989 0.603699H0.871424C0.654707 0.603699 0.479034 0.77319 0.479034 0.98228V19.2299C0.479034 19.439 0.654707 19.6085 0.871424 19.6085H14.4481C14.6648 19.6085 14.8405 19.439 14.8405 19.2299V4.50309C14.8405 4.40269 14.7992 4.30638 14.7256 4.23539ZM11.1913 1.89629L13.5008 4.12451H11.1913V1.89629ZM14.0557 18.8513H1.26381V1.36086H10.4065V4.50309C10.4065 4.71218 10.5822 4.88167 10.7989 4.88167H14.0557V18.8513Z" fill="currentColor"/>
<path d="M3.24548 7.19103H9.73953C9.95621 7.19103 10.1319 7.02154 10.1319 6.81245C10.1319 6.60336 9.95621 6.43387 9.73953 6.43387H3.24548C3.02876 6.43387 2.85309 6.60336 2.85309 6.81245C2.85309 7.02154 3.02876 7.19103 3.24548 7.19103Z" fill="currentColor"/>
<path d="M12.0743 8.9325H3.24548C3.02876 8.9325 2.85309 9.10199 2.85309 9.31108C2.85309 9.52017 3.02876 9.68966 3.24548 9.68966H12.0743C12.2909 9.68966 12.4666 9.52017 12.4666 9.31108C12.4666 9.10199 12.2909 8.9325 12.0743 8.9325Z" fill="currentColor"/>
<path d="M12.0743 11.4312H3.24548C3.02876 11.4312 2.85309 11.6006 2.85309 11.8097C2.85309 12.0188 3.02876 12.1883 3.24548 12.1883H12.0743C12.2909 12.1883 12.4666 12.0188 12.4666 11.8097C12.4666 11.6006 12.2909 11.4312 12.0743 11.4312Z" fill="currentColor"/>
<path d="M12.0743 13.9297H3.24548C3.02876 13.9297 2.85309 14.0992 2.85309 14.3083C2.85309 14.5174 3.02876 14.6869 3.24548 14.6869H12.0743C12.2909 14.6869 12.4666 14.5174 12.4666 14.3083C12.4666 14.0992 12.2909 13.9297 12.0743 13.9297Z" fill="currentColor"/>
<path d="M11.2111 7.19103H12.0743C12.291 7.19103 12.4667 7.02154 12.4667 6.81245C12.4667 6.60336 12.291 6.43387 12.0743 6.43387H11.2111C10.9944 6.43387 10.8187 6.60336 10.8187 6.81245C10.8187 7.02154 10.9944 7.19103 11.2111 7.19103Z" fill="currentColor"/>
<path d="M16.4008 17.3956C16.4008 19.1001 14.9645 20.5063 13.1619 20.5063C11.3593 20.5063 9.92295 19.1001 9.92295 17.3956C9.92295 15.6911 11.3593 14.2849 13.1619 14.2849C14.9645 14.2849 16.4008 15.6911 16.4008 17.3956Z" fill="white" stroke="#022F47" stroke-width="0.807692"/>
<path d="M12.3728 18.8275C12.3113 18.8275 12.2566 18.8015 12.2225 18.7625L11.1906 17.6976C11.1154 17.6197 11.1222 17.4963 11.2042 17.4248C11.2862 17.3534 11.4161 17.3599 11.4913 17.4378L12.3796 18.3534L14.8398 16.0222C14.9218 15.9443 15.0516 15.9443 15.1268 16.0222C15.2019 16.1001 15.2088 16.2235 15.1268 16.2949L12.5163 18.769C12.4821 18.808 12.4275 18.8275 12.3728 18.8275Z" fill="#022F47"/>
</svg>
