<svg width="100%" height="100%" viewBox="0 0 10 11" fill="none" xmlns="http://www.w3.org/2000/svg">
<path d="M2.20835 3.4226V1.23228C2.20835 0.979838 2.00386 0.775024 1.75148 0.775024C1.49911 0.775024 1.29462 0.979838 1.29462 1.23228V3.42262C0.798008 3.60904 0.441864 4.08516 0.441864 4.64654C0.441864 5.20791 0.798008 5.68402 1.29462 5.87043V9.76777C1.29462 10.0202 1.49911 10.225 1.75148 10.225C2.00386 10.225 2.20835 10.0202 2.20835 9.76777V5.87045C2.70501 5.68404 3.06125 5.20793 3.06125 4.64654C3.06125 4.08514 2.70501 3.60902 2.20835 3.4226Z" fill="currentColor"/>
<path d="M5.61963 5.4142V1.23228C5.61963 0.979838 5.41514 0.775024 5.16277 0.775024C4.91039 0.775024 4.7059 0.979838 4.7059 1.23228V5.4142C4.20929 5.60061 3.85315 6.07673 3.85315 6.63811C3.85315 7.19949 4.20929 7.67559 4.7059 7.862V9.76777C4.7059 10.0202 4.91039 10.225 5.16277 10.225C5.41514 10.225 5.61963 10.0202 5.61963 9.76777V7.86202C6.11628 7.67563 6.47238 7.1995 6.47238 6.63811C6.47238 6.07671 6.11628 5.60059 5.61963 5.4142Z" fill="currentColor"/>
<path d="M9.03079 3.42262V1.23228C9.03079 0.979838 8.8263 0.775024 8.57393 0.775024C8.32155 0.775024 8.11706 0.979838 8.11706 1.23228V3.4226C7.6204 3.60902 7.26416 4.08514 7.26416 4.64654C7.26416 5.20793 7.6204 5.68404 8.11706 5.87045V9.76777C8.11706 10.0202 8.32155 10.225 8.57393 10.225C8.8263 10.225 9.03079 10.0202 9.03079 9.76777V5.87045C9.52744 5.68406 9.88354 5.20793 9.88354 4.64654C9.88354 4.08514 9.52744 3.60902 9.03079 3.42262Z" fill="currentColor"/>
</svg>
