<svg width="100%" height="100%" viewBox="0 0 17 17" fill="none" xmlns="http://www.w3.org/2000/svg">
<g clip-path="url(#clip0)">
<path d="M12.2792 0.0722656H4.25826C2.05271 0.0722656 0.247803 1.88868 0.247803 4.1083V12.1808C0.247803 14.3998 2.05271 16.2168 4.25826 16.2168H12.2792C14.4847 16.2168 16.2896 14.3998 16.2896 12.1808V4.1083C16.2896 1.88868 14.4847 0.0722656 12.2792 0.0722656ZM14.9528 12.1808C14.9528 13.664 13.7539 14.8714 12.2792 14.8714H4.25826C2.78422 14.8714 1.58469 13.664 1.58469 12.1808V4.1083C1.58469 2.62466 2.78422 1.41768 4.25826 1.41768H12.2792C13.7539 1.41768 14.9528 2.62466 14.9528 4.1083V12.1808Z" fill="currentColor"/>
<path d="M12.6139 4.78096C13.1676 4.78096 13.6165 4.32921 13.6165 3.77195C13.6165 3.21469 13.1676 2.76294 12.6139 2.76294C12.0602 2.76294 11.6113 3.21469 11.6113 3.77195C11.6113 4.32921 12.0602 4.78096 12.6139 4.78096Z" fill="currentColor"/>
<path d="M8.2687 4.1084C6.05331 4.1084 4.25824 5.91512 4.25824 8.14443C4.25824 10.3729 6.05331 12.1809 8.2687 12.1809C10.4835 12.1809 12.2792 10.3729 12.2792 8.14443C12.2792 5.91512 10.4835 4.1084 8.2687 4.1084ZM8.2687 10.8355C6.79223 10.8355 5.59512 9.63071 5.59512 8.14443C5.59512 6.65816 6.79223 5.45381 8.2687 5.45381C9.74517 5.45381 10.9423 6.65816 10.9423 8.14443C10.9423 9.63071 9.74517 10.8355 8.2687 10.8355Z" fill="currentColor"/>
</g>
<defs>
<clipPath id="clip0">
<rect width="16.0422" height="16.1445" fill="white" transform="translate(0.247437 0.0722656)"/>
</clipPath>
</defs>
</svg>
