<svg width="175" height="35" viewBox="0 0 175 35" fill="none" xmlns="http://www.w3.org/2000/svg">
<path d="M17.4443 4.90002L0 34.9999H34.8886L17.4443 4.90002Z" fill="#F2F2F2"/>
<path fill-rule="evenodd" clip-rule="evenodd" d="M17.6917 24.6748C18.5824 24.6748 19.2876 23.1698 19.2876 21.3498C19.2876 19.4948 18.5824 18.0248 17.6917 18.0248C16.8009 18.0248 16.0957 19.5298 16.0957 21.3498C16.0957 23.1698 16.8009 24.6748 17.6917 24.6748Z" fill="#E7C263"/>
<path fill-rule="evenodd" clip-rule="evenodd" d="M15.688 29.7848C10.7145 29.8198 4.85025 24.2549 3.7739 19.7749C2.92024 16.2399 3.21717 13.2999 5.66679 8.36496C6.18641 7.31497 6.70602 6.71997 6.70602 6.71997C6.70602 6.71997 5.14717 10.43 5.2214 14.0349C5.36987 20.9649 8.37622 24.5699 14.1662 28.1049C14.7972 28.4898 15.0199 28.5949 15.391 29.0498C15.7622 29.5398 15.688 29.7848 15.688 29.7848Z" fill="#E7C263"/>
<path fill-rule="evenodd" clip-rule="evenodd" d="M15.9471 27.8951C15.9471 27.8951 15.7987 26.5651 13.5346 24.8851C9.34056 21.8401 7.26209 17.0451 8.22709 12.0051C8.67248 9.69515 9.52613 7.00016 10.4169 5.60017C11.3077 4.20017 12.4954 2.31018 12.4954 2.31018C7.22497 7.77016 3.29073 16.2051 8.74671 22.8551C10.2313 24.6751 12.5325 26.2851 13.6088 26.8801C14.6481 27.4751 15.9471 27.8951 15.9471 27.8951Z" fill="#E7C263"/>
<path fill-rule="evenodd" clip-rule="evenodd" d="M14.8706 24.9549C14.8706 24.9549 14.8335 23.0299 13.6458 21.8749C8.44965 16.9399 10.0085 6.54497 16.7635 0C9.97139 4.58498 5.9258 16.3799 11.9385 22.6799C13.2375 24.0799 14.8706 24.9549 14.8706 24.9549Z" fill="#E7C263"/>
<path fill-rule="evenodd" clip-rule="evenodd" d="M19.5102 29.7848C24.4837 29.8198 30.385 24.2898 31.4614 19.8098C32.315 16.2748 32.0181 13.3348 29.5685 8.39987C29.0489 7.34988 28.5293 6.75488 28.5293 6.75488C28.5293 6.75488 30.0881 10.4649 30.0139 14.0698C29.8654 20.9998 26.8591 24.6048 21.069 28.1398C20.4381 28.5248 20.2154 28.6298 19.8442 29.0848C19.4731 29.5398 19.5102 29.7848 19.5102 29.7848Z" fill="#E7C263"/>
<path fill-rule="evenodd" clip-rule="evenodd" d="M19.2501 27.895C19.2501 27.895 19.3986 26.5651 21.6626 24.8851C25.8938 21.8401 27.9351 17.0451 26.9701 12.0051C26.5619 9.69514 25.6711 7.03516 24.7803 5.60016C23.8896 4.20017 22.7019 2.31018 22.7019 2.31018C27.9722 7.77015 31.9065 16.2051 26.4505 22.8551C24.9659 24.6751 22.6647 26.2851 21.5884 26.8801C20.5492 27.475 19.2501 27.895 19.2501 27.895Z" fill="#E7C263"/>
<path fill-rule="evenodd" clip-rule="evenodd" d="M20.3269 24.9549C20.3269 24.9549 20.364 23.0299 21.5517 21.8749C26.7478 16.9399 25.189 6.54497 18.434 0C25.189 4.61998 29.2346 16.4149 23.2219 22.7149C21.9599 24.0799 20.3269 24.9549 20.3269 24.9549Z" fill="#E7C263"/>
<path d="M53.5789 29.6091V23.4881H47.734V29.6091H43.7964V14.5823H47.734V20.4711H53.5789V14.5823H57.5166V29.6091H53.5789Z" fill="currentColor"/>
<path d="M69.8832 26.7081H63.7922L62.8078 29.6091H58.7778L64.6843 14.5823H68.9911L74.9283 29.6091H70.8984L69.8832 26.7081ZM64.7766 23.7782H68.868L66.8377 17.4252L64.7766 23.7782Z" fill="currentColor"/>
<path d="M88.0949 29.8992C82.896 29.8992 79.9736 26.3601 79.9736 22.1247C79.9736 17.8893 82.9268 14.3502 88.0949 14.3502C93.2323 14.3502 96.2163 17.8893 96.2163 22.1247C96.2163 26.3601 93.2631 29.8992 88.0949 29.8992ZM92.3095 22.0957C92.3095 19.2818 90.8636 17.2511 88.0949 17.2511C85.3263 17.2511 83.8804 19.2818 83.8804 22.0957C83.8804 24.9096 85.3263 26.9402 88.0949 26.9402C90.8944 26.9402 92.3095 24.9096 92.3095 22.0957Z" fill="currentColor"/>
<path d="M102.8 17.5122L102.4 20.8773C101.569 27.6364 99.3234 29.6961 96.9854 29.8701L95.8164 27.1143C97.5084 26.5631 98.6466 24.7355 99.108 19.862L99.6002 14.5823H110.213V29.6091H106.276V17.5122H102.8Z" fill="currentColor"/>
<path d="M122.672 29.6091V19.92L116.612 29.6091H112.674V14.5823H116.612V24.0683L122.672 14.5823H126.61V29.6091H122.672Z" fill="currentColor"/>
<path d="M139.776 27.2303H135.992L132.885 21.1964L132.393 29.6091H128.548L129.778 14.5823H133.316L137.9 23.7782L142.483 14.5823H146.021L147.221 29.6091H143.376L142.883 21.1964L139.776 27.2303Z" fill="currentColor"/>
<path d="M162.726 14.5823V29.6091H158.788V17.5122H153.097V29.6091H149.159V14.5823H162.726Z" fill="currentColor"/>
<path d="M165.002 14.5823H174.939V17.5122H168.94V20.5292H174.662V23.4591H168.94V26.6501H175V29.58H165.002V14.5823Z" fill="currentColor"/>
</svg>
