<svg width="13" height="19" viewBox="0 0 13 19" fill="none" xmlns="http://www.w3.org/2000/svg">
<path d="M1.52904 18.9997C1.23098 19.0058 0.938281 18.9244 0.691638 18.7667C0.444996 18.6089 0.256664 18.3825 0.152828 18.1192C0.0489921 17.8559 0.0348108 17.5687 0.112255 17.2974C0.1897 17.0262 0.354922 16.7845 0.584952 16.6059L9.36188 9.52185L0.584952 2.44033C0.425829 2.33015 0.292567 2.19026 0.193512 2.02931C0.0944571 1.86835 0.0317432 1.68982 0.00929685 1.50497C-0.0131495 1.32013 0.00515572 1.13294 0.0630661 0.955072C0.120976 0.777201 0.217244 0.612457 0.345841 0.47126C0.474438 0.330063 0.632594 0.215528 0.810403 0.134586C0.988213 0.0536442 1.18185 0.00818062 1.37918 0.00100708C1.57651 -0.00616646 1.77329 0.0250187 1.95719 0.0928135C2.14109 0.160608 2.30815 0.263443 2.44791 0.394884L12.4967 8.49515C12.6545 8.62203 12.7812 8.77951 12.8681 8.95699C12.955 9.13447 13 9.32765 13 9.5231C13 9.71855 12.955 9.91173 12.8681 10.0892C12.7812 10.2667 12.6545 10.4243 12.4967 10.5512L2.44791 18.6593C2.19407 18.8717 1.86847 18.9925 1.52904 19L1.52904 18.9997Z" fill="currentColor"/>
</svg>
