<svg width="100%" height="100%" viewBox="0 0 13 14" fill="none" xmlns="http://www.w3.org/2000/svg">
<path d="M6.47068 13.125C6.31827 13.125 6.17209 13.062 6.06432 12.9498C5.95654 12.8376 5.896 12.6855 5.896 12.5269V1.47314C5.896 1.31451 5.95654 1.16237 6.06432 1.05019C6.17209 0.938019 6.31827 0.875 6.47068 0.875C6.6231 0.875 6.76927 0.938019 6.87705 1.05019C6.98482 1.16237 7.04537 1.31451 7.04537 1.47314V12.5269C7.04537 12.6855 6.98482 12.8376 6.87705 12.9498C6.76927 13.062 6.6231 13.125 6.47068 13.125Z" fill="currentColor"/>
<path d="M11.7808 7.59814H1.16062C1.00821 7.59814 0.862034 7.53513 0.754259 7.42295C0.646485 7.31078 0.585938 7.15864 0.585938 7C0.585938 6.84136 0.646485 6.68922 0.754259 6.57705C0.862034 6.46487 1.00821 6.40186 1.16062 6.40186H11.7808C11.9333 6.40186 12.0794 6.46487 12.1872 6.57705C12.295 6.68922 12.3555 6.84136 12.3555 7C12.3555 7.15864 12.295 7.31078 12.1872 7.42295C12.0794 7.53513 11.9333 7.59814 11.7808 7.59814Z" fill="currentColor"/>
</svg>
