<svg width="22" height="22" viewBox="0 0 22 22" fill="none" xmlns="http://www.w3.org/2000/svg">
<path d="M16.1856 15.2689L12.2962 19.1583C12.1261 19.3286 11.9241 19.4636 11.7018 19.5558C11.4794 19.648 11.2411 19.6954 11.0005 19.6954C10.7598 19.6954 10.5215 19.648 10.2992 19.5558C10.0768 19.4636 9.87485 19.3286 9.70475 19.1583L5.81442 15.2689C4.78887 14.2433 4.09048 12.9366 3.80755 11.5141C3.52462 10.0916 3.66987 8.61712 4.22492 7.27715C4.77997 5.93718 5.71991 4.79189 6.92586 3.98611C8.13181 3.18033 9.54962 2.75024 11 2.75024C12.4504 2.75024 13.8682 3.18033 15.0741 3.98611C16.2801 4.79189 17.22 5.93718 17.7751 7.27715C18.3301 8.61712 18.4754 10.0916 18.1925 11.5141C17.9095 12.9366 17.2111 14.2433 16.1856 15.2689V15.2689Z" stroke="currentColor" stroke-width="1.5" stroke-linecap="round" stroke-linejoin="round"/>
<path d="M13.75 10.0833C13.75 10.8127 13.4603 11.5121 12.9445 12.0279C12.4288 12.5436 11.7293 12.8333 11 12.8333C10.2707 12.8333 9.57118 12.5436 9.05546 12.0279C8.53973 11.5121 8.25 10.8127 8.25 10.0833C8.25 9.35397 8.53973 8.65449 9.05546 8.13877C9.57118 7.62304 10.2707 7.33331 11 7.33331C11.7293 7.33331 12.4288 7.62304 12.9445 8.13877C13.4603 8.65449 13.75 9.35397 13.75 10.0833V10.0833Z" stroke="currentColor" stroke-width="1.5" stroke-linecap="round" stroke-linejoin="round"/>
</svg>
