<svg width="17" height="17" viewBox="0 0 17 17" fill="none" xmlns="http://www.w3.org/2000/svg">
<path d="M14.0078 0.992188L13.6198 0.0705521L13.6041 0.0771275L13.5888 0.0842281L14.0078 0.992188ZM1.82031 6.61719L2.23697 7.52626L2.23937 7.52515L1.82031 6.61719ZM7.5332 9.3418H8.5332V8.3418H7.5332V9.3418ZM10.2578 15.0547L9.34985 14.6356L9.34875 14.638L10.2578 15.0547ZM15.8828 2.86719L16.7908 3.28625L16.7979 3.27086L16.8044 3.25524L15.8828 2.86719ZM13.5888 0.0842281L1.40125 5.70923L2.23937 7.52515L14.4269 1.90015L13.5888 0.0842281ZM1.40366 5.70812C-0.952393 6.78798 -0.219785 10.3418 2.37695 10.3418V8.3418C2.24893 8.3418 2.17457 8.302 2.12404 8.25735C2.06468 8.20489 2.01191 8.12002 1.98896 8.01248C1.96611 7.90539 1.97915 7.80554 2.01353 7.73027C2.04315 7.66541 2.10123 7.58847 2.23697 7.52625L1.40366 5.70812ZM2.37695 10.3418H7.5332V8.3418H2.37695V10.3418ZM6.5332 9.3418V14.498H8.5332V9.3418H6.5332ZM6.5332 14.498C6.5332 17.0948 10.087 17.8274 11.1669 15.4713L9.34875 14.638C9.28653 14.7738 9.20959 14.8319 9.14473 14.8615C9.06946 14.8958 8.96961 14.9089 8.86252 14.886C8.75498 14.8631 8.67011 14.8103 8.61765 14.751C8.573 14.7004 8.5332 14.6261 8.5332 14.498H6.5332ZM11.1658 15.4737L16.7908 3.28625L14.9749 2.44813L9.34985 14.6356L11.1658 15.4737ZM16.8044 3.25524C17.2289 2.24719 16.8576 1.24124 16.2457 0.629319C15.6338 0.0173993 14.6278 -0.353891 13.6198 0.0705521L14.3959 1.91382C14.5011 1.86952 14.667 1.87909 14.8315 2.04353C14.9959 2.20798 15.0055 2.3739 14.9612 2.47913L16.8044 3.25524Z" fill="currentColor"/>
</svg>
