<svg width="22" height="16" viewBox="0 0 22 16" fill="none" xmlns="http://www.w3.org/2000/svg">
<path d="M1.24579 0.414383C0.962574 0.420586 0.693052 0.537523 0.494948 0.740013C0.296844 0.942503 0.185912 1.21445 0.185912 1.49773C0.185912 1.78101 0.296844 2.05309 0.494948 2.25558C0.693052 2.45807 0.962574 2.57488 1.24579 2.58108H20.7521C20.8964 2.58424 21.0398 2.55863 21.174 2.50561C21.3082 2.45259 21.4305 2.37323 21.5336 2.27232C21.6368 2.17141 21.7187 2.05096 21.7747 1.91795C21.8306 1.78494 21.8595 1.64203 21.8595 1.49773C21.8595 1.35344 21.8306 1.21065 21.7747 1.07764C21.7187 0.944629 21.6368 0.824054 21.5336 0.723144C21.4305 0.622234 21.3082 0.543003 21.174 0.48998C21.0398 0.436957 20.8964 0.411223 20.7521 0.414383H1.24579ZM1.24579 6.91436C0.958183 6.91436 0.682361 7.02863 0.478995 7.23199C0.27563 7.43536 0.161381 7.71123 0.161381 7.99883C0.161381 8.28643 0.27563 8.56231 0.478995 8.76567C0.682361 8.96904 0.958183 9.08318 1.24579 9.08318H20.7521C21.0397 9.08318 21.3156 8.96904 21.5189 8.76567C21.7223 8.56231 21.8365 8.28643 21.8365 7.99883C21.8365 7.71123 21.7223 7.43536 21.5189 7.23199C21.3156 7.02863 21.0397 6.91436 20.7521 6.91436H1.24579ZM1.14211 13.4166C0.855232 13.4313 0.585894 13.5591 0.393086 13.7721C0.200279 13.985 0.099721 14.2656 0.113437 14.5525C0.127154 14.8395 0.254027 15.1093 0.466267 15.3029C0.678507 15.4965 0.958812 15.598 1.24578 15.5853H20.7521C21.0391 15.5843 21.3139 15.4696 21.5164 15.2664C21.7189 15.0631 21.8326 14.7879 21.8326 14.5009C21.8326 14.214 21.7189 13.9388 21.5164 13.7356C21.3139 13.5323 21.0391 13.4176 20.7521 13.4166H1.24579C1.21125 13.4149 1.17665 13.4149 1.14211 13.4166Z" fill="currentColor"/>
</svg>
