<svg width="100%" height="100%" viewBox="0 0 18 17" fill="none" xmlns="http://www.w3.org/2000/svg">
<path d="M16.9832 14.9567L13.8212 11.7587C14.7795 10.4899 15.305 8.95088 15.3052 7.32692C15.3052 5.36988 14.5516 3.52984 13.1832 2.14602C11.8149 0.762207 9.99587 0 8.06064 0C6.12566 0 4.30635 0.762207 2.93813 2.14602C0.113601 5.00298 0.113601 9.65133 2.93813 12.5078C4.30635 13.8919 6.12566 14.6541 8.06064 14.6541C9.66631 14.6539 11.188 14.1223 12.4425 13.1531L15.6045 16.3511C15.7946 16.5437 16.0443 16.64 16.2938 16.64C16.5433 16.64 16.793 16.5437 16.9832 16.3511C17.364 15.9661 17.364 15.3416 16.9832 14.9567ZM4.31683 11.1134C2.25259 9.02563 2.25282 5.62844 4.31683 3.54044C5.31681 2.5293 6.64648 1.97221 8.06064 1.97221C9.47505 1.97221 10.8045 2.5293 11.8045 3.54044C12.8044 4.55182 13.3553 5.89663 13.3553 7.32692C13.3553 8.75744 12.8044 10.102 11.8045 11.1134C10.8045 12.1248 9.47505 12.6819 8.06064 12.6819C6.64648 12.6819 5.31681 12.1248 4.31683 11.1134Z" fill="currentColor"/>
</svg>
