<svg width="12" height="9" viewBox="0 0 12 9" fill="none" xmlns="http://www.w3.org/2000/svg">
<path d="M11.9998 1.52865C12.0037 1.35811 11.9523 1.19065 11.8526 1.04953C11.753 0.908413 11.61 0.800659 11.4437 0.741249C11.2774 0.681839 11.096 0.673726 10.9247 0.718035C10.7534 0.762345 10.6008 0.856877 10.4879 0.988488L6.0138 6.0102L1.54126 0.988488C1.47167 0.897446 1.38332 0.821201 1.28167 0.764526C1.18001 0.707852 1.06725 0.67197 0.950508 0.659128C0.833763 0.646285 0.715543 0.656758 0.603203 0.689892C0.490863 0.723025 0.386813 0.778105 0.297637 0.851681C0.208461 0.925258 0.136123 1.01575 0.085001 1.11748C0.0338793 1.21921 0.00516605 1.33 0.000636101 1.4429C-0.00389385 1.55581 0.0158014 1.66839 0.0586185 1.77361C0.101436 1.87883 0.166385 1.97442 0.2494 2.05438L5.36536 7.80379C5.44549 7.89408 5.54495 7.96658 5.65704 8.01629C5.76914 8.06601 5.89114 8.09175 6.01459 8.09175C6.13803 8.09175 6.26004 8.06601 6.37213 8.01629C6.48422 7.96658 6.58378 7.89408 6.66391 7.80379L11.7848 2.05438C11.919 1.90914 11.995 1.72285 11.9998 1.52865Z" fill="black"/>
</svg>
