<svg width="100%" height="100%" viewBox="0 0 17 11" fill="none" xmlns="http://www.w3.org/2000/svg">
<path fill-rule="evenodd" clip-rule="evenodd" d="M16.6452 0.808994C16.7701 0.413939 16.6452 0.127155 16.0918 0.127155H14.2544C14.0832 0.11758 13.9133 0.162765 13.7692 0.256241C13.6251 0.349717 13.514 0.486692 13.4519 0.647556C12.8773 2.01118 12.1144 3.2864 11.1857 4.43551C10.7577 4.86626 10.5618 5.01024 10.3296 5.01024C10.2047 5.01024 10.0443 4.86626 10.0443 4.47121V0.791142C10.0443 0.324294 9.90123 0.108915 9.50906 0.108915H6.6918C6.63312 0.106069 6.57447 0.115 6.51926 0.13519C6.46404 0.155379 6.41337 0.186423 6.3702 0.226513C6.32703 0.266603 6.29221 0.314937 6.26778 0.368702C6.24335 0.422466 6.2298 0.480585 6.22791 0.539673C6.22791 0.98867 6.88807 1.09617 6.95941 2.35312V5.08164C6.95941 5.67422 6.85221 5.78211 6.62046 5.78211C5.99577 5.78211 4.22852 3.46611 3.31848 0.826845C3.13994 0.306055 2.96218 0.108915 2.4979 0.108915H0.642735C0.107509 0.108915 0.0184326 0.359996 0.0184326 0.629317C0.0184326 1.81526 3.34933 10.1805 8.72435 10.1805C9.90123 10.1805 10.0443 9.91156 10.0443 9.46256V7.79308C10.0443 7.25406 10.1515 7.16441 10.5259 7.16441C11.4826 7.16441 13.214 9.31509 13.6613 9.76564C13.7646 9.8968 13.8951 10.0036 14.0439 10.0784C14.1926 10.1532 14.3558 10.1943 14.522 10.1987H16.3594C16.8946 10.1987 17.0809 9.87159 16.9386 9.35119C16.6078 8.28011 14.306 6.07665 14.1834 5.90784C13.9154 5.54849 13.9868 5.40529 14.1834 5.08164C14.1653 5.08164 16.413 1.88628 16.6452 0.808994Z" fill="currentColor"/>
</svg>
