<svg width="20" height="20" viewBox="0 0 20 20" fill="none" xmlns="http://www.w3.org/2000/svg">
<path d="M15.7332 11.38C15.4217 11.38 15.1563 11.135 15.1284 10.81C15.0986 10.4662 15.346 10.1628 15.6804 10.1325H15.681C15.7217 9.78998 16.0226 9.54842 16.3585 9.58842C16.6919 9.63061 16.9287 9.94248 16.8877 10.285C16.8181 10.8665 16.3551 11.3259 15.7873 11.3775C15.7691 11.3793 15.7509 11.38 15.7332 11.38Z" fill="currentColor"/>
<path d="M5.86001 12.2681C5.54815 12.2681 5.2828 12.0228 5.25514 11.6974C5.22565 11.3534 5.47338 11.0506 5.80773 11.0203L15.6811 10.1321C16.0173 10.1003 16.3103 10.3565 16.3395 10.7003C16.3689 11.0443 16.1212 11.3471 15.7869 11.3774L5.9135 12.2656C5.89587 12.2671 5.87764 12.2681 5.86001 12.2681Z" fill="currentColor"/>
<path d="M16.2847 10.8338C16.2597 10.8338 16.2348 10.8322 16.2096 10.8291C15.8761 10.7869 15.6394 10.475 15.6804 10.1325L16.4181 3.97535C16.4594 3.63285 16.7649 3.38941 17.0956 3.4316C17.429 3.47379 17.6658 3.78566 17.6248 4.12816L16.8871 10.2853C16.8494 10.6019 16.5871 10.8338 16.2847 10.8338Z" fill="currentColor"/>
<path d="M4.2402 5.82626C3.92834 5.82626 3.66299 5.58095 3.63533 5.25564C3.60585 4.91158 3.85357 4.60876 4.18792 4.57845L16.9686 3.42876C17.3042 3.3972 17.5978 3.65314 17.627 3.99689C17.6565 4.34095 17.4088 4.64376 17.0744 4.67408L4.2937 5.82376C4.27576 5.82533 4.25783 5.82626 4.2402 5.82626Z" fill="currentColor"/>
<path d="M4.08105 4.60501C3.78135 4.60501 3.52025 4.37688 3.47952 4.06282V4.0622C3.14396 4.0622 2.87161 3.78251 2.87161 3.4372C2.87161 3.09188 3.14396 2.81219 3.47952 2.81219C4.08622 2.81219 4.60416 3.27845 4.68471 3.89688C4.72908 4.23907 4.49534 4.55345 4.16251 4.59938C4.13485 4.60313 4.1081 4.60501 4.08105 4.60501Z" fill="currentColor"/>
<path d="M3.47966 4.0625H2.43132C2.09575 4.0625 1.82341 3.7825 1.82341 3.4375C1.82341 3.0925 2.09575 2.8125 2.43132 2.8125H3.47966C3.81523 2.8125 4.08757 3.0925 4.08757 3.4375C4.08757 3.7825 3.81553 4.0625 3.47966 4.0625Z" fill="currentColor"/>
<path d="M4.93086 11.1534C4.63117 11.1534 4.36976 10.9253 4.32934 10.6109L3.47979 4.06243C3.43541 3.72024 3.66915 3.40587 4.00198 3.36024C4.33268 3.31399 4.64089 3.55493 4.68497 3.89712L5.53421 10.4459C5.57859 10.7881 5.34485 11.1024 5.01202 11.1481C4.98466 11.1518 4.95792 11.1534 4.93086 11.1534Z" fill="currentColor"/>
<path d="M7.66481 17.1875C6.51161 17.1875 5.53712 16.1856 5.53712 15C5.53712 13.8144 6.51161 12.8125 7.66481 12.8125C8.81802 12.8125 9.7925 13.8144 9.7925 15C9.7925 16.1856 8.81802 17.1875 7.66481 17.1875ZM7.66481 14.0625C7.17909 14.0625 6.75295 14.5006 6.75295 15C6.75295 15.4994 7.17909 15.9375 7.66481 15.9375C8.15053 15.9375 8.57668 15.4994 8.57668 15C8.57668 14.5006 8.15023 14.0625 7.66481 14.0625Z" fill="currentColor"/>
<path d="M13.4402 17.1875C12.287 17.1875 11.3125 16.1856 11.3125 15C11.3125 13.8144 12.287 12.8125 13.4402 12.8125C14.5934 12.8125 15.5679 13.8144 15.5679 15C15.5679 16.1856 14.5934 17.1875 13.4402 17.1875ZM13.4402 14.0625C12.9545 14.0625 12.5283 14.5006 12.5283 15C12.5283 15.4994 12.9545 15.9375 13.4402 15.9375C13.9259 15.9375 14.3521 15.4994 14.3521 15C14.3521 14.5006 13.9256 14.0625 13.4402 14.0625Z" fill="currentColor"/>
<path d="M6.13408 12.2384C5.22799 12.2384 4.45108 11.5516 4.32919 10.6109C4.28481 10.2687 4.51886 9.95436 4.85169 9.90905C5.18209 9.86249 5.4903 10.1041 5.53438 10.4462C5.57754 10.7784 5.87055 11.0125 6.1897 10.9862C6.53166 10.9562 6.8192 11.2109 6.84838 11.5544C6.87786 11.8981 6.63014 12.2012 6.29609 12.2316C6.24168 12.2359 6.18727 12.2384 6.13408 12.2384Z" fill="currentColor"/>
</svg>
