<svg width="100%" height="100%" viewBox="0 0 35 35" fill="none" xmlns="http://www.w3.org/2000/svg">
<rect x="0.5" y="0.5" width="34" height="34" rx="5.5" fill="url(#paint0_linear)" stroke="#DEDEDE"/>
<g clip-path="url(#clip3dIcon)">
<g filter="url(#filter0_d)">
<path d="M17.8562 22.7056V21.067C17.7751 21.067 17.7346 21.067 17.694 21.067C16.7619 21.0202 15.7891 21.0202 14.857 20.9265C14.2085 20.8797 13.5195 20.7392 12.871 20.6456C12.3441 20.552 11.8172 20.4583 11.2904 20.3179C10.6419 20.1306 9.9934 19.8965 9.34493 19.6624C8.77751 19.4283 8.25063 19.1474 7.76427 18.726C7.52109 18.5387 7.27792 18.2578 7.15633 17.9301C6.91315 17.4619 6.95368 16.8533 7.27792 16.4319C7.56162 16.0105 7.92639 15.6828 8.37222 15.4019C8.8991 15.0741 9.46652 14.7932 10.0339 14.6059C10.4392 14.4655 10.8445 14.325 11.2904 14.2314C11.2904 14.3718 11.2904 14.5123 11.2904 14.6996C11.2904 14.7464 11.2093 14.7932 11.1282 14.84C10.3987 15.0273 9.7097 15.355 9.10175 15.7764C8.8991 15.9169 8.69646 16.151 8.49381 16.3382C8.12904 16.8064 8.2101 17.2746 8.53434 17.696C8.81804 18.0237 9.10175 18.2578 9.46652 18.4451C10.0339 18.7728 10.6824 19.0069 11.2904 19.1474C11.9794 19.3347 12.7089 19.4751 13.3979 19.5688C14.857 19.8029 16.2755 19.8965 17.7346 19.8965H17.8562V18.211C17.8967 18.211 17.9372 18.2578 17.9372 18.3046C18.5452 19.0069 19.1126 19.6624 19.7205 20.3647C19.8421 20.4583 19.8016 20.552 19.7205 20.6456C19.1126 21.3011 18.5452 22.0034 17.9372 22.6588C17.9372 22.612 17.8967 22.612 17.8562 22.7056Z" fill="#7C7C7C"/>
<path d="M20.6938 20.8776V19.6603C20.7749 19.6603 20.8154 19.6135 20.8965 19.6135C21.6666 19.473 22.4366 19.3326 23.2067 19.1921C23.9362 19.0517 24.6658 18.8176 25.3548 18.443C25.7195 18.2557 26.0843 18.0216 26.4085 17.7407C26.8949 17.2257 26.8949 16.6171 26.4085 16.1021C26.1248 15.8211 25.8006 15.5402 25.4358 15.3998C25.0711 15.2125 24.6658 15.072 24.2605 14.8848C24.2199 14.8848 24.1794 14.8379 24.1794 14.7911C24.1794 14.6507 24.1794 14.5102 24.1794 14.3229C24.4631 14.4166 24.7468 14.4634 24.99 14.6039C25.4763 14.8379 26.0032 15.0252 26.4896 15.3061C26.9759 15.5402 27.3812 15.9148 27.7055 16.383C28.1108 16.9448 28.1108 17.7875 27.6244 18.3026C27.2596 18.7239 26.8138 19.0985 26.3275 19.3326C25.8006 19.6135 25.2737 19.8008 24.7063 20.0349C24.301 20.1753 23.8552 20.3158 23.4093 20.4094C22.6798 20.5499 21.9908 20.6903 21.2613 20.8308C21.1397 20.8308 20.937 20.8776 20.6938 20.8776Z" fill="#7C7C7C"/>
<path d="M24.3008 11C23.8145 11 23.4092 11.4682 23.4092 12.03C23.4092 12.5918 23.8145 13.06 24.3008 13.06C24.7872 13.06 25.1925 12.5918 25.1925 12.03C25.233 11.4682 24.8277 11 24.3008 11C24.3414 11 24.3008 11 24.3008 11ZM24.3008 12.5918C24.0171 12.5918 23.8145 12.3578 23.8145 12.03C23.8145 11.7023 24.0171 11.4682 24.3008 11.4682C24.5845 11.4682 24.7872 11.7023 24.7872 12.03C24.7872 12.3578 24.5845 12.5918 24.3008 12.5918Z" fill="#7C7C7C"/>
<path d="M12.1436 15.9625C12.5083 16.1966 12.9542 16.3371 13.3595 16.3371C14.1295 16.3371 14.4132 15.8689 14.3727 15.4475C14.3727 14.792 13.8053 14.5111 13.2379 14.5111H12.711V13.762H13.1973C13.6432 13.762 14.17 13.5279 14.17 13.0129C14.17 12.6383 13.9269 12.3106 13.3595 12.3106C12.9542 12.3106 12.5894 12.451 12.2652 12.6851L12.103 11.936C12.5489 11.6083 13.0757 11.4678 13.6432 11.4678C14.6969 11.4678 15.2238 12.1233 15.2238 12.8256C15.2238 13.3874 14.8996 13.9024 14.2916 14.1365C14.8996 14.277 15.3859 14.792 15.3859 15.5411C15.3859 16.4775 14.6564 17.2266 13.4 17.2266C12.8731 17.2266 12.3867 17.0862 11.9409 16.8053L12.1436 15.9625Z" fill="#7C7C7C"/>
<path d="M18.8293 12.3574C18.6671 12.3574 18.505 12.3574 18.3429 12.3574C17.2486 12.4979 16.6812 13.1533 16.6001 13.9493C16.9244 13.5747 17.3297 13.3874 17.7755 13.3874C18.6671 13.3874 19.3967 14.0897 19.3967 15.2134C19.3967 16.3371 18.5861 17.2266 17.6134 17.2266H17.5728C16.3164 17.2266 15.6274 16.1966 15.6274 14.792C15.5869 13.8556 15.9111 12.9661 16.5191 12.3106C17.046 11.7956 17.6944 11.5147 18.3834 11.4678C18.5455 11.4678 18.7077 11.4678 18.8698 11.4678L18.8293 12.3574ZM18.3834 15.307C18.424 14.7452 18.0592 14.2302 17.5728 14.1834C17.5323 14.1834 17.4918 14.1834 17.4512 14.1834C17.0865 14.1834 16.7622 14.4175 16.5596 14.792C16.5191 14.8857 16.4785 14.9793 16.4785 15.0729C16.5191 15.7284 16.8028 16.3839 17.4918 16.3839C18.0592 16.3839 18.424 15.9157 18.3834 15.307Z" fill="#7C7C7C"/>
<path d="M23.2507 14.3238C23.2507 16.0093 22.6428 17.2266 21.3458 17.2266C20.1704 17.2266 19.522 16.103 19.522 14.3706C19.522 12.6383 20.211 11.4678 21.3863 11.4678C22.6022 11.4678 23.2507 12.6383 23.2507 14.3238ZM20.4542 14.3706C20.4542 15.7284 20.8189 16.4307 21.3458 16.4307C21.9538 16.4307 22.2375 15.6816 22.2375 14.3706C22.2375 13.0597 21.9132 12.3106 21.3458 12.3106C20.8595 12.3106 20.4542 12.9661 20.4542 14.3706Z" fill="#7C7C7C"/>
</g>
</g>
<defs>
<filter id="filter0_d" x="7" y="11" width="21" height="12.7056" filterUnits="userSpaceOnUse" color-interpolation-filters="sRGB">
<feFlood flood-opacity="0" result="BackgroundImageFix"/>
<feColorMatrix in="SourceAlpha" type="matrix" values="0 0 0 0 0 0 0 0 0 0 0 0 0 0 0 0 0 0 127 0"/>
<feOffset dy="1"/>
<feColorMatrix type="matrix" values="0 0 0 0 1 0 0 0 0 1 0 0 0 0 1 0 0 0 1 0"/>
<feBlend mode="normal" in2="BackgroundImageFix" result="effect1_dropShadow"/>
<feBlend mode="normal" in="SourceGraphic" in2="effect1_dropShadow" result="shape"/>
</filter>
<linearGradient id="paint0_linear" x1="17.5" y1="0" x2="17.5" y2="35" gradientUnits="userSpaceOnUse">
<stop stop-color="#F7F7F7"/>
<stop offset="1" stop-color="#F0F0F0"/>
</linearGradient>
<clipPath id="clip3dIcon">
<rect width="21" height="21" fill="white" transform="translate(7 7)"/>
</clipPath>
</defs>
</svg>
