<svg width="42" height="42" viewBox="0 0 42 42" fill="none" xmlns="http://www.w3.org/2000/svg">
<path d="M21.4792 10C16.8037 10 13 13.8037 13 18.4792C13 21.1088 14.3606 24.1628 17.044 27.5566C19.0076 30.0399 20.9429 31.7562 21.0243 31.828C21.2842 32.0573 21.6741 32.0573 21.934 31.828C22.0154 31.7562 23.9507 30.0399 25.9143 27.5566C28.5977 24.1628 29.9583 21.1088 29.9583 18.4792C29.9583 13.8037 26.1546 10 21.4792 10V10ZM21.4792 30.3745C19.8453 28.8174 14.375 23.2471 14.375 18.4792C14.375 14.5619 17.5619 11.375 21.4792 11.375C25.3964 11.375 28.5833 14.5619 28.5833 18.4792C28.5833 23.2471 23.113 28.8175 21.4792 30.3745Z" fill="black"/>
<path d="M26.7394 18.0718L21.9269 13.9468C21.6694 13.7261 21.2895 13.7261 21.0321 13.9468L16.2196 18.0718C15.9313 18.3188 15.8979 18.7529 16.145 19.0412C16.3921 19.3295 16.8262 19.3628 17.1144 19.1157L17.6982 18.6153V22.0312C17.6982 22.4109 18.006 22.7188 18.3857 22.7188H24.5732C24.9529 22.7188 25.2607 22.4109 25.2607 22.0312V18.6153L25.8445 19.1157C26.1341 19.364 26.568 19.3282 26.814 19.0412C27.0611 18.7529 27.0277 18.3189 26.7394 18.0718ZM23.8857 21.3438H19.0732V17.4367L21.4795 15.3742L23.8857 17.4367V21.3438Z" fill="black"/>
</svg>
