<svg width="100%" height="100%" viewBox="0 0 42 42" fill="none" xmlns="http://www.w3.org/2000/svg">
<ellipse cx="21" cy="21" rx="9" ry="9" transform="rotate(-180 21 21)" fill="currentColor"/>
<path d="M24.9999 19.4705C25.0025 19.3788 24.9682 19.2887 24.9017 19.2128C24.8353 19.1369 24.74 19.079 24.6291 19.047C24.5183 19.0151 24.3973 19.0107 24.2831 19.0345C24.1689 19.0584 24.0672 19.1092 23.9919 19.18L21.0092 21.8806L18.0275 19.18C17.9811 19.131 17.9222 19.09 17.8544 19.0595C17.7867 19.0291 17.7115 19.0098 17.6337 19.0029C17.5558 18.996 17.477 19.0016 17.4021 19.0194C17.3272 19.0372 17.2579 19.0668 17.1984 19.1064C17.139 19.146 17.0907 19.1946 17.0567 19.2494C17.0226 19.3041 17.0034 19.3636 17.0004 19.4244C16.9974 19.4851 17.0105 19.5456 17.0391 19.6022C17.0676 19.6588 17.1109 19.7102 17.1663 19.7532L20.5769 22.8451C20.6303 22.8937 20.6966 22.9327 20.7714 22.9594C20.8461 22.9862 20.9274 23 21.0097 23C21.092 23 21.1734 22.9862 21.2481 22.9594C21.3228 22.9327 21.3892 22.8937 21.4426 22.8451L24.8565 19.7532C24.946 19.6751 24.9968 19.5749 25 19.4705L24.9999 19.4705Z" fill="white"/>
</svg>
