<svg width="100%" height="100%" viewBox="0 0 42 42" fill="none" xmlns="http://www.w3.org/2000/svg">
<g clip-path="url(#clip0)">
<path d="M29.0727 28.4275L27.7036 15.7691C27.6699 15.458 27.4072 15.222 27.094 15.222H24.8315V14.8118C24.8316 12.7101 23.1216 11 21.0197 11C18.9179 11 17.2079 12.7101 17.2079 14.8118V15.222H14.9452C14.632 15.222 14.3693 15.4579 14.3356 15.7691L12.9665 28.4275C12.8957 29.0823 13.1074 29.7387 13.5473 30.2288C13.9872 30.7189 14.6172 31 15.2758 31H26.7632C27.4218 31 28.0518 30.7189 28.4919 30.2288C28.9318 29.7387 29.1435 29.0821 29.0727 28.4275ZM18.4341 14.8118C18.4341 13.3862 19.594 12.2262 21.0197 12.2262C22.4455 12.2262 23.6053 13.3862 23.6053 14.8118V15.222H18.4341V14.8118ZM27.5793 29.4097C27.3685 29.6444 27.0788 29.7738 26.7634 29.7738H15.2758C14.9604 29.7738 14.6706 29.6444 14.4598 29.4097C14.2492 29.1749 14.1517 28.8729 14.1857 28.5594L15.4955 16.4483H17.2079V18.0107C17.2079 18.3492 17.4824 18.6237 17.821 18.6237C18.1596 18.6237 18.4341 18.3492 18.4341 18.0107V16.4483H23.6053V18.0107C23.6053 18.3492 23.8798 18.6237 24.2184 18.6237C24.5571 18.6237 24.8316 18.3492 24.8316 18.0107V16.4483H26.5437L27.8535 28.5594C27.8873 28.8729 27.79 29.1749 27.5793 29.4097Z" fill="currentColor"/>
<path d="M21.013 22.1284H21.916C22.2546 22.1284 22.5291 21.8539 22.5291 21.5153C22.5291 21.1767 22.2546 20.9022 21.916 20.9022H21.6263V20.6652C21.6263 20.3266 21.3516 20.0521 21.013 20.0521C20.6744 20.0521 20.3999 20.3266 20.3999 20.6652V21.0394C19.8686 21.2885 19.4971 21.8507 19.4971 22.503C19.4971 23.3859 20.1772 24.1039 21.013 24.1039C21.1702 24.1039 21.3029 24.2755 21.3029 24.4785C21.3029 24.6818 21.1702 24.8533 21.013 24.8533H20.1102C19.7716 24.8533 19.4971 25.1278 19.4971 25.4664C19.4971 25.805 19.7716 26.0795 20.1102 26.0795H20.3999V26.3163C20.3999 26.6551 20.6744 26.9296 21.013 26.9296C21.3516 26.9296 21.6263 26.6551 21.6263 26.3163V25.9423C22.1574 25.6931 22.5291 25.131 22.5291 24.4785C22.5291 23.5958 21.8491 22.8777 21.013 22.8777C20.856 22.8777 20.7233 22.7061 20.7233 22.503C20.7233 22.2999 20.856 22.1284 21.013 22.1284Z" fill="currentColor"/>
</g>
<defs>
<clipPath id="clip0">
<rect width="20" height="20" fill="white" transform="translate(11 11)"/>
</clipPath>
</defs>
</svg>
