<svg width="100%" height="100%" viewBox="0 0 42 42" fill="none" xmlns="http://www.w3.org/2000/svg">
<path d="M28.591 23.1382C28.1746 23.1382 27.8199 22.8197 27.7825 22.3972C27.7427 21.9503 28.0734 21.5558 28.5203 21.5164H28.5211C28.5755 21.0712 28.9777 20.7572 29.4266 20.8092C29.8723 20.864 30.1888 21.2694 30.1339 21.7147C30.0409 22.4707 29.4222 23.0679 28.6633 23.1349C28.6389 23.1374 28.6145 23.1382 28.591 23.1382Z" fill="currentColor"/>
<path d="M15.3937 24.2927C14.9768 24.2927 14.6222 23.9738 14.5852 23.5509C14.5458 23.1036 14.8769 22.71 15.3238 22.6706L28.52 21.516C28.9693 21.4746 29.3609 21.8077 29.3999 22.2546C29.4393 22.7019 29.1082 23.0955 28.6614 23.1349L15.4652 24.2895C15.4416 24.2915 15.4172 24.2927 15.3937 24.2927Z" fill="currentColor"/>
<path d="M29.3275 22.4281C29.2942 22.4281 29.2608 22.426 29.2271 22.422C28.7815 22.3671 28.465 21.9617 28.5198 21.5164L29.5058 13.5121C29.5611 13.0668 29.9694 12.7504 30.4114 12.8052C30.857 12.8601 31.1735 13.2655 31.1186 13.7107L30.1327 21.7151C30.0823 22.1266 29.7317 22.4281 29.3275 22.4281Z" fill="currentColor"/>
<path d="M13.2296 15.9183C12.8128 15.9183 12.4581 15.5994 12.4212 15.1765C12.3817 14.7292 12.7128 14.3355 13.1597 14.2961L30.2417 12.8015C30.6902 12.7605 31.0827 13.0932 31.1217 13.5401C31.1611 13.9874 30.83 14.381 30.3831 14.4205L13.3011 15.915C13.2771 15.9171 13.2532 15.9183 13.2296 15.9183Z" fill="currentColor"/>
<path d="M13.0188 14.3307C12.6183 14.3307 12.2693 14.0341 12.2148 13.6258V13.625C11.7663 13.625 11.4023 13.2614 11.4023 12.8125C11.4023 12.3636 11.7663 12 12.2148 12C13.0257 12 13.718 12.6061 13.8256 13.4101C13.8849 13.8549 13.5725 14.2636 13.1277 14.3233C13.0907 14.3282 13.055 14.3307 13.0188 14.3307Z" fill="currentColor"/>
<path d="M12.2137 13.6254H10.8125C10.364 13.6254 10 13.2614 10 12.8129C10 12.3644 10.364 12.0004 10.8125 12.0004H12.2137C12.6622 12.0004 13.0262 12.3644 13.0262 12.8129C13.0262 13.2614 12.6626 13.6254 12.2137 13.6254Z" fill="currentColor"/>
<path d="M14.1537 22.8436C13.7531 22.8436 13.4038 22.5471 13.3497 22.1384L12.2143 13.6254C12.1549 13.1806 12.4673 12.7719 12.9122 12.7126C13.3542 12.6524 13.7661 12.9657 13.825 13.4105L14.9601 21.9239C15.0194 22.3687 14.707 22.7774 14.2622 22.8367C14.2256 22.8416 14.1898 22.8436 14.1537 22.8436Z" fill="currentColor"/>
<path d="M17.8066 30.6879C16.2653 30.6879 14.9629 29.3855 14.9629 27.8442C14.9629 26.3029 16.2653 25.0004 17.8066 25.0004C19.348 25.0004 20.6504 26.3029 20.6504 27.8442C20.6504 29.3855 19.348 30.6879 17.8066 30.6879ZM17.8066 26.6254C17.1575 26.6254 16.5879 27.195 16.5879 27.8442C16.5879 28.4934 17.1575 29.0629 17.8066 29.0629C18.4558 29.0629 19.0254 28.4934 19.0254 27.8442C19.0254 27.195 18.4554 26.6254 17.8066 26.6254Z" fill="currentColor"/>
<path d="M25.5254 30.6879C23.9841 30.6879 22.6816 29.3855 22.6816 27.8442C22.6816 26.3029 23.9841 25.0004 25.5254 25.0004C27.0667 25.0004 28.3691 26.3029 28.3691 27.8442C28.3691 29.3855 27.0667 30.6879 25.5254 30.6879ZM25.5254 26.6254C24.8762 26.6254 24.3066 27.195 24.3066 27.8442C24.3066 28.4934 24.8762 29.0629 25.5254 29.0629C26.1746 29.0629 26.7441 28.4934 26.7441 27.8442C26.7441 27.195 26.1742 26.6254 25.5254 26.6254Z" fill="currentColor"/>
<path d="M15.7613 24.2541C14.5503 24.2541 13.5119 23.3612 13.349 22.1384C13.2897 21.6935 13.6025 21.2849 14.0474 21.2259C14.489 21.1654 14.9009 21.4794 14.9598 21.9243C15.0175 22.3561 15.4091 22.6604 15.8357 22.6263C16.2927 22.5873 16.677 22.9184 16.716 23.3649C16.7554 23.8117 16.4243 24.2058 15.9779 24.2452C15.9051 24.2509 15.8324 24.2541 15.7613 24.2541Z" fill="currentColor"/>
</svg>
