<svg width="42" height="42" viewBox="0 0 42 42" fill="none" xmlns="http://www.w3.org/2000/svg">
<path d="M26.6159 22.7059C25.0868 22.7059 23.8428 23.9499 23.8428 25.4791C23.8428 27.0082 25.0868 28.2522 26.6159 28.2522C28.1453 28.2522 29.389 27.0082 29.389 25.4791C29.389 23.9499 28.1451 22.7059 26.6159 22.7059ZM26.6159 26.8656C25.8512 26.8656 25.2293 26.2437 25.2293 25.4791C25.2293 24.7144 25.8512 24.0925 26.6159 24.0925C27.3806 24.0925 28.0025 24.7144 28.0025 25.4791C28.0025 26.2438 27.3806 26.8656 26.6159 26.8656Z" fill="currentColor"/>
<path d="M17.1413 22.7059C15.6122 22.7059 14.3682 23.9499 14.3682 25.4791C14.3682 27.0082 15.6122 28.2522 17.1413 28.2522C18.6704 28.2522 19.9144 27.0082 19.9144 25.4791C19.9144 23.9499 18.6704 22.7059 17.1413 22.7059ZM17.1413 26.8656C16.3766 26.8656 15.7547 26.2437 15.7547 25.4791C15.7547 24.7144 16.3766 24.0925 17.1413 24.0925C17.9058 24.0925 18.5279 24.7144 18.5279 25.4791C18.5279 26.2438 17.906 26.8656 17.1413 26.8656Z" fill="currentColor"/>
<path d="M28.4828 14.7684C28.3649 14.5343 28.1253 14.3866 27.8632 14.3866H24.2119V15.7732H27.4357L29.3235 19.528L30.5626 18.9049L28.4828 14.7684Z" fill="currentColor"/>
<path d="M24.5359 24.809H19.29V26.1955H24.5359V24.809Z" fill="currentColor"/>
<path d="M15.0605 24.809H12.6571C12.2742 24.809 11.9639 25.1193 11.9639 25.5022C11.9639 25.8852 12.2742 26.1955 12.6571 26.1955H15.0605C15.4435 26.1955 15.7538 25.8851 15.7538 25.5022C15.7538 25.1193 15.4434 24.809 15.0605 24.809Z" fill="currentColor"/>
<path d="M31.8541 20.5706L30.4904 18.8143C30.3594 18.6451 30.1572 18.5462 29.943 18.5462H24.9051V13.6933C24.9051 13.3103 24.5948 13 24.2119 13H12.6571C12.2742 13 11.9639 13.3104 11.9639 13.6933C11.9639 14.0762 12.2742 14.3865 12.6571 14.3865H23.5185V19.2395C23.5185 19.6224 23.8289 19.9328 24.2118 19.9328H29.6035L30.6131 21.2333V24.8088H28.695C28.3121 24.8088 28.0018 25.1192 28.0018 25.5021C28.0018 25.885 28.3121 26.1954 28.695 26.1954H31.3064C31.6893 26.1954 31.9997 25.885 31.9997 25.5021V20.9959C31.9997 20.8419 31.9484 20.6922 31.8541 20.5706Z" fill="currentColor"/>
<path d="M15.0142 21.2963H11.8251C11.4422 21.2963 11.1318 21.6066 11.1318 21.9895C11.1318 22.3725 11.4422 22.6828 11.8251 22.6828H15.0142C15.3971 22.6828 15.7074 22.3724 15.7074 21.9895C15.7075 21.6066 15.3971 21.2963 15.0142 21.2963Z" fill="currentColor"/>
<path d="M16.6093 18.5693H10.6933C10.3104 18.5693 10 18.8797 10 19.2626C10 19.6456 10.3104 19.9559 10.6933 19.9559H16.6093C16.9922 19.9559 17.3025 19.6455 17.3025 19.2626C17.3025 18.8797 16.9922 18.5693 16.6093 18.5693Z" fill="currentColor"/>
<path d="M17.7411 15.8424H11.8251C11.4422 15.8424 11.1318 16.1528 11.1318 16.5357C11.1318 16.9186 11.4422 17.2289 11.8251 17.2289H17.7411C18.1241 17.2289 18.4344 16.9186 18.4344 16.5357C18.4344 16.1528 18.1241 15.8424 17.7411 15.8424Z" fill="currentColor"/>
</svg>
