<svg width="100%" height="100%" viewBox="0 0 42 42" fill="none" xmlns="http://www.w3.org/2000/svg">
<path d="M22.6491 21.0001L29.6579 13.9909C30.114 13.535 30.114 12.7979 29.6579 12.3419C29.202 11.886 28.4649 11.886 28.0089 12.3419L20.9999 19.3511L13.9911 12.3419C13.5349 11.886 12.798 11.886 12.3421 12.3419C11.886 12.7979 11.886 13.535 12.3421 13.9909L19.3509 21.0001L12.3421 28.0093C11.886 28.4653 11.886 29.2024 12.3421 29.6583C12.5693 29.8858 12.868 30 13.1666 30C13.4651 30 13.7636 29.8858 13.9911 29.6583L20.9999 22.6491L28.0089 29.6583C28.2364 29.8858 28.5349 30 28.8334 30C29.132 30 29.4305 29.8858 29.6579 29.6583C30.114 29.2024 30.114 28.4653 29.6579 28.0093L22.6491 21.0001Z" fill="currentColor"/>
</svg>
