<svg width="42" height="42" viewBox="0 0 42 42" fill="none" xmlns="http://www.w3.org/2000/svg">
<path d="M31.5126 19.754L30.8796 17.231C31.0526 17.1943 31.1825 17.0414 31.1825 16.8581V16.4513C31.1825 15.5681 30.4613 14.8495 29.575 14.8495H26.6917V14.0105C26.6917 13.5758 26.3368 13.2223 25.9007 13.2223H11.2033C10.7671 13.2223 10.4123 13.5758 10.4123 14.0105V20.926C10.4123 21.1366 10.5837 21.3074 10.7951 21.3074C11.0064 21.3074 11.1778 21.1366 11.1778 20.926V14.0105C11.1778 13.9964 11.1892 13.9851 11.2033 13.9851H25.9006C25.9147 13.9851 25.9261 13.9964 25.9261 14.0105V20.9261C25.9261 21.1367 26.0975 21.3075 26.3089 21.3075C26.5202 21.3075 26.6916 21.1367 26.6916 20.9261V20.4937H31.2066C31.207 20.4937 31.2073 20.4938 31.2076 20.4938C31.208 20.4938 31.2084 20.4938 31.2087 20.4938C31.7643 20.4942 32.236 20.8575 32.3981 21.3582H31.2079C30.9966 21.3582 30.8252 21.5289 30.8252 21.7396V22.5532C30.8252 23.2121 31.3631 23.7481 32.0244 23.7481H32.4582V25.4261H31.4574C31.1287 24.4803 30.2263 23.7989 29.1666 23.7989C28.107 23.7989 27.2045 24.4803 26.8758 25.4261H26.6915V22.5531C26.6915 22.3425 26.5202 22.1717 26.3088 22.1717C26.0974 22.1717 25.926 22.3425 25.926 22.5531V25.426H17.985C17.6562 24.4802 16.7538 23.7988 15.6942 23.7988C14.6345 23.7988 13.7321 24.4802 13.4034 25.426H11.2033C11.1892 25.426 11.1778 25.4147 11.1778 25.4006V24.5616H12.8364C13.0477 24.5616 13.2191 24.3909 13.2191 24.1802C13.2191 23.9696 13.0478 23.7988 12.8364 23.7988H9.16205C8.95069 23.7988 8.7793 23.9696 8.7793 24.1802C8.7793 24.3909 8.95065 24.5616 9.16205 24.5616H10.4124V25.4006C10.4124 25.8352 10.7672 26.1888 11.2034 26.1888H13.2708C13.2707 26.1973 13.2702 26.2057 13.2702 26.2142C13.2702 27.546 14.3576 28.6295 15.6942 28.6295C17.0307 28.6295 18.1182 27.546 18.1182 26.2142C18.1182 26.2056 18.1176 26.1973 18.1175 26.1888H26.7433C26.7432 26.1973 26.7426 26.2057 26.7426 26.2142C26.7426 27.546 27.8301 28.6295 29.1666 28.6295C30.5032 28.6295 31.5906 27.546 31.5906 26.2142C31.5906 26.2056 31.5901 26.1973 31.59 26.1888H32.841C33.0523 26.1888 33.2237 26.0181 33.2237 25.8074V21.7395C33.2238 20.7352 32.4801 19.9007 31.5126 19.754ZM26.6917 15.6123H29.575C30.0393 15.6123 30.417 15.9886 30.417 16.4513V16.4767H26.6917V15.6123ZM26.6917 19.731V17.2394H30.0926L30.7178 19.731H26.6917ZM15.6942 27.8669C14.7797 27.8669 14.0356 27.1256 14.0356 26.2143C14.0356 25.303 14.7797 24.5617 15.6942 24.5617C16.6087 24.5617 17.3527 25.303 17.3527 26.2143C17.3527 27.1256 16.6087 27.8669 15.6942 27.8669ZM29.1667 27.8669C28.2522 27.8669 27.5082 27.1256 27.5082 26.2143C27.5082 25.303 28.2522 24.5617 29.1667 24.5617C30.0812 24.5617 30.8253 25.303 30.8253 26.2143C30.8253 27.1256 30.0812 27.8669 29.1667 27.8669ZM32.4583 22.9854H32.0245C31.7853 22.9854 31.5907 22.7915 31.5907 22.5531V22.1209H32.4583V22.9854H32.4583Z" fill="#7C7C7C"/>
<path d="M15.6914 25.4261C15.2552 25.4261 14.9004 25.7797 14.9004 26.2143C14.9004 26.6489 15.2552 27.0025 15.6914 27.0025C16.1276 27.0025 16.4824 26.6489 16.4824 26.2143C16.4824 25.7797 16.1276 25.4261 15.6914 25.4261Z" fill="#7C7C7C"/>
<path d="M29.166 25.4261C28.7298 25.4261 28.375 25.7797 28.375 26.2143C28.375 26.6489 28.7298 27.0025 29.166 27.0025C29.6022 27.0025 29.957 26.6489 29.957 26.2143C29.957 25.7797 29.6022 25.4261 29.166 25.4261Z" fill="#7C7C7C"/>
<path d="M24.6745 23.799H18.9589C18.7476 23.799 18.5762 23.9697 18.5762 24.1803C18.5762 24.391 18.7475 24.5617 18.9589 24.5617H24.6745C24.8859 24.5617 25.0573 24.391 25.0573 24.1803C25.0573 23.9697 24.886 23.799 24.6745 23.799Z" fill="#7C7C7C"/>
<path d="M14.8756 22.1719H9.97651C9.76515 22.1719 9.59375 22.3426 9.59375 22.5533C9.59375 22.7639 9.7651 22.9346 9.97651 22.9346H14.8756C15.087 22.9346 15.2584 22.7639 15.2584 22.5533C15.2584 22.3426 15.087 22.1719 14.8756 22.1719Z" fill="#7C7C7C"/>
<path d="M22.0877 16.9951C21.9383 16.8462 21.6959 16.8462 21.5465 16.9951L18.1428 20.3866L16.3721 18.6223C16.2226 18.4733 15.9803 18.4733 15.8309 18.6223C15.6814 18.7712 15.6814 19.0127 15.8309 19.1616L17.8722 21.1956C17.9469 21.2701 18.0449 21.3073 18.1428 21.3073C18.2407 21.3073 18.3387 21.2701 18.4134 21.1956L22.0877 17.5345C22.2372 17.3855 22.2372 17.144 22.0877 16.9951Z" fill="#7C7C7C"/>
<circle cx="21" cy="21" r="19" stroke="#7C7C7C" stroke-width="2"/>
<path d="M21.8633 40.1999C10.8176 40.1999 1.86328 32.0456 1.86328 20.9999C1.86328 9.95423 10.8176 1.79993 21.8633 1.79993" stroke="#F3D470" stroke-width="3"/>
</svg>
