<svg width="100%" height="100%" viewBox="0 0 42 42" fill="none" xmlns="http://www.w3.org/2000/svg">
<path d="M21 31C20.6583 31 20.3289 30.8841 20.0722 30.6734C19.1027 29.8794 18.1679 29.1331 17.3432 28.4749L17.339 28.4714C14.9211 26.5415 12.8331 24.8747 11.3804 23.2329C9.75641 21.3974 9 19.6571 9 17.7559C9 15.9088 9.67621 14.2046 10.9039 12.9573C12.1463 11.6951 13.851 11 15.7046 11C17.09 11 18.3587 11.4102 19.4755 12.2193C20.0391 12.6276 20.5499 13.1274 21 13.7104C21.4503 13.1274 21.9609 12.6276 22.5247 12.2193C23.6415 11.4102 24.9102 11 26.2956 11C28.149 11 29.8539 11.6951 31.0963 12.9573C32.324 14.2046 33 15.9088 33 17.7559C33 19.6571 32.2438 21.3974 30.6198 23.2327C29.1671 24.8747 27.0793 26.5413 24.6617 28.4711C23.8356 29.1304 22.8994 29.8778 21.9276 30.6738C21.6711 30.8841 21.3415 31 21 31ZM15.7046 12.3168C14.2484 12.3168 12.9106 12.8612 11.9374 13.8498C10.9497 14.8533 10.4057 16.2405 10.4057 17.7559C10.4057 19.3549 11.0402 20.7849 12.4627 22.3927C13.8376 23.9467 15.8828 25.5791 18.2507 27.4693L18.2551 27.4727C19.0829 28.1336 20.0213 28.8827 20.998 29.6826C21.9805 28.8812 22.9204 28.1308 23.7499 27.469C26.1176 25.5788 28.1625 23.9467 29.5375 22.3927C30.9598 20.7849 31.5943 19.3549 31.5943 17.7559C31.5943 16.2405 31.0503 14.8533 30.0626 13.8498C29.0896 12.8612 27.7516 12.3168 26.2956 12.3168C25.2288 12.3168 24.2494 12.6345 23.3846 13.2608C22.6139 13.8193 22.077 14.5252 21.7623 15.0191C21.6004 15.2731 21.3155 15.4248 21 15.4248C20.6845 15.4248 20.3996 15.2731 20.2377 15.0191C19.9232 14.5252 19.3863 13.8193 18.6154 13.2608C17.7506 12.6345 16.7712 12.3168 15.7046 12.3168Z" fill="currentColor"/>
</svg>
