<svg width="42" height="42" viewBox="0 0 42 42" fill="none" xmlns="http://www.w3.org/2000/svg">
<path d="M15.3676 17.043V12.871C15.3676 12.3901 14.9778 12 14.4967 12C14.0155 12 13.6257 12.3901 13.6257 12.871V17.043C12.679 17.3981 12 18.305 12 19.3743C12 20.4436 12.679 21.3505 13.6257 21.7055V29.129C13.6257 29.6099 14.0155 30 14.4967 30C14.9778 30 15.3676 29.6099 15.3676 29.129V21.7056C16.3145 21.3505 16.9936 20.4436 16.9936 19.3743C16.9936 18.305 16.3145 17.3981 15.3676 17.043Z" fill="currentColor"/>
<path d="M21.8715 20.8365V12.871C21.8715 12.3901 21.4817 12 21.0006 12C20.5194 12 20.1296 12.3901 20.1296 12.871V20.8365C19.1829 21.1916 18.5039 22.0985 18.5039 23.1678C18.5039 24.2371 19.1829 25.1439 20.1296 25.499V29.129C20.1296 29.6099 20.5194 30 21.0006 30C21.4817 30 21.8715 29.6099 21.8715 29.129V25.499C22.8183 25.144 23.4972 24.2371 23.4972 23.1678C23.4972 22.0985 22.8183 21.1916 21.8715 20.8365Z" fill="currentColor"/>
<path d="M28.3747 17.043V12.871C28.3747 12.3901 27.9849 12 27.5038 12C27.0227 12 26.6328 12.3901 26.6328 12.871V17.043C25.686 17.3981 25.0068 18.305 25.0068 19.3743C25.0068 20.4436 25.686 21.3505 26.6328 21.7056V29.129C26.6328 29.6099 27.0227 30 27.5038 30C27.9849 30 28.3747 29.6099 28.3747 29.129V21.7056C29.3216 21.3505 30.0004 20.4436 30.0004 19.3743C30.0004 18.305 29.3216 17.3981 28.3747 17.043Z" fill="currentColor"/>
</svg>
