<svg width="100%" height="100%" viewBox="0 0 42 42" fill="none" xmlns="http://www.w3.org/2000/svg">
<path d="M11.1336 13.0003C10.8504 13.0065 10.5809 13.1234 10.3828 13.3259C10.1846 13.5284 10.0737 13.8003 10.0737 14.0836C10.0737 14.3669 10.1846 14.639 10.3828 14.8415C10.5809 15.0439 10.8504 15.1608 11.1336 15.167H30.6399C30.7842 15.1701 30.9276 15.1445 31.0618 15.0915C31.196 15.0385 31.3183 14.9591 31.4214 14.8582C31.5246 14.7573 31.6065 14.6368 31.6625 14.5038C31.7184 14.3708 31.7473 14.2279 31.7473 14.0836C31.7473 13.9393 31.7184 13.7965 31.6625 13.6635C31.6065 13.5305 31.5246 13.4099 31.4214 13.309C31.3183 13.2081 31.196 13.1289 31.0618 13.0759C30.9276 13.0228 30.7842 12.9971 30.6399 13.0003H11.1336ZM11.1336 19.5002C10.846 19.5002 10.5702 19.6145 10.3668 19.8179C10.1634 20.0212 10.0492 20.2971 10.0492 20.5847C10.0492 20.8723 10.1634 21.1482 10.3668 21.3516C10.5702 21.5549 10.846 21.6691 11.1336 21.6691H30.6399C30.9275 21.6691 31.2034 21.5549 31.4067 21.3516C31.6101 21.1482 31.7243 20.8723 31.7243 20.5847C31.7243 20.2971 31.6101 20.0212 31.4067 19.8179C31.2034 19.6145 30.9275 19.5002 30.6399 19.5002H11.1336ZM11.0299 26.0025C10.743 26.0172 10.4737 26.145 10.2809 26.358C10.0881 26.5709 9.98752 26.8515 10.0012 27.1384C10.015 27.4253 10.1418 27.6952 10.3541 27.8888C10.5663 28.0823 10.8466 28.1838 11.1336 28.1712H30.6399C30.9269 28.1701 31.2017 28.0555 31.4042 27.8523C31.6067 27.649 31.7204 27.3737 31.7204 27.0868C31.7204 26.7999 31.6067 26.5247 31.4042 26.3215C31.2017 26.1182 30.9269 26.0035 30.6399 26.0025H11.1336C11.099 26.0008 11.0644 26.0008 11.0299 26.0025Z" fill="currentColor"/>
</svg>
