<svg width="100%" height="100%" viewBox="0 0 42 42" fill="none" xmlns="http://www.w3.org/2000/svg">
<path d="M30.1038 28.8022L27.5097 26.2172C28.916 24.4798 29.602 22.269 29.4263 20.0407C29.2506 17.8123 28.2266 15.7364 26.5653 14.2409C24.904 12.7454 22.7323 11.9444 20.4978 12.003C18.2633 12.0616 16.1365 12.9754 14.556 14.556C12.9754 16.1365 12.0616 18.2633 12.003 20.4978C11.9444 22.7323 12.7454 24.904 14.2409 26.5653C15.7364 28.2266 17.8123 29.2506 20.0407 29.4263C22.269 29.602 24.4798 28.916 26.2172 27.5097L28.8022 30.1038C28.8874 30.1898 28.9888 30.258 29.1005 30.3045C29.2122 30.351 29.332 30.375 29.453 30.375C29.574 30.375 29.6938 30.351 29.8055 30.3045C29.9172 30.258 30.0186 30.1898 30.1038 30.1038C30.1898 30.0186 30.258 29.9172 30.3045 29.8055C30.351 29.6938 30.375 29.574 30.375 29.453C30.375 29.332 30.351 29.2122 30.3045 29.1005C30.258 28.9888 30.1898 28.8874 30.1038 28.8022ZM13.8697 20.7447C13.8697 19.3849 14.2729 18.0557 15.0283 16.9251C15.7838 15.7945 16.8575 14.9134 18.1137 14.393C19.37 13.8726 20.7523 13.7365 22.0859 14.0018C23.4195 14.267 24.6445 14.9218 25.606 15.8833C26.5675 16.8448 27.2223 18.0698 27.4876 19.4034C27.7528 20.737 27.6167 22.1194 27.0963 23.3756C26.576 24.6319 25.6948 25.7056 24.5642 26.461C23.4336 27.2165 22.1044 27.6197 20.7447 27.6197C18.9213 27.6197 17.1726 26.8953 15.8833 25.606C14.594 24.3167 13.8697 22.568 13.8697 20.7447Z" fill="currentColor"/>
</svg>
