<svg width="100%" height="100%" viewBox="0 0 42 42" fill="none" xmlns="http://www.w3.org/2000/svg">
<path d="M17.1762 12.0003C16.9469 11.9945 16.7218 12.0716 16.532 12.2211C16.3423 12.3706 16.1974 12.585 16.1176 12.8345C16.0377 13.0839 16.0268 13.356 16.0864 13.6129C16.1459 13.8699 16.273 14.0989 16.45 14.2681L23.2014 20.9793L16.45 27.6881C16.3276 27.7925 16.2251 27.925 16.1489 28.0775C16.0727 28.23 16.0244 28.3991 16.0072 28.5742C15.9899 28.7494 16.004 28.9267 16.0485 29.0952C16.0931 29.2637 16.1671 29.4198 16.266 29.5535C16.365 29.6873 16.4866 29.7958 16.6234 29.8725C16.7602 29.9492 16.9091 29.9923 17.0609 29.999C17.2127 30.0058 17.3641 29.9763 17.5055 29.9121C17.647 29.8478 17.7755 29.7504 17.883 29.6259L25.6128 21.952C25.7342 21.8318 25.8317 21.6826 25.8985 21.5144C25.9654 21.3463 26 21.1633 26 20.9781C26 20.793 25.9654 20.6099 25.8985 20.4418C25.8317 20.2737 25.7342 20.1243 25.6128 20.0041L17.883 12.3228C17.6877 12.1216 17.4373 12.0071 17.1762 12V12.0003Z" fill="currentColor"/>
</svg>
