<svg width="14" height="14" viewBox="0 0 14 14" fill="none" xmlns="http://www.w3.org/2000/svg">
<path d="M8.28571 6.45455C8.28571 6.72425 8.21031 6.9879 8.06903 7.21214C7.92776 7.43639 7.72696 7.61117 7.49202 7.71438C7.25709 7.81759 6.99857 7.8446 6.74917 7.79198C6.49977 7.73937 6.27067 7.60949 6.09086 7.41879C5.91105 7.22808 5.7886 6.9851 5.73899 6.72058C5.68938 6.45606 5.71484 6.18188 5.81215 5.93271C5.90947 5.68354 6.07426 5.47057 6.2857 5.32073C6.49713 5.17089 6.74571 5.09091 7 5.09091C7.34099 5.09091 7.66802 5.23458 7.90914 5.49031C8.15026 5.74605 8.28571 6.09289 8.28571 6.45455ZM13 3.72728V9.6364C13 9.998 12.8645 10.3449 12.6234 10.6006C12.3823 10.8563 12.0553 11 11.7143 11H2.28571C1.94472 11 1.6177 10.8563 1.37658 10.6006C1.13546 10.3449 1 9.998 1 9.6364V3.72728C1 3.36562 1.13546 3.01878 1.37658 2.76304C1.6177 2.50731 1.94472 2.36365 2.28571 2.36365H4.54857L4.68571 1.9091C4.77462 1.64239 4.93954 1.4116 5.15761 1.24872C5.37569 1.08584 5.63613 0.99892 5.90286 1.00001H8.09714C8.36648 1.00054 8.62886 1.09078 8.84724 1.25797C9.06563 1.42516 9.229 1.66087 9.31429 1.93183L9.45143 2.38637H11.7143C12.0516 2.38632 12.3754 2.52687 12.6159 2.7777C12.8564 3.02854 12.9944 3.36957 13 3.72728ZM9.14286 6.45455C9.14286 6.00505 9.01718 5.56564 8.78172 5.19189C8.54626 4.81814 8.21159 4.52684 7.82004 4.35483C7.42848 4.18281 6.99762 4.1378 6.58195 4.22549C6.16628 4.31319 5.78446 4.52964 5.48477 4.84749C5.18509 5.16534 4.981 5.5703 4.89832 6.01116C4.81563 6.45203 4.85807 6.909 5.02026 7.32428C5.18245 7.73957 5.4571 8.09452 5.80949 8.34425C6.16188 8.59398 6.57618 8.72728 7 8.72728C7.56832 8.72728 8.11337 8.48783 8.51523 8.06161C8.91709 7.63539 9.14286 7.05731 9.14286 6.45455Z" fill="currentColor"/>
</svg>
