<svg width="14" height="14" viewBox="0 0 14 14" fill="none" xmlns="http://www.w3.org/2000/svg">
<path d="M10.936 2.97743L8.90319 1.06038C8.86219 1.02173 8.8066 1 8.74863 1H3.21858C3.09786 1 3 1.09229 3 1.20613V11.1418C3 11.2557 3.09786 11.348 3.21858 11.348H10.7814C10.9021 11.348 11 11.2557 11 11.1418V3.12319C11 3.06852 10.977 3.01608 10.936 2.97743ZM8.96721 1.70381L10.2537 2.91705H8.96721V1.70381ZM10.5628 10.9357H3.43716V1.41227H8.53005V3.12319C8.53005 3.23704 8.62793 3.32932 8.74863 3.32932H10.5628V10.9357Z" fill="currentColor"/>
<path d="M4.5428 5.58665H8.16028C8.28098 5.58665 8.37886 5.49436 8.37886 5.38051C8.37886 5.26666 8.28098 5.17438 8.16028 5.17438H4.5428C4.42208 5.17438 4.32422 5.26666 4.32422 5.38051C4.32422 5.49436 4.42208 5.58665 4.5428 5.58665Z" fill="currentColor"/>
<path d="M9.46083 6.53497H4.5428C4.42208 6.53497 4.32422 6.62726 4.32422 6.74111C4.32422 6.85496 4.42208 6.94724 4.5428 6.94724H9.46083C9.58153 6.94724 9.67941 6.85496 9.67941 6.74111C9.67941 6.62726 9.58153 6.53497 9.46083 6.53497Z" fill="currentColor"/>
<path d="M9.46083 7.89539H4.5428C4.42208 7.89539 4.32422 7.98767 4.32422 8.10152C4.32422 8.21537 4.42208 8.30766 4.5428 8.30766H9.46083C9.58153 8.30766 9.67941 8.21537 9.67941 8.10152C9.67941 7.98767 9.58153 7.89539 9.46083 7.89539Z" fill="currentColor"/>
<path d="M9.46083 9.25598H4.5428C4.42208 9.25598 4.32422 9.34827 4.32422 9.46212C4.32422 9.57596 4.42208 9.66825 4.5428 9.66825H9.46083C9.58153 9.66825 9.67941 9.57596 9.67941 9.46212C9.67941 9.34827 9.58153 9.25598 9.46083 9.25598Z" fill="currentColor"/>
<path d="M8.97932 5.58665H9.4602C9.5809 5.58665 9.67877 5.49436 9.67877 5.38051C9.67877 5.26666 9.5809 5.17438 9.4602 5.17438H8.97932C8.85862 5.17438 8.76074 5.26666 8.76074 5.38051C8.76074 5.49436 8.85862 5.58665 8.97932 5.58665Z" fill="currentColor"/>
</svg>
