<svg width="14" height="14" viewBox="0 0 14 14" fill="none" xmlns="http://www.w3.org/2000/svg">
<path d="M3.8274 4.74564V2.47419C3.8274 2.2124 3.61586 2 3.35478 2C3.0937 2 2.88216 2.2124 2.88216 2.47419V4.74566C2.36843 4.93897 2 5.43273 2 6.0149C2 6.59707 2.36843 7.09081 2.88216 7.28412V11.3258C2.88216 11.5876 3.0937 11.8 3.35478 11.8C3.61586 11.8 3.8274 11.5876 3.8274 11.3258V7.28414C4.34119 7.09083 4.70971 6.59709 4.70971 6.0149C4.70971 5.43271 4.34119 4.93895 3.8274 4.74564Z" fill="currentColor"/>
<path d="M7.35669 6.81099V2.47419C7.35669 2.2124 7.14515 2 6.88407 2C6.623 2 6.41146 2.2124 6.41146 2.47419V6.81099C5.89772 7.00431 5.5293 7.49807 5.5293 8.08024C5.5293 8.6624 5.89772 9.15614 6.41146 9.34946V11.3258C6.41146 11.5876 6.623 11.8 6.88407 11.8C7.14515 11.8 7.35669 11.5876 7.35669 11.3258V9.34948C7.87046 9.15618 8.23885 8.66242 8.23885 8.08024C8.23885 7.49805 7.87046 7.00429 7.35669 6.81099Z" fill="currentColor"/>
<path d="M10.8852 4.74566V2.47419C10.8852 2.2124 10.6736 2 10.4125 2C10.1515 2 9.93993 2.2124 9.93993 2.47419V4.74564C9.42614 4.93895 9.05762 5.43271 9.05762 6.0149C9.05762 6.59709 9.42614 7.09083 9.93993 7.28414V11.3258C9.93993 11.5876 10.1515 11.8 10.4125 11.8C10.6736 11.8 10.8852 11.5876 10.8852 11.3258V7.28414C11.3989 7.09085 11.7673 6.59709 11.7673 6.0149C11.7673 5.43271 11.3989 4.93895 10.8852 4.74566Z" fill="currentColor"/>
</svg>
