<svg width="14" height="14" viewBox="0 0 14 14" fill="none" xmlns="http://www.w3.org/2000/svg">
<path d="M13.3758 14H8.82803C8.50106 14 8.23355 13.7318 8.23355 13.4039V10.5726C8.23355 9.85737 7.66879 9.29111 6.95541 9.29111C6.24204 9.29111 5.67728 9.85737 5.67728 10.5726V13.4039C5.67728 13.7318 5.40977 14 5.0828 14H0.59448C0.267516 14 0 13.7318 0 13.4039V5.77435C0 5.23789 0.267516 4.73124 0.683652 4.43321L6.65817 0.111762C6.86624 -0.0372539 7.13376 -0.0372539 7.34183 0.111762L13.3163 4.43321C13.7325 4.73124 14 5.23789 14 5.77435V13.4337C13.9703 13.7318 13.7028 14 13.3758 14ZM9.42251 12.8377H12.811V5.77435C12.811 5.62533 12.7219 5.47632 12.603 5.38691L6.98514 1.30389L1.3673 5.35711C1.24841 5.44651 1.15924 5.59553 1.15924 5.74454V12.8079H4.54777V10.5726C4.54777 9.23151 5.64756 8.12879 6.98514 8.12879C8.32272 8.12879 9.42251 9.23151 9.42251 10.5726V12.8377Z" fill="currentColor"/>
</svg>
