<svg width="14" height="14" viewBox="0 0 14 14" fill="none" xmlns="http://www.w3.org/2000/svg">
<path d="M3.94095 0.000241112C3.75753 -0.00430989 3.5774 0.0556724 3.42562 0.171941C3.27384 0.28821 3.15795 0.455019 3.09405 0.649026C3.03015 0.843034 3.02142 1.05465 3.06908 1.25451C3.11674 1.45438 3.21841 1.63244 3.35997 1.7641L8.76116 6.9839L3.35997 12.2019C3.26205 12.283 3.18004 12.3861 3.11908 12.5047C3.05813 12.6233 3.01953 12.7549 3.00572 12.8911C2.99191 13.0273 3.00317 13.1652 3.03881 13.2963C3.07445 13.4273 3.13369 13.5487 3.21282 13.6528C3.29196 13.7568 3.38929 13.8412 3.49871 13.9008C3.60813 13.9605 3.72729 13.994 3.84872 13.9993C3.97016 14.0045 4.09125 13.9816 4.20442 13.9316C4.31759 13.8817 4.4204 13.8059 4.50641 13.709L10.6903 7.74041C10.7874 7.64693 10.8654 7.53089 10.9188 7.40011C10.9723 7.26934 11 7.127 11 6.98298C11 6.83896 10.9723 6.69662 10.9188 6.56585C10.8654 6.43507 10.7874 6.31892 10.6903 6.22543L4.50641 0.251073C4.35019 0.0945461 4.14983 0.00555692 3.94095 1.14127e-05L3.94095 0.000241112Z" fill="currentColor"/>
</svg>
