<svg width="100%" height="100%" viewBox="0 0 28 28" fill="none" xmlns="http://www.w3.org/2000/svg">
<path d="M14.4792 3C9.80372 3 6 6.80372 6 11.4792C6 14.1088 7.36061 17.1628 10.044 20.5566C12.0076 23.0399 13.9429 24.7562 14.0243 24.828C14.2842 25.0573 14.6741 25.0573 14.934 24.828C15.0154 24.7562 16.9507 23.0399 18.9143 20.5566C21.5977 17.1628 22.9583 14.1088 22.9583 11.4792C22.9583 6.80372 19.1546 3 14.4792 3V3ZM14.4792 23.3745C12.8453 21.8174 7.375 16.2471 7.375 11.4792C7.375 7.56191 10.5619 4.375 14.4792 4.375C18.3964 4.375 21.5833 7.56191 21.5833 11.4792C21.5833 16.2471 16.113 21.8175 14.4792 23.3745Z" fill="currentColor"/>
<path d="M19.7394 11.0718L14.9269 6.94677C14.6694 6.72608 14.2895 6.72608 14.0321 6.94677L9.21958 11.0718C8.9313 11.3188 8.89791 11.7529 9.14503 12.0412C9.39214 12.3295 9.82617 12.3628 10.1144 12.1157L10.6982 11.6153V15.0312C10.6982 15.4109 11.006 15.7188 11.3857 15.7188H17.5732C17.9529 15.7188 18.2607 15.4109 18.2607 15.0312V11.6153L18.8445 12.1157C19.1341 12.364 19.568 12.3282 19.814 12.0412C20.0611 11.7529 20.0277 11.3189 19.7394 11.0718ZM16.8857 14.3438H12.0732V10.4367L14.4795 8.37423L16.8857 10.4367V14.3438Z" fill="currentColor"/>
</svg>
