<svg width="100%" height="100%" viewBox="0 0 28 28" fill="none" xmlns="http://www.w3.org/2000/svg">
<g clip-path="url(#clip0)">
<path d="M22.0727 20.4275L20.7036 7.76913C20.6699 7.45801 20.4072 7.22195 20.094 7.22195H17.8315V6.8118C17.8316 4.71005 16.1216 3 14.0197 3C11.9179 3 10.2079 4.71005 10.2079 6.8118V7.22195H7.94515C7.63204 7.22195 7.36928 7.45786 7.33556 7.76913L5.96654 20.4275C5.89574 21.0823 6.10738 21.7387 6.54729 22.2288C6.9872 22.7189 7.61724 23 8.27581 23H19.7632C20.4218 23 21.0518 22.7189 21.4919 22.2288C21.9318 21.7387 22.1435 21.0821 22.0727 20.4275ZM11.4341 6.8118C11.4341 5.38617 12.594 4.2262 14.0197 4.2262C15.4455 4.2262 16.6053 5.38617 16.6053 6.8118V7.22195H11.4341V6.8118ZM20.5793 21.4097C20.3685 21.6444 20.0788 21.7738 19.7634 21.7738H8.27581C7.96041 21.7738 7.67065 21.6444 7.45977 21.4097C7.2492 21.1749 7.15169 20.8729 7.18572 20.5594L8.49554 8.4483H10.2079V10.0107C10.2079 10.3492 10.4824 10.6237 10.821 10.6237C11.1596 10.6237 11.4341 10.3492 11.4341 10.0107V8.4483H16.6053V10.0107C16.6053 10.3492 16.8798 10.6237 17.2184 10.6237C17.5571 10.6237 17.8316 10.3492 17.8316 10.0107V8.4483H19.5437L20.8535 20.5594C20.8873 20.8729 20.79 21.1749 20.5793 21.4097Z" fill="currentColor"/>
<path d="M14.013 14.1284H14.916C15.2546 14.1284 15.5291 13.8539 15.5291 13.5153C15.5291 13.1767 15.2546 12.9022 14.916 12.9022H14.6263V12.6652C14.6263 12.3266 14.3516 12.0521 14.013 12.0521C13.6744 12.0521 13.3999 12.3266 13.3999 12.6652V13.0394C12.8686 13.2885 12.4971 13.8507 12.4971 14.503C12.4971 15.3859 13.1772 16.1039 14.013 16.1039C14.1702 16.1039 14.3029 16.2755 14.3029 16.4785C14.3029 16.6818 14.1702 16.8533 14.013 16.8533H13.1102C12.7716 16.8533 12.4971 17.1278 12.4971 17.4664C12.4971 17.805 12.7716 18.0795 13.1102 18.0795H13.3999V18.3163C13.3999 18.6551 13.6744 18.9296 14.013 18.9296C14.3516 18.9296 14.6263 18.6551 14.6263 18.3163V17.9423C15.1574 17.6931 15.5291 17.131 15.5291 16.4785C15.5291 15.5958 14.8491 14.8777 14.013 14.8777C13.856 14.8777 13.7233 14.7061 13.7233 14.503C13.7233 14.2999 13.856 14.1284 14.013 14.1284Z" fill="currentColor"/>
</g>
<defs>
<clipPath id="clip0">
<rect width="20" height="20" fill="white" transform="translate(4 3)"/>
</clipPath>
</defs>
</svg>
