<svg width="100%" height="100%" viewBox="0 0 28 28" fill="none" xmlns="http://www.w3.org/2000/svg">
<path d="M18.8994 15.1966C18.6015 15.1966 18.3478 14.9679 18.321 14.6646C18.2926 14.3437 18.5291 14.0605 18.8488 14.0322H18.8494C18.8883 13.7126 19.176 13.4871 19.4972 13.5244C19.816 13.5638 20.0423 13.8549 20.0031 14.1746C19.9366 14.7174 19.494 15.1461 18.9511 15.1942C18.9337 15.196 18.9162 15.1966 18.8994 15.1966Z" fill="currentColor"/>
<path d="M9.45986 16.0255C9.1617 16.0255 8.90799 15.7966 8.88155 15.493C8.85336 15.1718 9.09021 14.8892 9.40988 14.8609L18.8498 14.032C19.1712 14.0023 19.4514 14.2414 19.4793 14.5623C19.5074 14.8834 19.2706 15.166 18.9509 15.1943L9.51101 16.0232C9.49416 16.0247 9.47672 16.0255 9.45986 16.0255Z" fill="currentColor"/>
<path d="M19.4266 14.6869C19.4028 14.6869 19.379 14.6854 19.3549 14.6825C19.0361 14.6431 18.8097 14.352 18.8489 14.0324L19.5542 8.28565C19.5937 7.96598 19.8858 7.73877 20.202 7.77815C20.5208 7.81752 20.7472 8.10861 20.7079 8.42827L20.0026 14.175C19.9666 14.4704 19.7158 14.6869 19.4266 14.6869Z" fill="currentColor"/>
<path d="M7.91067 10.0131C7.6125 10.0131 7.3588 9.78411 7.33235 9.48048C7.30417 9.15936 7.54101 8.87673 7.86069 8.84844L20.0803 7.7754C20.4011 7.74594 20.6819 7.98482 20.7098 8.30565C20.7379 8.62677 20.5011 8.9094 20.1814 8.93769L7.96182 10.0107C7.94467 10.0122 7.92753 10.0131 7.91067 10.0131Z" fill="currentColor"/>
<path d="M7.75864 8.87328C7.47209 8.87328 7.22246 8.66037 7.18352 8.36724V8.36666C6.86268 8.36666 6.60229 8.10562 6.60229 7.78332C6.60229 7.46103 6.86268 7.19999 7.18352 7.19999C7.76358 7.19999 8.25878 7.63516 8.33579 8.21237C8.37822 8.53174 8.15474 8.82516 7.83652 8.86803C7.81007 8.87153 7.7845 8.87328 7.75864 8.87328Z" fill="currentColor"/>
<path d="M7.18351 8.36697H6.1812C5.86036 8.36697 5.59998 8.10563 5.59998 7.78364C5.59998 7.46164 5.86036 7.2003 6.1812 7.2003H7.18351C7.50435 7.2003 7.76474 7.46164 7.76474 7.78364C7.76474 8.10563 7.50464 8.36697 7.18351 8.36697Z" fill="currentColor"/>
<path d="M8.5715 14.9852C8.28495 14.9852 8.03503 14.7723 7.99638 14.4788L7.18412 8.36695C7.14169 8.04757 7.36517 7.75415 7.68339 7.71157C7.99958 7.6684 8.29425 7.89328 8.33639 8.21265L9.14836 14.3248C9.19079 14.6442 8.96731 14.9376 8.64909 14.9802C8.62293 14.9837 8.59736 14.9852 8.5715 14.9852Z" fill="currentColor"/>
<path d="M11.185 20.6169C10.0825 20.6169 9.15076 19.6818 9.15076 18.5753C9.15076 17.4687 10.0825 16.5336 11.185 16.5336C12.2876 16.5336 13.2193 17.4687 13.2193 18.5753C13.2193 19.6818 12.2876 20.6169 11.185 20.6169ZM11.185 17.7003C10.7206 17.7003 10.3132 18.1092 10.3132 18.5753C10.3132 19.0413 10.7206 19.4503 11.185 19.4503C11.6494 19.4503 12.0569 19.0413 12.0569 18.5753C12.0569 18.1092 11.6491 17.7003 11.185 17.7003Z" fill="currentColor"/>
<path d="M16.7069 20.6169C15.6043 20.6169 14.6726 19.6818 14.6726 18.5753C14.6726 17.4687 15.6043 16.5336 16.7069 16.5336C17.8095 16.5336 18.7412 17.4687 18.7412 18.5753C18.7412 19.6818 17.8095 20.6169 16.7069 20.6169ZM16.7069 17.7003C16.2425 17.7003 15.8351 18.1092 15.8351 18.5753C15.8351 19.0413 16.2425 19.4503 16.7069 19.4503C17.1713 19.4503 17.5787 19.0413 17.5787 18.5753C17.5787 18.1092 17.171 17.7003 16.7069 17.7003Z" fill="currentColor"/>
<path d="M9.72178 15.9978C8.85547 15.9978 8.11266 15.3567 7.99613 14.4788C7.9537 14.1594 8.17747 13.866 8.49569 13.8237C8.81158 13.7803 9.10626 14.0057 9.1484 14.3251C9.18967 14.6351 9.46982 14.8536 9.77496 14.8291C10.1019 14.8011 10.3768 15.0388 10.4047 15.3594C10.4329 15.6802 10.1961 15.9631 9.87668 15.9914C9.82466 15.9955 9.77264 15.9978 9.72178 15.9978Z" fill="currentColor"/>
</svg>
