<svg width="100%" height="100%" viewBox="0 0 28 28" fill="none" xmlns="http://www.w3.org/2000/svg">
<path d="M22.5802 16.3302C22.1192 16.3302 21.7266 15.9776 21.6852 15.5099C21.6412 15.0152 22.0072 14.5785 22.5019 14.5349H22.5028C22.5631 14.042 23.0083 13.6943 23.5053 13.7519C23.9986 13.8126 24.349 14.2614 24.2883 14.7543C24.1853 15.5913 23.5003 16.2524 22.6602 16.3266C22.6333 16.3293 22.6063 16.3302 22.5802 16.3302Z" fill="currentColor"/>
<path d="M7.97075 17.6083C7.50933 17.6083 7.11671 17.2553 7.07579 16.7871C7.03217 16.2919 7.39869 15.8562 7.89339 15.8125L22.5019 14.5344C22.9993 14.4885 23.4328 14.8573 23.476 15.352C23.5196 15.8472 23.1531 16.283 22.6584 16.3266L8.0499 17.6047C8.02381 17.6069 7.99683 17.6083 7.97075 17.6083Z" fill="currentColor"/>
<path d="M23.397 15.5441C23.3601 15.5441 23.3232 15.5418 23.2859 15.5373C22.7926 15.4766 22.4422 15.0278 22.5029 14.5349L23.5944 5.67388C23.6556 5.18098 24.1076 4.83065 24.5969 4.89136C25.0902 4.95207 25.4406 5.4009 25.3798 5.8938L24.2884 14.7548C24.2326 15.2104 23.8445 15.5441 23.397 15.5441Z" fill="currentColor"/>
<path d="M5.57622 8.33763C5.11479 8.33763 4.72218 7.98459 4.68126 7.51642C4.63763 7.02127 5.00416 6.58549 5.49886 6.54186L24.409 4.88732C24.9055 4.8419 25.3399 5.21022 25.3831 5.70492C25.4267 6.20007 25.0602 6.63586 24.5655 6.67948L5.65537 8.33403C5.62883 8.33628 5.6023 8.33763 5.57622 8.33763Z" fill="currentColor"/>
<path d="M5.3422 6.58009C4.89877 6.58009 4.51245 6.25178 4.45219 5.79981V5.79891C3.95569 5.79891 3.55273 5.3964 3.55273 4.89945C3.55273 4.40251 3.95569 4 4.45219 4C5.34985 4 6.11618 4.67099 6.23536 5.561C6.30102 6.05345 5.95518 6.50588 5.46273 6.57199C5.4218 6.57739 5.38223 6.58009 5.3422 6.58009Z" fill="currentColor"/>
<path d="M4.45056 5.79937H2.89945C2.40296 5.79937 2 5.39641 2 4.89991C2 4.40341 2.40296 4.00046 2.89945 4.00046H4.45056C4.94706 4.00046 5.35002 4.40341 5.35002 4.89991C5.35002 5.39641 4.94751 5.79937 4.45056 5.79937Z" fill="currentColor"/>
<path d="M6.59835 16.0041C6.15492 16.0041 5.76816 15.6758 5.70834 15.2234L4.45136 5.79936C4.3857 5.30691 4.73154 4.85448 5.22399 4.78882C5.71329 4.72226 6.16931 5.069 6.23452 5.56146L7.49106 14.986C7.55672 15.4784 7.21088 15.9308 6.71843 15.9965C6.67795 16.0019 6.63838 16.0041 6.59835 16.0041Z" fill="currentColor"/>
<path d="M10.6422 24.6879C8.93597 24.6879 7.49414 23.2461 7.49414 21.5398C7.49414 19.8335 8.93597 18.3917 10.6422 18.3917C12.3485 18.3917 13.7903 19.8335 13.7903 21.5398C13.7903 23.2461 12.3485 24.6879 10.6422 24.6879ZM10.6422 20.1906C9.92357 20.1906 9.29305 20.8212 9.29305 21.5398C9.29305 22.2585 9.92357 22.889 10.6422 22.889C11.3609 22.889 11.9914 22.2585 11.9914 21.5398C11.9914 20.8212 11.3604 20.1906 10.6422 20.1906Z" fill="currentColor"/>
<path d="M19.1872 24.6879C17.4809 24.6879 16.0391 23.2461 16.0391 21.5398C16.0391 19.8335 17.4809 18.3917 19.1872 18.3917C20.8934 18.3917 22.3352 19.8335 22.3352 21.5398C22.3352 23.2461 20.8934 24.6879 19.1872 24.6879ZM19.1872 20.1906C18.4685 20.1906 17.838 20.8212 17.838 21.5398C17.838 22.2585 18.4685 22.889 19.1872 22.889C19.9058 22.889 20.5363 22.2585 20.5363 21.5398C20.5363 20.8212 19.9054 20.1906 19.1872 20.1906Z" fill="currentColor"/>
<path d="M8.3777 17.5656C7.03705 17.5656 5.88755 16.5771 5.70721 15.2234C5.64155 14.731 5.98784 14.2785 6.48029 14.2133C6.96915 14.1463 7.42517 14.4939 7.49038 14.9864C7.55424 15.4645 7.98778 15.8013 8.46 15.7635C8.96594 15.7204 9.39138 16.0869 9.43456 16.5811C9.47818 17.0758 9.11165 17.5121 8.6174 17.5557C8.5369 17.562 8.4564 17.5656 8.3777 17.5656Z" fill="currentColor"/>
</svg>
