<svg width="100%" height="100%" viewBox="0 0 28 28" fill="none" xmlns="http://www.w3.org/2000/svg">
<path d="M19.6159 15.7059C18.0868 15.7059 16.8428 16.9499 16.8428 18.4791C16.8428 20.0082 18.0868 21.2522 19.6159 21.2522C21.1453 21.2522 22.389 20.0082 22.389 18.4791C22.389 16.9499 21.1451 15.7059 19.6159 15.7059ZM19.6159 19.8656C18.8512 19.8656 18.2293 19.2437 18.2293 18.4791C18.2293 17.7144 18.8512 17.0925 19.6159 17.0925C20.3806 17.0925 21.0025 17.7144 21.0025 18.4791C21.0025 19.2438 20.3806 19.8656 19.6159 19.8656Z" fill="currentColor"/>
<path d="M10.1413 15.7059C8.61216 15.7059 7.36816 16.9499 7.36816 18.4791C7.36816 20.0082 8.61216 21.2522 10.1413 21.2522C11.6704 21.2522 12.9144 20.0082 12.9144 18.4791C12.9144 16.9499 11.6704 15.7059 10.1413 15.7059ZM10.1413 19.8656C9.37662 19.8656 8.75473 19.2437 8.75473 18.4791C8.75473 17.7144 9.37662 17.0925 10.1413 17.0925C10.9058 17.0925 11.5279 17.7144 11.5279 18.4791C11.5279 19.2438 10.906 19.8656 10.1413 19.8656Z" fill="currentColor"/>
<path d="M21.4828 7.76835C21.3649 7.53425 21.1253 7.38657 20.8632 7.38657H17.2119V8.77314H20.4357L22.3235 12.5279L23.5626 11.9049L21.4828 7.76835Z" fill="currentColor"/>
<path d="M17.5359 17.8089H12.29V19.1955H17.5359V17.8089Z" fill="currentColor"/>
<path d="M8.06048 17.8089H5.65713C5.27419 17.8089 4.96387 18.1193 4.96387 18.5022C4.96387 18.8851 5.27423 19.1955 5.65713 19.1955H8.06052C8.44346 19.1955 8.75378 18.8851 8.75378 18.5022C8.75378 18.1193 8.44342 17.8089 8.06048 17.8089Z" fill="currentColor"/>
<path d="M24.8541 13.5706L23.4904 11.8143C23.3594 11.6451 23.1572 11.5462 22.943 11.5462H17.9051V6.69326C17.9051 6.31032 17.5948 6 17.2119 6H5.65713C5.27419 6 4.96387 6.31037 4.96387 6.69326C4.96387 7.07616 5.27423 7.38653 5.65713 7.38653H16.5185V12.2395C16.5185 12.6224 16.8289 12.9328 17.2118 12.9328H22.6035L23.6131 14.2333V17.8088H21.695C21.3121 17.8088 21.0018 18.1192 21.0018 18.5021C21.0018 18.885 21.3121 19.1954 21.695 19.1954H24.3064C24.6893 19.1954 24.9997 18.885 24.9997 18.5021V13.9959C24.9997 13.8419 24.9484 13.6922 24.8541 13.5706Z" fill="currentColor"/>
<path d="M8.01422 14.2963H4.8251C4.44216 14.2963 4.13184 14.6067 4.13184 14.9896C4.13184 15.3725 4.4422 15.6828 4.8251 15.6828H8.01418C8.39712 15.6828 8.70744 15.3725 8.70744 14.9896C8.70748 14.6067 8.39712 14.2963 8.01422 14.2963Z" fill="currentColor"/>
<path d="M9.60929 11.5693H3.69326C3.31037 11.5693 3 11.8797 3 12.2626C3 12.6456 3.31037 12.9559 3.69326 12.9559H9.60929C9.99223 12.9559 10.3025 12.6455 10.3025 12.2626C10.3025 11.8797 9.99223 11.5693 9.60929 11.5693Z" fill="currentColor"/>
<path d="M10.7411 8.84244H4.8251C4.44216 8.84244 4.13184 9.1528 4.13184 9.5357C4.13184 9.91864 4.4422 10.229 4.8251 10.229H10.7411C11.1241 10.229 11.4344 9.9186 11.4344 9.5357C11.4344 9.1528 11.1241 8.84244 10.7411 8.84244Z" fill="currentColor"/>
</svg>
