<svg width="100%" height="100%" viewBox="0 0 28 28" fill="none" xmlns="http://www.w3.org/2000/svg">
<path d="M20.609 16.4545C18.8044 16.4545 17.3363 17.9226 17.3363 19.7272C17.3363 21.5319 18.8044 23 20.609 23C22.414 23 23.8818 21.5319 23.8818 19.7272C23.8818 17.9226 22.4137 16.4545 20.609 16.4545ZM20.609 21.3636C19.7066 21.3636 18.9727 20.6297 18.9727 19.7272C18.9727 18.8248 19.7066 18.0909 20.609 18.0909C21.5115 18.0909 22.2454 18.8248 22.2454 19.7272C22.2454 20.6297 21.5115 21.3636 20.609 21.3636Z" fill="currentColor"/>
<path d="M9.42743 16.4545C7.6228 16.4545 6.15469 17.9226 6.15469 19.7272C6.15469 21.5319 7.6228 23 9.42743 23C11.2321 23 12.7002 21.5319 12.7002 19.7272C12.7002 17.9226 11.2321 16.4545 9.42743 16.4545ZM9.42743 21.3636C8.52499 21.3636 7.79106 20.6297 7.79106 19.7272C7.79106 18.8248 8.52499 18.0909 9.42743 18.0909C10.3296 18.0909 11.0638 18.8248 11.0638 19.7272C11.0638 20.6297 10.3299 21.3636 9.42743 21.3636Z" fill="currentColor"/>
<path d="M22.8127 7.08691C22.6736 6.81064 22.3908 6.63635 22.0815 6.63635H17.7724V8.27272H21.5769L23.8048 12.704L25.2672 11.9687L22.8127 7.08691Z" fill="currentColor"/>
<path d="M18.1545 18.9364H11.9635V20.5728H18.1545V18.9364Z" fill="currentColor"/>
<path d="M6.97194 18.9364H4.13562C3.68369 18.9364 3.31746 19.3027 3.31746 19.7546C3.31746 20.2065 3.68374 20.5727 4.13562 20.5727H6.972C7.42393 20.5727 7.79016 20.2064 7.79016 19.7546C7.79016 19.3026 7.42387 18.9364 6.97194 18.9364Z" fill="currentColor"/>
<path d="M26.7911 13.9345L25.1818 11.8618C25.0271 11.6622 24.7885 11.5454 24.5357 11.5454H18.5902V5.81816C18.5902 5.36623 18.2239 5 17.772 5H4.13562C3.68369 5 3.31746 5.36628 3.31746 5.81816C3.31746 6.27004 3.68374 6.63632 4.13562 6.63632H16.9538V12.3636C16.9538 12.8155 17.3201 13.1817 17.772 13.1817H24.135L25.3265 14.7166V18.9363H23.0629C22.6109 18.9363 22.2447 19.3026 22.2447 19.7545C22.2447 20.2064 22.611 20.5726 23.0629 20.5726H26.1447C26.5966 20.5726 26.9628 20.2063 26.9629 19.7545V14.4364C26.9629 14.2547 26.9023 14.078 26.7911 13.9345Z" fill="currentColor"/>
<path d="M6.91804 14.791H3.15437C2.70244 14.791 2.33621 15.1572 2.33621 15.6091C2.33621 16.061 2.70249 16.4273 3.15437 16.4273H6.91799C7.36992 16.4273 7.73615 16.061 7.73615 15.6091C7.7362 15.1572 7.36992 14.791 6.91804 14.791Z" fill="currentColor"/>
<path d="M8.8 11.5727H1.81816C1.36628 11.5727 1 11.939 1 12.3909C1 12.8429 1.36628 13.2091 1.81816 13.2091H8.8C9.25193 13.2091 9.61816 12.8428 9.61816 12.3909C9.61816 11.9391 9.25193 11.5727 8.8 11.5727Z" fill="currentColor"/>
<path d="M10.1362 8.35449H3.15437C2.70244 8.35449 2.33621 8.72077 2.33621 9.17265C2.33621 9.62458 2.70249 9.99081 3.15437 9.99081H10.1362C10.5881 9.99081 10.9544 9.62453 10.9544 9.17265C10.9544 8.72077 10.5881 8.35449 10.1362 8.35449Z" fill="currentColor"/>
</svg>
