<svg width="100%" height="100%" viewBox="0 0 28 28" fill="none" xmlns="http://www.w3.org/2000/svg">
<path d="M22.5427 24.9992H17.5562C16.1996 24.9992 15.0996 23.8992 15.0996 22.5426V15.8329C15.0996 15.4295 15.4296 15.0995 15.8329 15.0995H22.5427C23.8993 15.0995 24.9993 16.1995 24.9993 17.5561V22.5426C24.9993 23.8992 23.8993 24.9992 22.5427 24.9992ZM16.5662 16.5662V22.5426C16.5662 23.0926 17.0062 23.5326 17.5562 23.5326H22.5427C23.0927 23.5326 23.5326 23.0926 23.5326 22.5426V17.5561C23.5326 17.0061 23.0927 16.5662 22.5427 16.5662H16.5662Z" fill="currentColor"/>
<path d="M10.4431 24.9992H5.45658C4.09996 24.9992 3 23.8992 3 22.5426V17.5561C3 16.1995 4.09996 15.0995 5.45658 15.0995H12.1663C12.5697 15.0995 12.8996 15.4295 12.8996 15.8329V22.5426C12.8996 23.8992 11.7997 24.9992 10.4431 24.9992ZM5.45658 16.5662C4.9066 16.5662 4.46661 17.0061 4.46661 17.5561V22.5426C4.46661 23.0926 4.9066 23.5326 5.45658 23.5326H10.4431C10.993 23.5326 11.433 23.0926 11.433 22.5426V16.5662H5.45658Z" fill="currentColor"/>
<path d="M22.5427 12.8996H15.8329C15.4296 12.8996 15.0996 12.5697 15.0996 12.1663V5.45658C15.0996 4.09996 16.1996 3 17.5562 3H22.5427C23.8993 3 24.9993 4.09996 24.9993 5.45658V10.4431C24.9993 11.7997 23.8993 12.8996 22.5427 12.8996ZM16.5662 11.433H22.5427C23.0927 11.433 23.5326 10.993 23.5326 10.4431V5.45658C23.5326 4.9066 23.0927 4.46661 22.5427 4.46661H17.5562C17.0062 4.46661 16.5662 4.9066 16.5662 5.45658V11.433Z" fill="currentColor"/>
<path d="M12.1663 12.8996H5.45658C4.09996 12.8996 3 11.7997 3 10.4431V5.45658C3 4.09996 4.09996 3 5.45658 3H10.4431C11.7997 3 12.8996 4.09996 12.8996 5.45658V12.1663C12.8996 12.5697 12.5697 12.8996 12.1663 12.8996ZM5.45658 4.46661C4.9066 4.46661 4.46661 4.9066 4.46661 5.45658V10.4431C4.46661 10.993 4.9066 11.433 5.45658 11.433H11.433V5.45658C11.433 4.9066 10.993 4.46661 10.4431 4.46661H5.45658Z" fill="currentColor"/>
</svg>
