<svg width="28" height="28" viewBox="0 0 28 28" fill="none" xmlns="http://www.w3.org/2000/svg">
<path d="M24.8013 9.98327L14.1914 4.01013C14.0726 3.94324 13.9275 3.94324 13.8086 4.01013L3.19872 9.98327C3.07597 10.0524 2.99996 10.1824 3 10.3233V23.9234C3 23.9883 3.05258 24.0409 3.11741 24.0409H5.45848C5.52331 24.0409 5.57589 23.9883 5.57589 23.9234V12.3813H22.4241V23.9235C22.4241 23.9883 22.4766 24.0409 22.5415 24.0409H24.8825C24.9474 24.0409 25 23.9883 25 23.9235V10.3232C25 10.1823 24.9241 10.0524 24.8013 9.98327Z" fill="currentColor"/>
<path d="M20.5979 20.3965H17.7334C17.5179 20.3965 17.3433 20.5711 17.3433 20.7866V23.6512C17.3433 23.8667 17.5179 24.0413 17.7334 24.0413H20.5979C20.8134 24.0413 20.9881 23.8667 20.9881 23.6512V20.7866C20.9881 20.5711 20.8134 20.3965 20.5979 20.3965Z" fill="currentColor"/>
<path d="M15.4321 20.3965H12.5675C12.352 20.3965 12.1774 20.5711 12.1774 20.7866V23.6512C12.1774 23.8667 12.352 24.0413 12.5675 24.0413H15.4321C15.6475 24.0413 15.8221 23.8667 15.8221 23.6512V20.7866C15.8222 20.5711 15.6475 20.3965 15.4321 20.3965Z" fill="currentColor"/>
<path d="M10.2663 20.3965H7.40175C7.18633 20.3965 7.01168 20.5711 7.01168 20.7866V23.6512C7.01168 23.8667 7.18638 24.0413 7.40175 24.0413H10.2663C10.4818 24.0413 10.6564 23.8667 10.6564 23.6512V20.7866C10.6564 20.5711 10.4817 20.3965 10.2663 20.3965Z" fill="currentColor"/>
<path d="M20.5979 15.126H17.7334C17.5179 15.126 17.3433 15.3006 17.3433 15.516V18.3807C17.3433 18.5961 17.5179 18.7708 17.7334 18.7708H20.5979C20.8134 18.7708 20.9881 18.5961 20.9881 18.3807V15.516C20.9881 15.3006 20.8134 15.126 20.5979 15.126Z" fill="currentColor"/>
<path d="M15.4321 15.126H12.5675C12.352 15.126 12.1774 15.3006 12.1774 15.516V18.3807C12.1774 18.5961 12.352 18.7708 12.5675 18.7708H15.4321C15.6475 18.7708 15.8221 18.5961 15.8221 18.3807V15.516C15.8222 15.3006 15.6475 15.126 15.4321 15.126Z" fill="currentColor"/>
<path d="M10.2663 15.126H7.40175C7.18633 15.126 7.01168 15.3006 7.01168 15.516V18.3807C7.01168 18.5961 7.18638 18.7708 7.40175 18.7708H10.2663C10.4818 18.7708 10.6564 18.5961 10.6564 18.3807V15.516C10.6564 15.3006 10.4817 15.126 10.2663 15.126Z" fill="currentColor"/>
</svg>
