<svg width="28" height="28" viewBox="0 0 28 28" fill="none" xmlns="http://www.w3.org/2000/svg">
<path d="M16.5012 14.75C16.5012 15.2321 16.3615 15.7034 16.0997 16.1042C15.8379 16.5051 15.4658 16.8175 15.0304 17.002C14.5951 17.1865 14.116 17.2347 13.6538 17.1407C13.1917 17.0466 12.7671 16.8145 12.4339 16.4736C12.1007 16.1327 11.8738 15.6984 11.7819 15.2256C11.6899 14.7527 11.7371 14.2626 11.9175 13.8172C12.0978 13.3718 12.4032 12.9911 12.795 12.7233C13.1868 12.4555 13.6474 12.3125 14.1187 12.3125C14.7506 12.3125 15.3566 12.5693 15.8034 13.0264C16.2502 13.4836 16.5012 14.1036 16.5012 14.75ZM25.2373 9.87502V20.4375C25.2373 21.084 24.9863 21.704 24.5395 22.1611C24.0927 22.6182 23.4867 22.875 22.8548 22.875H5.38257C4.75067 22.875 4.14466 22.6182 3.69784 22.1611C3.25102 21.704 3 21.084 3 20.4375V9.87502C3 9.22855 3.25102 8.60857 3.69784 8.15145C4.14466 7.69433 4.75067 7.43752 5.38257 7.43752H9.57589L9.83004 6.62502C9.99479 6.14827 10.3004 5.73574 10.7045 5.44459C11.1086 5.15343 11.5913 4.99807 12.0855 5.00002H16.1518C16.6509 5.00097 17.1371 5.16226 17.5418 5.46112C17.9465 5.75997 18.2492 6.1813 18.4073 6.66564L18.6614 7.47814H22.8548C23.4798 7.47806 24.0799 7.72928 24.5256 8.17765C24.9713 8.62602 25.2269 9.23562 25.2373 9.87502ZM18.0896 14.75C18.0896 13.9465 17.8567 13.1611 17.4204 12.493C16.9841 11.8249 16.3639 11.3042 15.6383 10.9968C14.9127 10.6893 14.1143 10.6088 13.344 10.7656C12.5737 10.9223 11.8661 11.3092 11.3108 11.8774C10.7554 12.4455 10.3772 13.1694 10.224 13.9575C10.0708 14.7455 10.1494 15.5623 10.45 16.3047C10.7505 17.047 11.2595 17.6815 11.9125 18.1279C12.5655 18.5743 13.3333 18.8125 14.1187 18.8125C15.1718 18.8125 16.1818 18.3845 16.9265 17.6226C17.6712 16.8608 18.0896 15.8275 18.0896 14.75Z" fill="currentColor"/>
</svg>
