<svg width="28" height="28" viewBox="0 0 28 28" fill="none" xmlns="http://www.w3.org/2000/svg">
<path d="M17.5284 5H3.73221C3.32551 5 3.0061 5.32678 3.0061 5.74286V14.6572C3.0061 15.0657 3.32551 15.4 3.73221 15.4H17.5284C17.9278 15.4 18.2545 15.0657 18.2545 14.6572V5.74286C18.2545 5.32678 17.9279 5 17.5284 5Z" fill="currentColor"/>
<path d="M3 19.1139C3 19.5224 3.32675 19.8568 3.72612 19.8568H4.51032C4.81529 18.3042 6.06421 17.0859 7.6181 16.8854H3.73338C3.4719 16.8854 3.23243 16.8407 3 16.7516V19.1139Z" fill="currentColor"/>
<path d="M24.0134 19.8574H24.9138C25.3132 19.8574 25.6399 19.5231 25.6399 19.1146V12.6072C25.6399 11.4408 22.8589 8.7146 21.3341 8.7146H19.7076V14.6574C19.7076 15.8831 18.7273 16.886 17.5293 16.886H8.5616C10.1156 17.0866 11.3645 18.3048 11.6694 19.8574H16.8539C17.1879 18.1489 18.662 16.8489 20.4337 16.8489C22.1981 16.8488 23.6794 18.1488 24.0134 19.8574ZM20.8983 10.542C24.6161 10.3562 24.4637 14.2859 24.4637 14.2859H20.8983V10.542Z" fill="currentColor"/>
<path d="M20.4313 22.8241C21.6424 22.8241 22.6241 21.8197 22.6241 20.5807C22.6241 19.3417 21.6424 18.3373 20.4313 18.3373C19.2202 18.3373 18.2384 19.3417 18.2384 20.5807C18.2384 21.8197 19.2202 22.8241 20.4313 22.8241Z" fill="currentColor"/>
<path d="M8.08708 22.8241C9.29817 22.8241 10.28 21.8197 10.28 20.5807C10.28 19.3417 9.29817 18.3373 8.08708 18.3373C6.87599 18.3373 5.8942 19.3417 5.8942 20.5807C5.8942 21.8197 6.87599 22.8241 8.08708 22.8241Z" fill="currentColor"/>
</svg>
