<svg width="28" height="28" viewBox="0 0 28 28" fill="none" xmlns="http://www.w3.org/2000/svg">
<path d="M21.8505 10.752C21.532 6.69988 18.1326 3.5 14 3.5C10.465 3.5 7.4305 5.796 6.45138 9.14463C3.65838 10.1141 1.75 12.7601 1.75 15.75C1.75 19.6096 4.89038 22.75 8.75 22.75H20.125C23.5025 22.75 26.25 20.0025 26.25 16.625C26.25 13.8696 24.4387 11.5045 21.8505 10.752ZM18.3085 13.4601C18.1729 13.7865 17.8535 14 17.5 14H15.75V17.5C15.75 18.466 14.966 19.25 14 19.25C13.034 19.25 12.25 18.466 12.25 17.5V14H10.5C10.1465 14 9.82713 13.7865 9.6915 13.4601C9.55588 13.1329 9.63112 12.7566 9.88138 12.5064L13.3814 9.00638C13.552 8.83575 13.776 8.75 14 8.75C14.224 8.75 14.448 8.83575 14.6186 9.00638L18.1186 12.5064C18.3689 12.7566 18.4441 13.1329 18.3085 13.4601Z" fill="currentColor"/>
</svg>
