<svg width="28" height="28" viewBox="0 0 28 28" fill="none" xmlns="http://www.w3.org/2000/svg">
<path d="M21.8947 22.1818H10.3158V9.45455H21.8947V22.1818ZM21.8947 7.63636H10.3158C9.75744 7.63636 9.22196 7.82792 8.82714 8.1689C8.43233 8.50987 8.21053 8.97233 8.21053 9.45455V22.1818C8.21053 22.664 8.43233 23.1265 8.82714 23.4675C9.22196 23.8084 9.75744 24 10.3158 24H21.8947C22.4531 24 22.9886 23.8084 23.3834 23.4675C23.7782 23.1265 24 22.664 24 22.1818V9.45455C24 8.97233 23.7782 8.50987 23.3834 8.1689C22.9886 7.82792 22.4531 7.63636 21.8947 7.63636ZM18.7368 4H6.10526C5.54691 4 5.01143 4.19156 4.61662 4.53253C4.2218 4.87351 4 5.33597 4 5.81818V18.5455H6.10526V5.81818H18.7368V4Z" fill="currentColor"/>
</svg>
