<svg width="28" height="28" viewBox="0 0 28 28" fill="none" xmlns="http://www.w3.org/2000/svg">
<path d="M17.1152 16.0737C16.3643 16.0737 15.7533 16.6987 15.7533 17.4669C15.7533 18.2352 16.3643 18.8604 17.1152 18.8604C17.8662 18.8604 18.4769 18.2352 18.4769 17.4669C18.4767 16.6987 17.8661 16.0737 17.1152 16.0737Z" fill="currentColor"/>
<path d="M10.3275 9.13025C9.57643 9.13025 8.96539 9.75537 8.96539 10.5237C8.96558 11.2917 9.57661 11.9167 10.3275 11.9167C11.0784 11.9167 11.689 11.2917 11.689 10.5237C11.689 9.75537 11.0784 9.13025 10.3275 9.13025Z" fill="currentColor"/>
<path d="M13.7296 2C7.26163 2 2 7.38294 2 14C2 20.6167 7.26163 26 13.7296 26C20.1968 26 25.4581 20.6167 25.4581 14C25.4581 7.38294 20.1968 2 13.7296 2ZM10.3278 7.62931C11.8875 7.62931 13.1568 8.92756 13.1568 10.5239C13.1568 12.1196 11.8875 13.4182 10.3278 13.4182C8.7676 13.4182 7.49842 12.1196 7.49842 10.5239C7.49842 8.92756 8.76778 7.62931 10.3278 7.62931ZM9.46771 19.421C9.32475 19.5676 9.13653 19.6411 8.94904 19.6411C8.76137 19.6411 8.57351 19.5676 8.43019 19.421C8.14373 19.1279 8.14373 18.6524 8.43019 18.3597L17.9903 8.57881C18.2766 8.28575 18.7412 8.28575 19.0279 8.57881C19.3143 8.87188 19.3143 9.34738 19.0279 9.64025L9.46771 19.421ZM17.1152 20.3615C15.5552 20.3615 14.2858 19.0631 14.2858 17.4669C14.2858 15.8712 15.5552 14.5726 17.1152 14.5726C18.6751 14.5726 19.9442 15.8712 19.9442 17.4669C19.9441 19.0631 18.6749 20.3615 17.1152 20.3615Z" fill="currentColor"/>
</svg>
