<svg width="28" height="28" viewBox="0 0 28 28" fill="none" xmlns="http://www.w3.org/2000/svg">
<path d="M19.5887 5.86136C19.9268 5.5233 20.3853 5.33337 20.8634 5.33337C21.3415 5.33337 21.8 5.5233 22.138 5.86136C22.4761 6.19942 22.666 6.65793 22.666 7.13603C22.666 7.61412 22.4761 8.07263 22.138 8.4107L14.0651 16.4836L10.666 17.3334L11.5158 13.9343L19.5887 5.86136Z" stroke="currentColor" stroke-width="2" stroke-linecap="round" stroke-linejoin="round"/>
<path d="M13.334 6.66663H7.11176C6.64027 6.66663 6.18808 6.85393 5.85468 7.18733C5.52129 7.52072 5.33398 7.97291 5.33398 8.4444V20.8889C5.33398 21.3603 5.52129 21.8125 5.85468 22.1459C6.18808 22.4793 6.64027 22.6666 7.11176 22.6666H19.5562C20.0277 22.6666 20.4799 22.4793 20.8133 22.1459C21.1467 21.8125 21.334 21.3603 21.334 20.8889V14.6666" stroke="currentColor" stroke-width="2" stroke-linecap="round" stroke-linejoin="round"/>
</svg>
