<svg width="100%" height="100%" viewBox="0 0 28 28" fill="none" xmlns="http://www.w3.org/2000/svg">
<path d="M23.5422 14.2923C23.5994 14.1505 23.6143 13.9951 23.585 13.845C23.5557 13.6949 23.4835 13.5566 23.3772 13.4467L21.1772 11.2467C21.0322 11.1017 20.8356 11.0203 20.6306 11.0203C20.4256 11.0203 20.229 11.1017 20.0841 11.2467C19.9391 11.3916 19.8577 11.5882 19.8577 11.7932C19.8577 11.9982 19.9391 12.1948 20.0841 12.3398L20.9503 13.206H15.9453C15.7402 13.206 15.5435 13.2875 15.3984 13.4326C15.2534 13.5776 15.1719 13.7743 15.1719 13.9795C15.1719 14.1846 15.2534 14.3813 15.3984 14.5264C15.5435 14.6714 15.7402 14.7529 15.9453 14.7529H20.9572L20.0909 15.6192C20.0169 15.6905 19.9577 15.7757 19.9166 15.8699C19.8754 15.9642 19.8533 16.0656 19.8514 16.1683C19.8495 16.2711 19.8678 16.3733 19.9054 16.469C19.943 16.5647 19.999 16.652 20.0703 16.726C20.1416 16.8001 20.2269 16.8593 20.3211 16.9004C20.4153 16.9415 20.5167 16.9637 20.6195 16.9656C20.7223 16.9675 20.8244 16.9492 20.9201 16.9116C21.0158 16.874 21.1032 16.818 21.1772 16.7467L23.3635 14.5604C23.4413 14.4846 23.5022 14.3933 23.5422 14.2923Z" fill="currentColor"/>
<path d="M18.1519 17.0423C17.9477 17.0423 17.7518 17.1234 17.6074 17.2678C17.463 17.4122 17.3819 17.608 17.3819 17.8123V20.9541C17.3801 21.1578 17.2984 21.3526 17.1544 21.4966C17.0103 21.6406 16.8155 21.7223 16.6119 21.7241H13.5181V6.26227H16.6119C16.8155 6.26406 17.0103 6.34576 17.1544 6.48978C17.2984 6.63379 17.3801 6.8286 17.3819 7.03227V10.0779C17.3819 10.283 17.4634 10.4797 17.6084 10.6248C17.7535 10.7698 17.9502 10.8513 18.1553 10.8513C18.3604 10.8513 18.5572 10.7698 18.7022 10.6248C18.8473 10.4797 18.9288 10.283 18.9288 10.0779V7.03914C18.9269 6.42523 18.6823 5.83697 18.2482 5.40287C17.814 4.96876 17.2258 4.72408 16.6119 4.72227H13.4288C13.3483 4.41629 13.2058 4.13012 13.0101 3.88148C12.8145 3.63285 12.5698 3.42706 12.2913 3.27687C12.0129 3.12668 11.7065 3.03529 11.3913 3.00837C11.0761 2.98146 10.7586 3.01959 10.4588 3.12039L6.58813 4.40602C6.12575 4.55923 5.72342 4.85427 5.43832 5.24922C5.15322 5.64416 4.99985 6.11892 5 6.60602V21.3873C4.99985 21.8744 5.15322 22.3491 5.43832 22.7441C5.72342 23.139 6.12575 23.434 6.58813 23.5873L10.4519 24.8798C10.6911 24.9608 10.9418 25.0026 11.1944 25.0035C11.7037 25.0007 12.1979 24.8302 12.6006 24.5182C13.0033 24.2063 13.2919 23.7704 13.4219 23.2779H16.5981C17.212 23.2761 17.8003 23.0314 18.2344 22.5973C18.6685 22.1632 18.9132 21.5749 18.915 20.961V17.8191C18.9159 17.718 18.8969 17.6177 18.859 17.5239C18.8212 17.4302 18.7652 17.3448 18.6943 17.2726C18.6235 17.2005 18.5391 17.143 18.446 17.1035C18.3529 17.064 18.253 17.0432 18.1519 17.0423ZM11.9644 22.6729C11.9639 22.7953 11.9345 22.9158 11.8786 23.0247C11.8227 23.1336 11.7419 23.2277 11.6427 23.2994C11.5435 23.3711 11.4288 23.4184 11.3078 23.4373C11.1869 23.4563 11.0632 23.4464 10.9469 23.4085L7.08313 22.116C6.92901 22.0642 6.79502 21.9654 6.70005 21.8334C6.60508 21.7014 6.55391 21.543 6.55375 21.3804V6.60602C6.55534 6.4446 6.60717 6.28769 6.70204 6.15709C6.79692 6.02649 6.93011 5.92869 7.08313 5.87727L10.9469 4.58477C11.0632 4.54686 11.1869 4.53698 11.3078 4.55594C11.4288 4.5749 11.5435 4.62216 11.6427 4.69386C11.7419 4.76557 11.8227 4.8597 11.8786 4.96858C11.9345 5.07746 11.9639 5.198 11.9644 5.32039V22.6729Z" fill="currentColor"/>
</svg>
