<svg width="100%" height="100%" viewBox="0 0 28 28" fill="none" xmlns="http://www.w3.org/2000/svg">
<g clip-path="url(#clip1)">
<path fill-rule="evenodd" clip-rule="evenodd" d="M17.6822 9.324L16.3609 9.32487C15.3248 9.32487 15.1239 9.81575 15.1239 10.5359V12.1249H17.5953L17.2733 14.6143H15.1239V21H12.5473V14.6143H10.3926V12.1249H12.5473V10.29C12.5473 8.15938 13.8518 7 15.7565 7C16.6689 7 17.4532 7.06738 17.6822 7.098V9.324ZM14.0369 0C6.28504 0 0 6.26762 0 14C0 21.7315 6.28504 28 14.0369 28C21.7897 28 28.0739 21.7315 28.0739 14C28.0739 6.26762 21.7897 0 14.0369 0Z" fill="white"/>
</g>
<defs>
<clipPath id="clip1">
<rect width="28" height="28" fill="white"/>
</clipPath>
</defs>
</svg>
