<svg width="28" height="28" viewBox="0 0 28 28" fill="none" xmlns="http://www.w3.org/2000/svg">
<path d="M22.6859 5.64994L17.8995 1.14198C17.803 1.05109 17.6721 1 17.5356 1H4.51466C4.23041 1 4 1.21701 4 1.48473V24.8486C4 25.1163 4.23041 25.3333 4.51466 25.3333H22.322C22.6062 25.3333 22.8366 25.1163 22.8366 24.8486V5.99269C22.8366 5.86414 22.7824 5.74082 22.6859 5.64994ZM18.0503 2.655L21.0794 5.50796H18.0503V2.655ZM21.8073 24.3638H5.02932V1.96945H17.021V5.99269C17.021 6.2604 17.2514 6.47742 17.5356 6.47742H21.8073V24.3638Z" fill="black"/>
<path d="M7.62697 9.4343H16.1446C16.4288 9.4343 16.6593 9.21729 16.6593 8.94957C16.6593 8.68186 16.4288 8.46484 16.1446 8.46484H7.62697C7.34272 8.46484 7.1123 8.68186 7.1123 8.94957C7.1123 9.21729 7.34272 9.4343 7.62697 9.4343Z" fill="black"/>
<path d="M19.2069 11.6642H7.62697C7.34272 11.6642 7.1123 11.8812 7.1123 12.1489C7.1123 12.4166 7.34272 12.6336 7.62697 12.6336H19.2069C19.4911 12.6336 19.7215 12.4166 19.7215 12.1489C19.7215 11.8812 19.4911 11.6642 19.2069 11.6642Z" fill="black"/>
<path d="M19.2069 14.8633H7.62697C7.34272 14.8633 7.1123 15.0803 7.1123 15.348C7.1123 15.6157 7.34272 15.8327 7.62697 15.8327H19.2069C19.4911 15.8327 19.7215 15.6157 19.7215 15.348C19.7215 15.0803 19.4911 14.8633 19.2069 14.8633Z" fill="black"/>
<path d="M19.2069 18.0625H7.62697C7.34272 18.0625 7.1123 18.2795 7.1123 18.5472C7.1123 18.8149 7.34272 19.032 7.62697 19.032H19.2069C19.4911 19.032 19.7215 18.8149 19.7215 18.5472C19.7215 18.2795 19.4911 18.0625 19.2069 18.0625Z" fill="black"/>
<path d="M18.0752 9.4343H19.2075C19.4917 9.4343 19.7221 9.21729 19.7221 8.94957C19.7221 8.68186 19.4917 8.46484 19.2075 8.46484H18.0752C17.791 8.46484 17.5605 8.68186 17.5605 8.94957C17.5605 9.21729 17.791 9.4343 18.0752 9.4343Z" fill="black"/>
<path d="M25.0084 22.5001C25.0084 24.7398 23.0732 26.5962 20.6343 26.5962C18.1955 26.5962 16.2603 24.7398 16.2603 22.5001C16.2603 20.2603 18.1955 18.4039 20.6343 18.4039C23.0732 18.4039 25.0084 20.2603 25.0084 22.5001Z" fill="white" stroke="#10223E" stroke-width="0.807692"/>
<path d="M19.5998 24.3333C19.5191 24.3333 19.4474 24.3001 19.4026 24.2502L18.0491 22.8866C17.9505 22.7869 17.9595 22.6289 18.0671 22.5374C18.1746 22.446 18.3449 22.4543 18.4435 22.5541L19.6087 23.7264L22.8354 20.7415C22.943 20.6417 23.1133 20.6417 23.2119 20.7415C23.3105 20.8413 23.3195 20.9993 23.2119 21.0907L19.788 24.2585C19.7432 24.3084 19.6715 24.3333 19.5998 24.3333Z" fill="#10223E"/>
</svg>
