<svg width="100%" height="100%" viewBox="0 0 28 28" fill="none" xmlns="http://www.w3.org/2000/svg">
<path d="M5.23863 7.84468V1.35484C5.23863 0.606855 4.63221 0 3.88377 0C3.13533 0 2.5289 0.606855 2.5289 1.35484V7.84473C1.05617 8.39707 0 9.80781 0 11.4711C0 13.1345 1.05617 14.5452 2.5289 15.0975V26.6452C2.5289 27.3931 3.13533 28 3.88377 28C4.63221 28 5.23863 27.3931 5.23863 26.6452V15.0976C6.71153 14.5452 7.76798 13.1345 7.76798 11.4711C7.76798 9.80775 6.71153 8.39701 5.23863 7.84468V7.84468Z" fill="#10223E"/>
<path d="M15.3551 13.7457V1.35484C15.3551 0.606855 14.7487 0 14.0002 0C13.2518 0 12.6454 0.606855 12.6454 1.35484V13.7457C11.1726 14.298 10.1165 15.7088 10.1165 17.3721C10.1165 19.0354 11.1726 20.4461 12.6454 20.9985V26.6452C12.6454 27.3931 13.2518 28 14.0002 28C14.7487 28 15.3551 27.3931 15.3551 26.6452V20.9985C16.8279 20.4462 17.884 19.0355 17.884 17.3721C17.884 15.7087 16.8279 14.298 15.3551 13.7457Z" fill="#10223E"/>
<path d="M25.4711 7.84473V1.35484C25.4711 0.606855 24.8647 0 24.1162 0C23.3678 0 22.7614 0.606855 22.7614 1.35484V7.84468C21.2885 8.39701 20.232 9.80775 20.232 11.4711C20.232 13.1345 21.2885 14.5452 22.7614 15.0976V26.6452C22.7614 27.3931 23.3678 28 24.1162 28C24.8647 28 25.4711 27.3931 25.4711 26.6452V15.0976C26.9439 14.5453 28 13.1345 28 11.4711C28 9.80775 26.9439 8.39701 25.4711 7.84473V7.84473Z" fill="#10223E"/>
</svg>
