<svg width="100%" height="100%" viewBox="0 0 28 28" fill="none" xmlns="http://www.w3.org/2000/svg">
<path d="M8.36763 10.043V5.87097C8.36763 5.39012 7.97779 5 7.49666 5C7.01553 5 6.62569 5.39012 6.62569 5.87097V10.043C5.67896 10.3981 5 11.305 5 12.3743C5 13.4436 5.67896 14.3505 6.62569 14.7055V22.129C6.62569 22.6099 7.01553 23 7.49666 23C7.97779 23 8.36763 22.6099 8.36763 22.129V14.7056C9.31447 14.3505 9.9936 13.4436 9.9936 12.3743C9.9936 11.305 9.31447 10.3981 8.36763 10.043V10.043Z" fill="black"/>
<path d="M14.8715 13.8365V5.87097C14.8715 5.39012 14.4817 5 14.0006 5C13.5194 5 13.1296 5.39012 13.1296 5.87097V13.8365C12.1829 14.1916 11.5039 15.0985 11.5039 16.1678C11.5039 17.2371 12.1829 18.1439 13.1296 18.499V22.129C13.1296 22.6099 13.5194 23 14.0006 23C14.4817 23 14.8715 22.6099 14.8715 22.129V18.499C15.8183 18.144 16.4972 17.2371 16.4972 16.1678C16.4972 15.0985 15.8183 14.1916 14.8715 13.8365Z" fill="black"/>
<path d="M21.3747 10.043V5.87097C21.3747 5.39012 20.9849 5 20.5038 5C20.0226 5 19.6328 5.39012 19.6328 5.87097V10.043C18.686 10.3981 18.0068 11.305 18.0068 12.3743C18.0068 13.4436 18.686 14.3505 19.6328 14.7056V22.129C19.6328 22.6099 20.0226 23 20.5038 23C20.9849 23 21.3747 22.6099 21.3747 22.129V14.7056C22.3216 14.3505 23.0004 13.4436 23.0004 12.3743C23.0004 11.305 22.3216 10.3981 21.3747 10.043V10.043Z" fill="black"/>
</svg>
