<svg width="100%" height="100%" viewBox="0 0 28 28" fill="none" xmlns="http://www.w3.org/2000/svg">
<path d="M9.61927 10.9223V7.67742C9.61927 7.30343 9.31606 7 8.94185 7C8.56763 7 8.26443 7.30343 8.26443 7.67742V10.9224C7.52808 11.1985 7 11.9039 7 12.7356C7 13.5672 7.52808 14.2726 8.26443 14.5487V20.3226C8.26443 20.6966 8.56763 21 8.94185 21C9.31606 21 9.61927 20.6966 9.61927 20.3226V14.5488C10.3557 14.2726 10.8839 13.5673 10.8839 12.7356C10.8839 11.9039 10.3557 11.1985 9.61927 10.9223Z" fill="currentColor"/>
<path d="M14.6779 13.8728V7.67742C14.6779 7.30343 14.3747 7 14.0004 7C13.6262 7 13.323 7.30343 13.323 7.67742V13.8728C12.5867 14.149 12.0586 14.8544 12.0586 15.6861C12.0586 16.5177 12.5867 17.2231 13.323 17.4992V20.3226C13.323 20.6966 13.6262 21 14.0004 21C14.3747 21 14.6779 20.6966 14.6779 20.3226V17.4993C15.4143 17.2231 15.9423 16.5177 15.9423 15.6861C15.9423 14.8544 15.4143 14.149 14.6779 13.8728Z" fill="currentColor"/>
<path d="M19.7357 10.9224V7.67742C19.7357 7.30343 19.4325 7 19.0583 7C18.6841 7 18.3809 7.30343 18.3809 7.67742V10.9223C17.6444 11.1985 17.1162 11.9039 17.1162 12.7356C17.1162 13.5673 17.6444 14.2726 18.3809 14.5488V20.3226C18.3809 20.6966 18.6841 21 19.0583 21C19.4325 21 19.7357 20.6966 19.7357 20.3226V14.5488C20.4721 14.2726 21.0001 13.5673 21.0001 12.7356C21.0001 11.9039 20.4721 11.1985 19.7357 10.9224Z" fill="currentColor"/>
</svg>
