<svg width="100%" height="100%" viewBox="0 0 28 28" fill="none" xmlns="http://www.w3.org/2000/svg">
<g clip-path="url(#clip2)">
<ellipse cx="14.0369" cy="14" rx="14.0369" ry="14" fill="white"/>
<g clip-path="url(#clip1)">
<path d="M17.547 7H10.5287C8.59882 7 7.01953 8.57513 7.01953 10.4999V17.5001C7.01953 19.4244 8.59882 21 10.5287 21H17.547C19.4768 21 21.0561 19.4244 21.0561 17.5001V10.4999C21.0561 8.57513 19.4768 7 17.547 7ZM19.8864 17.5001C19.8864 18.7863 18.8373 19.8333 17.547 19.8333H10.5287C9.2389 19.8333 8.1893 18.7863 8.1893 17.5001V10.4999C8.1893 9.21335 9.2389 8.1667 10.5287 8.1667H17.547C18.8373 8.1667 19.8864 9.21335 19.8864 10.4999V17.5001Z" fill="currentColor"/>
<path d="M17.8402 11.0835C18.3247 11.0835 18.7175 10.6917 18.7175 10.2085C18.7175 9.72524 18.3247 9.3335 17.8402 9.3335C17.3557 9.3335 16.9629 9.72524 16.9629 10.2085C16.9629 10.6917 17.3557 11.0835 17.8402 11.0835Z" fill="currentColor"/>
<path d="M14.0384 10.5C12.1 10.5 10.5293 12.0667 10.5293 13.9999C10.5293 15.9324 12.1 17.5002 14.0384 17.5002C15.9764 17.5002 17.5476 15.9324 17.5476 13.9999C17.5476 12.0667 15.9764 10.5 14.0384 10.5ZM14.0384 16.3335C12.7465 16.3335 11.6991 15.2888 11.6991 13.9999C11.6991 12.7111 12.7465 11.6667 14.0384 11.6667C15.3304 11.6667 16.3778 12.7111 16.3778 13.9999C16.3778 15.2888 15.3304 16.3335 14.0384 16.3335Z" fill="currentColor"/>
</g>
</g>
<defs>
<clipPath id="clip2">
<rect width="28" height="28" fill="white"/>
</clipPath>
<clipPath id="clip1">
<rect width="14.0369" height="14" fill="white" transform="translate(7.01953 7)"/>
</clipPath>
</defs>
</svg>
