<svg width="100%" height="100%" viewBox="0 0 28 28" fill="none" xmlns="http://www.w3.org/2000/svg">
<path d="M13.7647 3C10.5294 3 7.94118 5.58824 7.94118 8.82353V11.4118C6.84118 11.4118 6 12.2529 6 13.3529V21.7647C6 22.8647 6.84118 23.7059 7.94118 23.7059H19.5882C20.6882 23.7059 21.5294 22.8647 21.5294 21.7647V13.3529C21.5294 12.2529 20.6882 11.4118 19.5882 11.4118V8.82353C19.5882 5.58824 17 3 13.7647 3ZM20.2353 13.3529V21.7647C20.2353 22.1529 19.9765 22.4118 19.5882 22.4118H7.94118C7.55294 22.4118 7.29412 22.1529 7.29412 21.7647V13.3529C7.29412 12.9647 7.55294 12.7059 7.94118 12.7059H8.58824H18.9412H19.5882C19.9765 12.7059 20.2353 12.9647 20.2353 13.3529ZM9.23529 11.4118V8.82353C9.23529 6.3 11.2412 4.29412 13.7647 4.29412C16.2882 4.29412 18.2941 6.3 18.2941 8.82353V11.4118H9.23529Z" fill="currentColor"/>
<path d="M13.7644 14.6473C12.6644 14.6473 11.8232 15.4885 11.8232 16.5885C11.8232 17.4296 12.3409 18.1414 13.1174 18.4002V19.8238C13.1174 20.212 13.3762 20.4708 13.7644 20.4708C14.1527 20.4708 14.4115 20.212 14.4115 19.8238V18.4002C15.188 18.1414 15.7056 17.4296 15.7056 16.5885C15.7056 15.4885 14.8644 14.6473 13.7644 14.6473ZM13.7644 17.2355C13.3762 17.2355 13.1174 16.9767 13.1174 16.5885C13.1174 16.2002 13.3762 15.9414 13.7644 15.9414C14.1527 15.9414 14.4115 16.2002 14.4115 16.5885C14.4115 16.9767 14.1527 17.2355 13.7644 17.2355Z" fill="currentColor"/>
</svg>
