<svg width="28" height="28" viewBox="0 0 28 28" fill="none" xmlns="http://www.w3.org/2000/svg">
<path d="M14 23C13.7669 23 13.5433 22.9074 13.3785 22.7426C13.2137 22.5777 13.1211 22.3542 13.1211 22.1211V5.87891C13.1211 5.64581 13.2137 5.42225 13.3785 5.25743C13.5433 5.0926 13.7669 5 14 5C14.2331 5 14.4567 5.0926 14.6215 5.25743C14.7863 5.42225 14.8789 5.64581 14.8789 5.87891V22.1211C14.8789 22.3542 14.7863 22.5777 14.6215 22.7426C14.4567 22.9074 14.2331 23 14 23Z" fill="currentColor"/>
<path d="M22.1211 14.8789H5.87891C5.64581 14.8789 5.42225 14.7863 5.25743 14.6215C5.0926 14.4567 5 14.2331 5 14C5 13.7669 5.0926 13.5433 5.25743 13.3785C5.42225 13.2137 5.64581 13.1211 5.87891 13.1211H22.1211C22.3542 13.1211 22.5777 13.2137 22.7426 13.3785C22.9074 13.5433 23 13.7669 23 14C23 14.2331 22.9074 14.4567 22.7426 14.6215C22.5777 14.7863 22.3542 14.8789 22.1211 14.8789Z" fill="currentColor"/>
</svg>
