<svg width="28" height="28" viewBox="0 0 28 28" fill="none" xmlns="http://www.w3.org/2000/svg">
<path d="M3 6V12H9" stroke="currentColor" stroke-width="2" stroke-linecap="round" stroke-linejoin="round"/>
<path d="M25 22V16H19" stroke="currentColor" stroke-width="2" stroke-linecap="round" stroke-linejoin="round"/>
<path d="M22.49 11C21.9828 9.5668 21.1209 8.28542 19.9845 7.27543C18.8482 6.26545 17.4745 5.55978 15.9917 5.22427C14.5089 4.88877 12.9652 4.93436 11.5048 5.35679C10.0444 5.77922 8.71475 6.56473 7.64 7.64001L3 12M25 16L20.36 20.36C19.2853 21.4353 17.9556 22.2208 16.4952 22.6432C15.0348 23.0657 13.4911 23.1113 12.0083 22.7758C10.5255 22.4402 9.1518 21.7346 8.01547 20.7246C6.87913 19.7146 6.01717 18.4332 5.51 17" stroke="currentColor" stroke-width="2" stroke-linecap="round" stroke-linejoin="round"/>
</svg>
