<svg width="100%" height="100%" viewBox="0 0 28 28" fill="none" xmlns="http://www.w3.org/2000/svg">
<path d="M22.1634 20.9567L19.0014 17.7587C19.9597 16.4899 20.4853 14.9509 20.4855 13.3269C20.4855 11.3699 19.7319 9.52984 18.3634 8.14602C16.9952 6.76221 15.1761 6 13.2409 6C11.3059 6 9.48662 6.76221 8.11839 8.14602C5.29387 11.003 5.29387 15.6513 8.11839 18.5078C9.48662 19.8919 11.3059 20.6541 13.2409 20.6541C14.8466 20.6539 16.3682 20.1223 17.6227 19.1531L20.7847 22.3511C20.9749 22.5437 21.2246 22.64 21.4741 22.64C21.7235 22.64 21.9732 22.5437 22.1634 22.3511C22.5443 21.9661 22.5443 21.3416 22.1634 20.9567ZM9.49709 17.1134C7.43285 15.0256 7.43309 11.6284 9.49709 9.54044C10.4971 8.5293 11.8267 7.97221 13.2409 7.97221C14.6553 7.97221 15.9847 8.5293 16.9847 9.54044C17.9847 10.5518 18.5355 11.8966 18.5355 13.3269C18.5355 14.7574 17.9847 16.102 16.9847 17.1134C15.9847 18.1248 14.6553 18.6819 13.2409 18.6819C11.8267 18.6819 10.4971 18.1248 9.49709 17.1134Z" fill="currentColor"/>
</svg>
