<svg width="28" height="28" viewBox="0 0 28 28" fill="none" xmlns="http://www.w3.org/2000/svg">
<path d="M20.9998 10.9409C21.0043 10.7575 20.9443 10.5774 20.8281 10.4256C20.7118 10.2738 20.545 10.1579 20.351 10.094C20.157 10.0301 19.9453 10.0214 19.7455 10.0691C19.5456 10.1167 19.3676 10.2184 19.2359 10.36L14.0161 15.7612L8.79814 10.36C8.71695 10.262 8.61388 10.18 8.49528 10.1191C8.37668 10.0581 8.24513 10.0195 8.10893 10.0057C7.97272 9.99191 7.8348 10.0032 7.70374 10.0388C7.57267 10.0744 7.45128 10.1337 7.34724 10.2128C7.2432 10.292 7.15881 10.3893 7.09917 10.4987C7.03953 10.6081 7.00603 10.7273 7.00074 10.8487C6.99546 10.9702 7.01843 11.0913 7.06839 11.2044C7.11834 11.3176 7.19411 11.4204 7.29097 11.5064L13.2596 17.6903C13.3531 17.7874 13.4691 17.8654 13.5999 17.9188C13.7307 17.9723 13.873 18 14.017 18C14.161 18 14.3034 17.9723 14.4342 17.9188C14.5649 17.8654 14.6811 17.7874 14.7746 17.6903L20.7489 11.5064C20.9055 11.3502 20.9944 11.1498 21 10.9409L20.9998 10.9409Z" fill="currentColor"/>
</svg>
