<svg width="100%" height="100%" viewBox="0 0 28 28" fill="none" xmlns="http://www.w3.org/2000/svg">
<path d="M7.00024 10.9409C6.99569 10.7575 7.05567 10.5774 7.17194 10.4256C7.28821 10.2738 7.45502 10.1579 7.64903 10.094C7.84303 10.0301 8.05465 10.0214 8.25451 10.0691C8.45438 10.1167 8.63244 10.2184 8.7641 10.36L13.9839 15.7612L19.2019 10.36C19.2831 10.262 19.3861 10.18 19.5047 10.1191C19.6233 10.0581 19.7549 10.0195 19.8911 10.0057C20.0273 9.99191 20.1652 10.0032 20.2963 10.0388C20.4273 10.0744 20.5487 10.1337 20.6528 10.2128C20.7568 10.292 20.8412 10.3893 20.9008 10.4987C20.9605 10.6081 20.994 10.7273 20.9993 10.8487C21.0045 10.9702 20.9816 11.0913 20.9316 11.2044C20.8817 11.3176 20.8059 11.4204 20.709 11.5064L14.7404 17.6903C14.6469 17.7874 14.5309 17.8654 14.4001 17.9188C14.2693 17.9723 14.127 18 13.983 18C13.839 18 13.6966 17.9723 13.5658 17.9188C13.4351 17.8654 13.3189 17.7874 13.2254 17.6903L7.25107 11.5064C7.09455 11.3502 7.00556 11.1498 7.00001 10.9409L7.00024 10.9409Z" fill="currentColor"/>
</svg>
