<svg width="28" height="28" viewBox="0 0 28 28" fill="none" xmlns="http://www.w3.org/2000/svg">
<path d="M10.9409 7.00024C10.7575 6.99569 10.5774 7.05567 10.4256 7.17194C10.2738 7.28821 10.1579 7.45502 10.094 7.64903C10.0301 7.84303 10.0214 8.05465 10.0691 8.25451C10.1167 8.45438 10.2184 8.63244 10.36 8.7641L15.7612 13.9839L10.36 19.2019C10.262 19.2831 10.18 19.3861 10.1191 19.5047C10.0581 19.6233 10.0195 19.7549 10.0057 19.8911C9.99191 20.0273 10.0032 20.1652 10.0388 20.2963C10.0744 20.4273 10.1337 20.5487 10.2128 20.6528C10.292 20.7568 10.3893 20.8412 10.4987 20.9008C10.6081 20.9605 10.7273 20.994 10.8487 20.9993C10.9702 21.0045 11.0913 20.9816 11.2044 20.9316C11.3176 20.8817 11.4204 20.8059 11.5064 20.709L17.6903 14.7404C17.7874 14.6469 17.8654 14.5309 17.9188 14.4001C17.9723 14.2693 18 14.127 18 13.983C18 13.839 17.9723 13.6966 17.9188 13.5658C17.8654 13.4351 17.7874 13.3189 17.6903 13.2254L11.5064 7.25107C11.3502 7.09455 11.1498 7.00556 10.9409 7.00001L10.9409 7.00024Z" fill="currentColor"/>
</svg>
