<svg width="28" height="28" viewBox="0 0 28 28" fill="none" xmlns="http://www.w3.org/2000/svg">
<path d="M13.7513 10.7917C12.0224 10.7917 10.6152 12.2308 10.6152 14C10.6152 15.7692 12.0224 17.2083 13.7513 17.2083C15.4801 17.2083 16.8873 15.7692 16.8873 14C16.8873 12.2308 15.4801 10.7917 13.7513 10.7917ZM13.7513 15.375C13.0103 15.375 12.4073 14.7581 12.4073 14C12.4073 13.2419 13.0103 12.625 13.7513 12.625C14.4923 12.625 15.0953 13.2419 15.0953 14C15.0953 14.7581 14.4923 15.375 13.7513 15.375Z" fill="currentColor"/>
<path d="M23.6082 13.0833H21.7633C21.3485 9.26587 18.3796 6.2285 14.6481 5.80408V3.91667C14.6481 3.41067 14.2467 3 13.7521 3C13.2575 3 12.8561 3.41067 12.8561 3.91667V5.80408C9.12467 6.2285 6.15575 9.26587 5.74089 13.0833H3.89601C3.40141 13.0833 3 13.494 3 14C3 14.506 3.40141 14.9167 3.89601 14.9167H5.74089C6.15575 18.7341 9.12467 21.7715 12.8561 22.1959V24.0833C12.8561 24.5893 13.2575 25 13.7521 25C14.2467 25 14.6481 24.5893 14.6481 24.0833V22.1959C18.3796 21.7715 21.3485 18.7341 21.7633 14.9167H23.6082C24.1028 14.9167 24.5042 14.506 24.5042 14C24.5042 13.494 24.1028 13.0833 23.6082 13.0833ZM13.7521 20.4167C10.2935 20.4167 7.48005 17.5383 7.48005 14C7.48005 10.4617 10.2935 7.58333 13.7521 7.58333C17.2107 7.58333 20.0242 10.4617 20.0242 14C20.0242 17.5383 17.2107 20.4167 13.7521 20.4167Z" fill="currentColor"/>
</svg>
