<svg width="28" height="28" viewBox="0 0 28 28" fill="none" xmlns="http://www.w3.org/2000/svg">
<path d="M20.4788 14.1255C20.4071 14.0598 20.3215 14.0076 20.227 13.9718C20.1326 13.9361 20.0311 13.9176 19.9285 13.9173C19.826 13.917 19.7244 13.9351 19.6297 13.9704C19.535 14.0056 19.4491 14.0575 19.377 14.1228C19.3049 14.1881 19.248 14.2656 19.2097 14.3508C19.1714 14.4361 19.1524 14.5273 19.1538 14.6191C19.1552 14.711 19.177 14.8017 19.2179 14.8859C19.2589 14.9702 19.3181 15.0463 19.3922 15.1098C20.0478 15.6878 20.5679 16.3772 20.922 17.1377C21.2762 17.8982 21.4572 18.7144 21.4545 19.5385C21.4545 20.3852 18.7454 21.6154 14.5 21.6154C10.2546 21.6154 7.54548 20.3846 7.54548 19.5371C7.54288 18.7187 7.72149 17.908 8.07097 17.1519C8.42044 16.3958 8.93385 15.7093 9.58146 15.1322C9.6547 15.0682 9.71304 14.9918 9.75309 14.9075C9.79313 14.8231 9.81409 14.7325 9.81474 14.6408C9.81538 14.5492 9.79571 14.4583 9.75686 14.3735C9.71802 14.2888 9.66076 14.2117 9.58843 14.1469C9.51609 14.0821 9.43011 14.0308 9.33547 13.996C9.24084 13.9612 9.13943 13.9436 9.03713 13.9442C8.93483 13.9447 8.83368 13.9635 8.73955 13.9994C8.64541 14.0353 8.56016 14.0875 8.48875 14.1532C7.69703 14.8588 7.06941 15.698 6.64222 16.6224C6.21503 17.5468 5.99675 18.538 6.00004 19.5385C6.00004 21.7868 10.3791 23 14.5 23C18.6209 23 23 21.7868 23 19.5385C23.0034 18.5312 22.7821 17.5335 22.3492 16.604C21.9162 15.6744 21.2803 14.8318 20.4788 14.1255V14.1255Z" fill="currentColor"/>
<path d="M14.5001 14.6923C15.5699 14.6923 16.6157 14.4081 17.5052 13.8756C18.3947 13.3431 19.088 12.5862 19.4974 11.7007C19.9068 10.8152 20.0139 9.84078 19.8052 8.90072C19.5965 7.96066 19.0813 7.09715 18.3249 6.41941C17.5684 5.74166 16.6046 5.28011 15.5553 5.09312C14.5061 4.90613 13.4185 5.0021 12.4301 5.36889C11.4417 5.73569 10.597 6.35683 10.0026 7.15378C9.40824 7.95072 9.091 8.88768 9.091 9.84615C9.09266 11.131 9.66307 12.3628 10.6771 13.2713C11.6911 14.1798 13.066 14.6908 14.5001 14.6923ZM14.5001 6.38462C15.2642 6.38462 16.0112 6.58763 16.6466 6.96799C17.282 7.34835 17.7772 7.88897 18.0696 8.52148C18.362 9.154 18.4385 9.84999 18.2895 10.5215C18.1404 11.1929 17.7724 11.8097 17.2321 12.2938C16.6917 12.7779 16.0033 13.1076 15.2538 13.2412C14.5044 13.3747 13.7275 13.3062 13.0215 13.0442C12.3155 12.7822 11.7121 12.3385 11.2876 11.7693C10.863 11.2 10.6365 10.5308 10.6365 9.84615C10.6377 8.92843 11.0451 8.0486 11.7694 7.39967C12.4937 6.75074 13.4757 6.3857 14.5001 6.38462V6.38462Z" fill="currentColor"/>
</svg>
