<svg width="100%" height="100%" viewBox="0 0 28 28" fill="none" xmlns="http://www.w3.org/2000/svg">
<circle cx="14" cy="14" r="14" fill="white"/>
<path fill-rule="evenodd" clip-rule="evenodd" d="M20.6999 11.5555C20.8103 11.2422 20.6999 11.0149 20.2107 11.0149H18.5862C18.4348 11.0073 18.2846 11.0431 18.1572 11.1172C18.0298 11.1913 17.9316 11.2999 17.8767 11.4275C17.3687 12.5086 16.6941 13.5196 15.8731 14.4307C15.4947 14.7722 15.3215 14.8864 15.1163 14.8864C15.0058 14.8864 14.864 14.7722 14.864 14.459V11.5413C14.864 11.1712 14.7375 11.0004 14.3908 11.0004H11.9C11.8481 10.9982 11.7963 11.0052 11.7475 11.0212C11.6986 11.0372 11.6538 11.0619 11.6157 11.0936C11.5775 11.1254 11.5467 11.1638 11.5251 11.2064C11.5035 11.249 11.4915 11.2951 11.4899 11.3419C11.4899 11.6979 12.0735 11.7831 12.1366 12.7797V14.943C12.1366 15.4128 12.0418 15.4983 11.8369 15.4983C11.2846 15.4983 9.72219 13.6621 8.91761 11.5696C8.75976 11.1567 8.6026 11.0004 8.19213 11.0004H6.55195C6.07875 11.0004 6 11.1995 6 11.413C6 12.3533 8.94488 18.9855 13.697 18.9855C14.7375 18.9855 14.864 18.7723 14.864 18.4163V17.0927C14.864 16.6653 14.9587 16.5943 15.2898 16.5943C16.1356 16.5943 17.6664 18.2994 18.0618 18.6566C18.1531 18.7606 18.2686 18.8453 18.4 18.9046C18.5315 18.9639 18.6758 18.9965 18.8228 19H20.4473C20.9205 19 21.0851 18.7406 20.9593 18.328C20.6668 17.4788 18.6318 15.7319 18.5234 15.598C18.2865 15.3131 18.3496 15.1996 18.5234 14.943C18.5074 14.943 20.4946 12.4096 20.6999 11.5555Z" fill="currentColor"/>
</svg>
