<svg width="100%" height="100%" viewBox="0 0 21 21" fill="none" xmlns="http://www.w3.org/2000/svg">
<path d="M15.861 12.2649C14.4013 12.2649 13.2139 13.4523 13.2139 14.912C13.2139 16.3716 14.4013 17.5591 15.861 17.5591C17.3209 17.5591 18.5081 16.3716 18.5081 14.912C18.5081 13.4523 17.3206 12.2649 15.861 12.2649ZM15.861 16.2355C15.1311 16.2355 14.5374 15.6419 14.5374 14.912C14.5374 14.1821 15.1311 13.5884 15.861 13.5884C16.5909 13.5884 17.1846 14.1821 17.1846 14.912C17.1846 15.642 16.5909 16.2355 15.861 16.2355Z" fill="currentColor"/>
<path d="M6.81607 12.2649C5.35641 12.2649 4.16895 13.4523 4.16895 14.912C4.16895 16.3716 5.35641 17.5591 6.81607 17.5591C8.27572 17.5591 9.46319 16.3716 9.46319 14.912C9.46319 13.4523 8.27572 12.2649 6.81607 12.2649ZM6.81607 16.2355C6.08614 16.2355 5.49251 15.6419 5.49251 14.912C5.49251 14.1821 6.08614 13.5884 6.81607 13.5884C7.54579 13.5884 8.13963 14.1821 8.13963 14.912C8.13963 15.642 7.546 16.2355 6.81607 16.2355Z" fill="currentColor"/>
<path d="M17.6432 4.68798C17.5307 4.46452 17.3019 4.32355 17.0518 4.32355H13.5664V5.64711H16.6437L18.4457 9.23129L19.6285 8.63655L17.6432 4.68798Z" fill="currentColor"/>
<path d="M13.8756 14.2723H8.86816V15.5959H13.8756V14.2723Z" fill="currentColor"/>
<path d="M4.82992 14.2723H2.53578C2.17024 14.2723 1.87402 14.5686 1.87402 14.9341C1.87402 15.2996 2.17029 15.5958 2.53578 15.5958H4.82996C5.1955 15.5958 5.49172 15.2996 5.49172 14.9341C5.49172 14.5685 5.19546 14.2723 4.82992 14.2723Z" fill="currentColor"/>
<path d="M20.8604 10.2266L19.5587 8.55011C19.4337 8.38862 19.2407 8.2942 19.0361 8.2942H14.2272V3.66176C14.2272 3.29622 13.9309 3 13.5654 3H2.53578C2.17024 3 1.87402 3.29626 1.87402 3.66176C1.87402 4.02726 2.17029 4.32352 2.53578 4.32352H12.9036V8.95596C12.9036 9.3215 13.1999 9.61772 13.5654 9.61772H18.7121L19.6758 10.8592V14.2722H17.8449C17.4794 14.2722 17.1831 14.5685 17.1831 14.934C17.1831 15.2995 17.4794 15.5958 17.8449 15.5958H20.3376C20.7031 15.5958 20.9994 15.2995 20.9994 14.934V10.6325C20.9994 10.4856 20.9504 10.3426 20.8604 10.2266Z" fill="currentColor"/>
<path d="M4.78702 10.9193H1.74281C1.37728 10.9193 1.08105 11.2156 1.08105 11.5811C1.08105 11.9466 1.37732 12.2428 1.74281 12.2428H4.78698C5.15252 12.2428 5.44874 11.9466 5.44874 11.5811C5.44878 11.2156 5.15252 10.9193 4.78702 10.9193Z" fill="currentColor"/>
<path d="M6.30895 8.31628H0.66176C0.296262 8.31628 0 8.61255 0 8.97809C0 9.34362 0.296262 9.63985 0.66176 9.63985H6.30895C6.67449 9.63985 6.97071 9.34358 6.97071 8.97809C6.97071 8.61259 6.67449 8.31628 6.30895 8.31628Z" fill="currentColor"/>
<path d="M7.39001 5.71326H1.74281C1.37728 5.71326 1.08105 6.00952 1.08105 6.37502C1.08105 6.74056 1.37732 7.03678 1.74281 7.03678H7.39001C7.75555 7.03678 8.05177 6.74051 8.05177 6.37502C8.05181 6.00952 7.75555 5.71326 7.39001 5.71326Z" fill="currentColor"/>
</svg>
