<svg width="22" height="22" viewBox="0 0 22 22" fill="none" xmlns="http://www.w3.org/2000/svg">
<path d="M12.4286 9.93504C12.4286 10.3203 12.3155 10.697 12.1035 11.0173C11.8916 11.3377 11.5904 11.5874 11.238 11.7348C10.8856 11.8822 10.4979 11.9208 10.1238 11.8457C9.74965 11.7705 9.40601 11.585 9.13629 11.3125C8.86658 11.0401 8.6829 10.693 8.60849 10.3151C8.53407 9.9372 8.57226 9.54551 8.71823 9.18955C8.8642 8.83359 9.11139 8.52935 9.42854 8.31529C9.74569 8.10124 10.1186 7.98699 10.5 7.98699C11.0115 7.98699 11.502 8.19223 11.8637 8.55756C12.2254 8.92289 12.4286 9.41838 12.4286 9.93504ZM19.5 6.03894V14.4805C19.5 14.9971 19.2968 15.4926 18.9351 15.858C18.5735 16.2233 18.0829 16.4285 17.5714 16.4285H3.42857C2.91708 16.4285 2.42654 16.2233 2.06487 15.858C1.70319 15.4926 1.5 14.9971 1.5 14.4805V6.03894C1.5 5.52228 1.70319 5.02679 2.06487 4.66146C2.42654 4.29613 2.91708 4.09089 3.42857 4.09089H6.82286L7.02857 3.44154C7.16193 3.06052 7.40931 2.73083 7.73642 2.49814C8.06354 2.26545 8.4542 2.14128 8.85429 2.14284H12.1457C12.5497 2.1436 12.9433 2.2725 13.2709 2.51135C13.5984 2.75019 13.8435 3.08692 13.9714 3.474L14.1771 4.12335H17.5714C18.0774 4.12328 18.5631 4.32406 18.9239 4.6824C19.2847 5.04074 19.4916 5.52793 19.5 6.03894ZM13.7143 9.93504C13.7143 9.29289 13.5258 8.66516 13.1726 8.13124C12.8194 7.59731 12.3174 7.18117 11.7301 6.93543C11.1427 6.68969 10.4964 6.62539 9.87292 6.75067C9.24941 6.87595 8.67668 7.18517 8.22716 7.63924C7.77763 8.0933 7.4715 8.67182 7.34748 9.30163C7.22345 9.93143 7.28711 10.5842 7.53039 11.1775C7.77367 11.7708 8.18565 12.2779 8.71424 12.6346C9.24283 12.9914 9.86427 13.1818 10.5 13.1818C11.3525 13.1818 12.17 12.8397 12.7728 12.2308C13.3756 11.622 13.7143 10.7961 13.7143 9.93504Z" fill="currentColor"/>
</svg>
