<svg width="100%" height="100%" viewBox="0 0 21 21" fill="none" xmlns="http://www.w3.org/2000/svg">
<path d="M5.07692 12H4.38462C4.01739 12 3.66521 11.8541 3.40554 11.5945C3.14588 11.3348 3 10.9826 3 10.6154V4.38462C3 4.01739 3.14588 3.66521 3.40554 3.40554C3.66521 3.14588 4.01739 3 4.38462 3H10.6154C10.9826 3 11.3348 3.14588 11.5945 3.40554C11.8541 3.66521 12 4.01739 12 4.38462V5.07692" stroke="currentColor" stroke-width="2" stroke-linecap="round" stroke-linejoin="round"/>
<path d="M16.6154 9H10.3846C9.61991 9 9 9.61991 9 10.3846V16.6154C9 17.3801 9.61991 18 10.3846 18H16.6154C17.3801 18 18 17.3801 18 16.6154V10.3846C18 9.61991 17.3801 9 16.6154 9Z" stroke="currentColor" stroke-width="2" stroke-linecap="round" stroke-linejoin="round"/>
</svg>
