<svg width="21" height="21" viewBox="0 0 21 21" fill="none" xmlns="http://www.w3.org/2000/svg">
<path d="M16.8158 17.0455H7.55263V6.86364H16.8158V17.0455ZM16.8158 5.40909H7.55263C7.10595 5.40909 6.67757 5.56234 6.36171 5.83512C6.04586 6.1079 5.86842 6.47787 5.86842 6.86364V17.0455C5.86842 17.4312 6.04586 17.8012 6.36171 18.074C6.67757 18.3468 7.10595 18.5 7.55263 18.5H16.8158C17.2625 18.5 17.6909 18.3468 18.0067 18.074C18.3226 17.8012 18.5 17.4312 18.5 17.0455V6.86364C18.5 6.47787 18.3226 6.1079 18.0067 5.83512C17.6909 5.56234 17.2625 5.40909 16.8158 5.40909ZM14.2895 2.5H4.18421C3.73753 2.5 3.30914 2.65325 2.99329 2.92603C2.67744 3.19881 2.5 3.56878 2.5 3.95455V14.1364H4.18421V3.95455H14.2895V2.5Z" fill="currentColor"/>
</svg>
