<svg width="100%" height="100%" viewBox="0 0 21 21" fill="none" xmlns="http://www.w3.org/2000/svg">
<path d="M10 5H4.55556C4.143 5 3.74733 5.15218 3.45561 5.42307C3.16389 5.69395 3 6.06135 3 6.44444V16.5556C3 16.9386 3.16389 17.306 3.45561 17.5769C3.74733 17.8478 4.143 18 4.55556 18H15.4444C15.857 18 16.2527 17.8478 16.5444 17.5769C16.8361 17.306 17 16.9386 17 16.5556V11.5" stroke="currentColor" stroke-width="1.8" stroke-linecap="round" stroke-linejoin="round"/>
<path d="M15.1791 3.48399C15.489 3.1741 15.9093 3 16.3476 3C16.7858 3 17.2061 3.1741 17.516 3.48399C17.8259 3.79388 18 4.21418 18 4.65243C18 5.09068 17.8259 5.51099 17.516 5.82088L10.1159 13.221L7 14L7.77896 10.8841L15.1791 3.48399Z" stroke="currentColor" stroke-width="1.8" stroke-linecap="round" stroke-linejoin="round"/>
</svg>
