<svg width="100%" height="100%" viewBox="0 0 21 21" fill="none" xmlns="http://www.w3.org/2000/svg">
<path d="M20.0637 21H13.242C12.7516 21 12.3503 20.5977 12.3503 20.1059V15.859C12.3503 14.7861 11.5032 13.9367 10.4331 13.9367C9.36306 13.9367 8.51592 14.7861 8.51592 15.859V20.1059C8.51592 20.5977 8.11465 21 7.6242 21H0.89172C0.401274 21 0 20.5977 0 20.1059V8.66152C0 7.85684 0.401274 7.09686 1.02548 6.64981L9.98726 0.167642C10.2994 -0.0558808 10.7006 -0.0558808 11.0127 0.167642L19.9745 6.64981C20.5987 7.09686 21 7.85684 21 8.66152V20.1506C20.9554 20.5977 20.5541 21 20.0637 21ZM14.1338 19.2565H19.2166V8.66152C19.2166 8.438 19.0828 8.21448 18.9045 8.08036L10.4777 1.95583L2.05096 8.03566C1.87261 8.16977 1.73885 8.39329 1.73885 8.61682V19.2118H6.82166V15.859C6.82166 13.8473 8.47134 12.1932 10.4777 12.1932C12.4841 12.1932 14.1338 13.8473 14.1338 15.859V19.2565Z" fill="currentColor"/>
</svg>
