<svg width="21" height="21" viewBox="0 0 21 21" fill="none" xmlns="http://www.w3.org/2000/svg">
<path d="M18.6975 19.5H12.8503C12.4299 19.5 12.086 19.1551 12.086 18.7336V15.0934C12.086 14.1738 11.3599 13.4457 10.4427 13.4457C9.52548 13.4457 8.79936 14.1738 8.79936 15.0934V18.7336C8.79936 19.1551 8.45541 19.5 8.03503 19.5H2.26433C1.84395 19.5 1.5 19.1551 1.5 18.7336V8.92416C1.5 8.23443 1.84395 7.58302 2.37898 7.19984L10.0605 1.64369C10.328 1.4521 10.672 1.4521 10.9395 1.64369L18.621 7.19984C19.1561 7.58302 19.5 8.23443 19.5 8.92416V18.772C19.4618 19.1551 19.1178 19.5 18.6975 19.5ZM13.6146 18.0056H17.9713V8.92416C17.9713 8.73257 17.8567 8.54098 17.7038 8.42602L10.4809 3.17642L3.25796 8.38771C3.1051 8.50266 2.99045 8.69425 2.99045 8.88584V17.9673H7.34713V15.0934C7.34713 13.3691 8.76115 11.9513 10.4809 11.9513C12.2006 11.9513 13.6146 13.3691 13.6146 15.0934V18.0056Z" fill="currentColor"/>
</svg>
