<svg width="100%" height="100%" viewBox="0 0 21 21" fill="none" xmlns="http://www.w3.org/2000/svg">
<path d="M15.1818 9.09091C15.1818 13.0505 10.0909 16.4444 10.0909 16.4444C10.0909 16.4444 5 13.0505 5 9.09091C5 7.74072 5.53636 6.44582 6.49109 5.49109C7.44582 4.53636 8.74072 4 10.0909 4C11.4411 4 12.736 4.53636 13.6907 5.49109C14.6455 6.44582 15.1818 7.74072 15.1818 9.09091Z" stroke="currentColor" stroke-linecap="round" stroke-linejoin="round"/>
<path d="M10.0905 10.7879C11.0277 10.7879 11.7875 10.0281 11.7875 9.09091C11.7875 8.1537 11.0277 7.39394 10.0905 7.39394C9.15331 7.39394 8.39355 8.1537 8.39355 9.09091C8.39355 10.0281 9.15331 10.7879 10.0905 10.7879Z" stroke="currentColor" stroke-linecap="round" stroke-linejoin="round"/>
</svg>
