<svg width="21" height="21" viewBox="0 0 21 21" fill="none" xmlns="http://www.w3.org/2000/svg">
<path d="M15.5 7.10001C16.8807 7.10001 18 5.95833 18 4.55C18 3.14168 16.8807 2 15.5 2C14.1193 2 13 3.14168 13 4.55C13 5.95833 14.1193 7.10001 15.5 7.10001Z" stroke="currentColor" stroke-width="1.3" stroke-linecap="round" stroke-linejoin="round"/>
<path d="M5.5 13.0501C6.8807 13.0501 7.99999 11.9084 7.99999 10.5C7.99999 9.09172 6.8807 7.95004 5.5 7.95004C4.11929 7.95004 3 9.09172 3 10.5C3 11.9084 4.11929 13.0501 5.5 13.0501Z" stroke="currentColor" stroke-width="1.3" stroke-linecap="round" stroke-linejoin="round"/>
<path d="M15.5 19C16.8807 19 18 17.8583 18 16.45C18 15.0417 16.8807 13.9 15.5 13.9C14.1193 13.9 13 15.0417 13 16.45C13 17.8583 14.1193 19 15.5 19Z" stroke="currentColor" stroke-width="1.3" stroke-linecap="round" stroke-linejoin="round"/>
<path d="M7.6582 11.7835L13.3499 15.1665" stroke="currentColor" stroke-width="1.3" stroke-linecap="round" stroke-linejoin="round"/>
<path d="M13.3415 5.83359L7.6582 9.21659" stroke="currentColor" stroke-width="1.3" stroke-linecap="round" stroke-linejoin="round"/>
</svg>
