<svg width="100%" height="100%" viewBox="0 0 21 21" fill="none" xmlns="http://www.w3.org/2000/svg">
<path d="M6.94095 16.9998C6.75753 17.0043 6.5774 16.9443 6.42562 16.8281C6.27384 16.7118 6.15795 16.545 6.09405 16.351C6.03015 16.157 6.02142 15.9453 6.06908 15.7455C6.11674 15.5456 6.21841 15.3676 6.35997 15.2359L11.7612 10.0161L6.35997 4.79814C6.26205 4.71695 6.18004 4.61388 6.11908 4.49528C6.05813 4.37668 6.01953 4.24513 6.00572 4.10893C5.99191 3.97272 6.00317 3.8348 6.03881 3.70374C6.07445 3.57267 6.13369 3.45128 6.21283 3.34724C6.29196 3.24321 6.38929 3.15881 6.49871 3.09917C6.60813 3.03953 6.72729 3.00603 6.84873 3.00074C6.97016 2.99546 7.09125 3.01844 7.20442 3.06839C7.31759 3.11834 7.4204 3.19412 7.50641 3.29097L13.6903 9.25959C13.7874 9.35307 13.8654 9.46911 13.9188 9.59989C13.9723 9.73066 14 9.873 14 10.017C14 10.161 13.9723 10.3034 13.9188 10.4342C13.8654 10.5649 13.7874 10.6811 13.6903 10.7746L7.50641 16.7489C7.35019 16.9055 7.14983 16.9944 6.94095 17V16.9998Z" fill="currentColor"/>
</svg>
