<svg width="100%" height="100%" viewBox="0 0 21 21" fill="none" xmlns="http://www.w3.org/2000/svg">
<path d="M16.4788 10.5863C16.4071 10.5173 16.3215 10.4624 16.227 10.4249C16.1326 10.3874 16.0311 10.3679 15.9285 10.3676C15.826 10.3674 15.7244 10.3863 15.6297 10.4234C15.535 10.4604 15.4491 10.5149 15.377 10.5835C15.3049 10.6521 15.248 10.7335 15.2097 10.8231C15.1714 10.9126 15.1524 11.0084 15.1538 11.1049C15.1552 11.2014 15.177 11.2967 15.2179 11.3852C15.2589 11.4737 15.3181 11.5536 15.3922 11.6203C16.0478 12.2275 16.5679 12.9518 16.922 13.7507C17.2762 14.5496 17.4572 15.407 17.4545 16.2727C17.4545 17.1622 14.7454 18.4545 10.5 18.4545C6.25458 18.4545 3.54548 17.1615 3.54548 16.2712C3.54288 15.4115 3.72149 14.5599 4.07097 13.7656C4.42044 12.9713 4.93385 12.2501 5.58146 11.6438C5.6547 11.5766 5.71304 11.4964 5.75309 11.4078C5.79313 11.3192 5.81409 11.224 5.81474 11.1277C5.81538 11.0314 5.79571 10.936 5.75686 10.8469C5.71802 10.7578 5.66076 10.6769 5.58843 10.6088C5.51609 10.5407 5.43011 10.4869 5.33547 10.4503C5.24084 10.4137 5.13943 10.3952 5.03713 10.3958C4.93483 10.3964 4.83368 10.4162 4.73955 10.4539C4.64541 10.4915 4.56016 10.5464 4.48875 10.6154C3.69703 11.3566 3.06941 12.2383 2.64222 13.2094C2.21503 14.1805 1.99675 15.2217 2.00004 16.2727C2.00004 18.6346 6.37906 19.909 10.5 19.909C14.6209 19.909 19 18.6346 19 16.2727C19.0034 15.2146 18.7821 14.1665 18.3492 13.19C17.9162 12.2135 17.2803 11.3283 16.4788 10.5863Z" fill="currentColor"/>
<path d="M10.4999 11.1818C11.5697 11.1818 12.6155 10.8832 13.505 10.3238C14.3945 9.76441 15.0878 8.96933 15.4972 8.03909C15.9066 7.10885 16.0137 6.08524 15.805 5.09771C15.5963 4.11017 15.0811 3.20306 14.3247 2.49109C13.5682 1.77912 12.6044 1.29426 11.5551 1.09782C10.5059 0.901389 9.4183 1.00221 8.42993 1.38752C7.44155 1.77284 6.59677 2.42535 6.00241 3.26254C5.40806 4.09974 5.09082 5.08401 5.09082 6.09089C5.09248 7.4406 5.66289 8.73458 6.67693 9.68897C7.69097 10.6434 9.06582 11.1802 10.4999 11.1818ZM10.4999 2.45454C11.264 2.45454 12.011 2.66781 12.6464 3.06738C13.2818 3.46694 13.777 4.03486 14.0694 4.69932C14.3618 5.36377 14.4383 6.09492 14.2893 6.8003C14.1402 7.50569 13.7722 8.15362 13.2319 8.66217C12.6915 9.17073 12.0031 9.51706 11.2536 9.65737C10.5042 9.79767 9.72733 9.72566 9.02134 9.45044C8.31536 9.17521 7.71195 8.70913 7.28741 8.11114C6.86287 7.51314 6.63627 6.81009 6.63627 6.09089C6.63747 5.12682 7.04492 4.20256 7.76923 3.52086C8.49354 2.83916 9.47556 2.45568 10.4999 2.45454Z" fill="currentColor"/>
</svg>
