<svg width="100%" height="100%" viewBox="0 0 63 63" fill="none" xmlns="http://www.w3.org/2000/svg">
<path d="M31.147 18.5525V31.0798H29.6462C28.1648 31.0798 27.0241 32.3143 27.0241 33.7539C27.0241 35.2302 28.195 36.4365 29.6462 36.4365H38.7331C40.1839 36.4365 41.3552 35.2409 41.3552 33.7539C41.3552 32.2777 40.1761 31.0798 38.7331 31.0798H37.2323V18.5525H41.3634L45.7831 6H22.5879L27.0076 18.5525H31.147Z" fill="#71B2D3"/>
<path d="M20.8203 8.84448L20.751 8.00048L16.0838 7.96094L16.0693 9.6481L20.8138 9.68806L20.8203 8.84448Z" fill="#71B2D3"/>
<path d="M17.4186 15.611L21.8555 13.8933L21.272 12.3159L16.8351 14.0335L17.4186 15.611Z" fill="#71B2D3"/>
<path d="M20.7833 20.6723L24.3135 17.4302L23.2119 16.1747L19.6816 19.4168L20.7833 20.6723Z" fill="#71B2D3"/>
<path d="M52.3043 9.6481L52.2898 7.96094L47.5469 8.00089L47.6363 9.68724L52.3043 9.6481Z" fill="#71B2D3"/>
<path d="M51.5385 14.033L47.1016 12.3162L46.5184 13.8937L50.9552 15.6105L51.5385 14.033Z" fill="#71B2D3"/>
<path d="M44.0616 17.4295L47.5918 20.6716L48.6934 19.4162L45.1632 16.1741L44.0616 17.4295Z" fill="#71B2D3"/>
<path d="M57.3521 39.4059C56.5853 38.5455 55.3484 38.3346 54.3507 38.8829L43.994 44.5855C44.2579 45.6569 43.9281 46.7367 43.153 47.4453C42.6335 47.9177 41.9656 48.1707 41.2812 48.1707C41.0998 48.1707 40.9267 48.1539 40.7452 48.1117L34.4139 46.8327C33.9671 46.7424 33.6766 46.2983 33.7654 45.8413C33.8542 45.3851 34.2872 45.0887 34.7332 45.1788L41.0668 46.4583C41.4131 46.5342 41.9202 46.3381 42.1924 46.0934C42.5469 45.7729 42.6706 45.2667 42.5139 44.8196C42.3334 44.2753 41.8472 43.854 41.3665 43.367C37.7104 39.6634 26.5004 37.6496 24.897 37.8116C19.5537 38.343 6.18739 46.7789 5.61843 47.1331L5 47.5212L10.0381 58.8927L10.8627 58.201C13.592 55.9317 21.3513 49.9845 24.5011 49.6976C26.5543 49.5121 29.7207 50.4147 32.7799 51.2836C36.441 52.3212 40.2175 53.3925 42.8479 52.8864C46.4843 52.1778 53.3777 46.3992 57.1543 43.0165C57.6572 42.5609 57.9623 41.9367 57.9953 41.2534C58.0366 40.5701 57.8056 39.9121 57.3521 39.4059Z" fill="#71B2D3"/>
</svg>
