<svg width="100%" height="100%" viewBox="0 0 63 63" fill="none" xmlns="http://www.w3.org/2000/svg">
<path d="M55.5679 20.9088L50.1792 17.6104L48.965 12.4688C48.426 10.1884 46.3616 8.66822 44.0979 8.85047L37.9319 9.33868L34.3998 6.13918C32.6601 4.62054 30.1291 4.62054 28.3834 6.1376L24.8512 9.33858L18.6853 8.85036C16.4473 8.68973 14.3557 10.1898 13.874 12.2817C13.7743 12.5987 11.9736 18.3251 12.0905 17.9532L7.21609 20.9071C5.26353 22.1338 4.48127 24.5964 5.35559 26.7625L7.45918 31.9783L5.35714 37.1926C4.48127 39.3601 5.26497 41.8213 7.21609 43.0464L12.5993 46.3217L13.818 51.4865C14.3541 53.7653 16.4094 55.2778 18.6852 55.1048L24.7846 54.6228L28.3832 57.8599C29.2547 58.6199 30.3224 59 31.3916 59C32.4592 59 33.5285 58.6199 34.3998 57.8598L37.9984 54.6227L44.0979 55.1047C46.4024 55.2916 48.429 53.7668 48.965 51.4864L50.1792 46.3448L55.5679 43.0464C57.5174 41.8213 58.2997 39.3601 57.4268 37.1926L55.3232 31.9784L57.4284 26.7611C58.3013 24.5966 57.519 22.1339 55.5679 20.9088ZM31.3916 49.4024C22.0122 49.4024 14.3814 41.5957 14.3814 32C14.3814 22.4044 22.0122 14.5977 31.3916 14.5977C40.771 14.5977 48.4017 22.4044 48.4017 32C48.4017 41.5957 40.771 49.4024 31.3916 49.4024Z" fill="#F3D470"/>
<path d="M31.3911 17.7617C23.7166 17.7617 17.4736 24.1486 17.4736 32C17.4736 39.8514 23.7166 46.2383 31.3911 46.2383C39.0655 46.2383 45.3085 39.8514 45.3085 32C45.3085 24.1486 39.0655 17.7617 31.3911 17.7617ZM40.2162 28.3724L30.938 37.8646C30.6359 38.1736 30.2402 38.3281 29.8447 38.3281C29.4491 38.3281 29.0533 38.1736 28.7514 37.8646L22.5659 31.5365C21.9618 30.9185 21.9618 29.9173 22.5659 29.2994C23.1699 28.6814 24.1485 28.6814 24.7525 29.2994L29.8447 34.509L38.0297 26.1353C38.6337 25.5174 39.6123 25.5174 40.2163 26.1353C40.8204 26.7532 40.8204 27.7545 40.2162 28.3724Z" fill="#F3D470"/>
</svg>
