<svg width="63" height="63" viewBox="0 0 63 63" fill="none" xmlns="http://www.w3.org/2000/svg">
<path d="M49.9156 17.228C49.7586 17.3658 49.5687 17.4563 49.3631 17.4879C44.9213 18.1797 41.7192 17.1013 39.1513 16.2332C37.5713 15.7019 36.2099 15.2407 34.8332 15.2407C32.5107 15.2407 30.7118 16.4502 28.9726 17.6191C28.5682 17.8904 28.1749 18.1549 27.7859 18.3969L22.0269 24.2886C21.238 25.0958 21.0436 26.3234 21.543 27.343C21.9827 28.2451 22.8689 28.8058 23.8545 28.8058H24.7385C25.3396 28.8058 25.9031 28.6023 26.3672 28.2179C26.7893 27.8652 27.2754 27.4515 27.7947 27.0061C30.6256 24.5847 32.9128 22.6834 34.4443 22.0956C34.5724 22.0459 34.7006 22.0232 34.8332 22.0232C35.094 22.0232 35.3525 22.1181 35.5559 22.299L51.5267 36.4587L58.0369 33.8179V12.0461L49.9156 17.228Z" fill="#57A54A"/>
<path d="M14.9946 35.5889C14.272 35.5889 13.5979 35.9573 13.198 36.5723L11.9914 38.424C11.7549 38.7856 11.6289 39.2129 11.6289 39.6494V40.1626C11.6289 41.3834 12.5947 42.3715 13.788 42.3715C14.5106 42.3715 15.1847 42.003 15.5846 41.388L16.7912 39.5364C17.0277 39.1747 17.1537 38.7474 17.1537 38.311V37.7977C17.1536 36.5769 16.1879 35.5889 14.9946 35.5889Z" fill="#57A54A"/>
<path d="M19.4149 37.8491H19.3398C18.6591 37.8491 18.0205 38.1769 17.6116 38.7331L15.3774 41.783C15.0968 42.1651 14.9443 42.6285 14.9443 43.1079V43.5533C14.9443 44.7741 15.9101 45.7622 17.1034 45.7622H17.1785C17.8592 45.7622 18.4978 45.4344 18.9067 44.8782L21.1409 41.8283C21.4215 41.4463 21.574 40.9827 21.574 40.5035V40.0581C21.574 38.8371 20.6082 37.8491 19.4149 37.8491Z" fill="#57A54A"/>
<path d="M23.8348 40.1104H23.7597C23.079 40.1104 22.4404 40.4381 22.0316 40.9943L19.7974 44.0442C19.5167 44.4262 19.3643 44.8898 19.3643 45.369V45.8144C19.3643 47.0353 20.33 48.0233 21.5233 48.0233H21.5984C22.2791 48.0233 22.9177 47.6955 23.3266 47.1394L25.5608 44.0895C25.8414 43.7074 25.9939 43.2439 25.9939 42.7646V42.3192C25.9939 41.0983 25.0282 40.1104 23.8348 40.1104Z" fill="#57A54A"/>
<path d="M28.2547 42.3716H28.1796C27.499 42.3716 26.8603 42.6994 26.4515 43.2555L24.2173 46.3054C23.9367 46.6875 23.7842 47.151 23.7842 47.6302V48.0757C23.7842 49.2965 24.7499 50.2845 25.9433 50.2845H26.0184C26.699 50.2845 27.3377 49.9567 27.7465 49.4006L29.9807 46.3507C30.2613 45.9686 30.4117 45.5029 30.4117 45.0259V44.5805H30.4138C30.4137 43.3596 29.4481 42.3716 28.2547 42.3716Z" fill="#57A54A"/>
<path d="M33.9183 49.1174L31.9183 47.3743C31.852 47.4806 31.821 47.6071 31.7481 47.7088L30.3271 49.6464L31.8144 51.0572C32.2873 51.5387 32.9857 51.5116 33.4033 51.0843C33.9536 50.5214 34.1724 49.4429 33.9183 49.1174Z" fill="#57A54A"/>
<path d="M50.7424 38.9039L34.65 24.4889C33.2334 25.2982 30.944 27.2562 29.2136 28.737C28.6877 29.1892 28.1949 29.6097 27.7662 29.9668C26.9022 30.688 25.8569 31.0656 24.7409 31.0656H23.857C22.0272 31.0656 20.3852 30.0256 19.5676 28.3526C18.6395 26.4625 18.9996 24.1881 20.4648 22.6892L26.6348 16.4651C26.9509 16.2684 27.2713 16.0536 27.5961 15.8366C24.131 15.1131 20.193 15.0634 15.7932 15.771C13.5678 16.1394 11.316 15.4997 9.60325 14.0414L5 12V33.8147L10.7457 36.2586L11.3601 35.3159C12.1689 34.0725 13.528 33.3264 14.9953 33.3264C16.6417 33.3264 18.0604 34.2737 18.8052 35.6528C18.982 35.6279 19.1566 35.5872 19.3377 35.5872C21.0371 35.5872 22.4714 36.5345 23.2205 37.9136C23.4017 37.8887 23.5764 37.848 23.7575 37.848C25.4569 37.848 26.8912 38.7953 27.6403 40.1744C27.8193 40.1518 27.9939 40.1088 28.1773 40.1088H28.2547C30.6635 40.1088 32.6237 42.1142 32.6237 44.5784V45.0193L35.397 47.4316C35.3992 47.4362 35.4037 47.4384 35.4081 47.443L36.4644 48.3608C37.0788 48.8627 37.8831 49.1522 38.703 49.1522C39.6158 49.1522 40.3583 48.3925 40.3583 47.4588C40.3583 46.9546 40.1395 46.4821 39.7616 46.1588L29.7044 37.5857C29.2359 37.1855 29.1719 36.4734 29.563 35.994C29.9542 35.517 30.6503 35.4492 31.121 35.8516L43.545 46.4436C43.8875 46.733 44.3162 46.8913 44.7604 46.8913H45.0852C46.1349 46.8913 46.9858 46.0185 46.9858 44.9469C46.9858 44.3817 46.7537 43.8527 46.3427 43.4819L34.1242 33.0662C33.6557 32.666 33.5917 31.9539 33.985 31.4723C34.3783 30.9908 35.0745 30.932 35.5408 31.3277L47.7195 41.7094C47.7394 41.7252 47.7592 41.7433 47.777 41.7591L47.9581 41.9129C48.3029 42.2091 48.7404 42.3696 49.1891 42.3696H49.4852C50.5438 42.3696 51.4078 41.4856 51.4078 40.4026C51.4075 39.8218 51.1667 39.2815 50.7424 38.9039Z" fill="#57A54A"/>
</svg>
