<svg width="100%" height="100%" viewBox="0 0 63 63" fill="none" xmlns="http://www.w3.org/2000/svg">
<path d="M50.2384 12.9082C45.2332 7.80853 38.5783 5 31.4999 5C24.4215 5 17.7668 7.80853 12.7615 12.9082C7.75643 18.0078 5 24.788 5 32C5 39.212 7.75643 45.9922 12.7616 51.0919C17.7668 56.1915 24.4216 59 31.4999 59C38.5782 59 45.2331 56.1915 50.2384 51.0919C55.2436 45.9922 58 39.212 58 32C58 24.788 55.2436 18.0078 50.2384 12.9082ZM14.9789 26.9165C14.9789 23.2409 17.9137 20.2508 21.5211 20.2508C25.1284 20.2508 28.0632 23.241 28.0632 26.9165C28.0632 27.7902 27.368 28.4985 26.5104 28.4985C25.6529 28.4985 24.9577 27.7902 24.9577 26.9165C24.9577 24.9856 23.416 23.4148 21.5211 23.4148C19.6261 23.4148 18.0844 24.9857 18.0844 26.9165C18.0844 27.7902 17.3892 28.4985 16.5317 28.4985C15.6742 28.4985 14.9789 27.7902 14.9789 26.9165ZM47.0792 37.6107C44.7506 44.323 38.4899 48.8328 31.4999 48.8328C24.5099 48.8328 18.249 44.323 15.9206 37.6107C15.6348 36.7869 16.0586 35.8832 16.8672 35.5919C17.6757 35.301 18.5629 35.7326 18.8487 36.5565C20.7394 42.0069 25.8236 45.6688 31.5 45.6688C37.1764 45.6688 42.2605 42.0068 44.1513 36.5564C44.4371 35.7325 45.3243 35.3014 46.1328 35.5919C46.9413 35.883 47.365 36.7869 47.0792 37.6107ZM46.4682 28.4985C45.6107 28.4985 44.9155 27.7902 44.9155 26.9165C44.9155 24.9856 43.3738 23.4148 41.4788 23.4148C39.5839 23.4148 38.0422 24.9857 38.0422 26.9165C38.0422 27.7902 37.347 28.4985 36.4895 28.4985C35.6319 28.4985 34.9367 27.7902 34.9367 26.9165C34.9367 23.2409 37.8715 20.2508 41.4788 20.2508C45.0863 20.2508 48.021 23.241 48.021 26.9165C48.021 27.7902 47.3257 28.4985 46.4682 28.4985Z" fill="#F44336"/>
</svg>
