<svg width="112" height="112" viewBox="0 0 112 112" fill="none" xmlns="http://www.w3.org/2000/svg">
<path d="M52.3169 76C51.0557 76 49.9345 75.4376 49.2339 74.5942L28.0736 51.5374C26.5321 49.8504 26.6724 47.1791 28.3539 45.6326C30.0354 44.0861 32.6981 44.2269 34.2396 45.9138L52.4569 65.7369L102.905 15.2652C104.587 13.5783 107.249 13.5783 108.791 15.2652C110.332 16.9522 110.472 19.6235 108.791 21.17L55.2598 74.7347C54.5589 75.5783 53.438 76 52.3169 76Z" fill="#B8CE01"/>
<path d="M56.0001 112C25.1859 112 0 86.8141 0 56.0001C0 25.1861 25.1859 0 56.0001 0C58.3922 0 60.2211 1.82919 60.2211 4.22098C60.2211 6.61277 58.3919 8.44197 56.0001 8.44197C29.8291 8.44197 8.44223 29.8289 8.44223 55.9999C8.44223 82.1709 29.8291 103.558 56.0001 103.558C82.1711 103.558 103.558 82.1709 103.558 55.9999C103.558 53.6078 105.387 51.7789 107.779 51.7789C110.171 51.7789 112 53.6081 112 55.9999C112 86.8141 86.8141 112 56.0001 112Z" fill="#022F47"/>
</svg>
