<svg width="70" height="70" viewBox="0 0 70 70" fill="none" xmlns="http://www.w3.org/2000/svg">
<rect x="1" y="1" width="68" height="68" rx="34" fill="white"/>
<path d="M49.8266 33.1443L48.9404 29.6122C49.1827 29.5609 49.3645 29.3467 49.3645 29.0901V28.5206C49.3645 27.2841 48.3548 26.2781 47.1139 26.2781H43.0773V25.1034C43.0773 24.495 42.5806 24 41.9699 24H21.3936C20.783 24 20.2862 24.495 20.2862 25.1034V34.7852C20.2862 35.08 20.5261 35.3191 20.8221 35.3191C21.118 35.3191 21.3579 35.0801 21.3579 34.7852V25.1034C21.3579 25.0838 21.3739 25.0679 21.3936 25.0679H41.9698C41.9896 25.0679 42.0055 25.0838 42.0055 25.1034V34.7853C42.0055 35.0801 42.2454 35.3192 42.5414 35.3192C42.8373 35.3192 43.0773 35.0802 43.0773 34.7853V34.18H49.3983C49.3988 34.18 49.3992 34.1802 49.3997 34.1802C49.4002 34.1802 49.4007 34.1801 49.4012 34.1801C50.179 34.1806 50.8394 34.6893 51.0663 35.3903H49.4001C49.1042 35.3903 48.8642 35.6293 48.8642 35.9242V37.0632C48.8642 37.9857 49.6174 38.7362 50.5432 38.7362H51.1505V41.0854H49.7494C49.2891 39.7612 48.0258 38.8073 46.5423 38.8073C45.0587 38.8073 43.7953 39.7612 43.3351 41.0854H43.0771V37.0632C43.0771 36.7683 42.8372 36.5292 42.5413 36.5292C42.2454 36.5292 42.0054 36.7683 42.0054 37.0632V41.0852H30.888C30.4277 39.761 29.1644 38.8072 27.6808 38.8072C26.1973 38.8072 24.9339 39.761 24.4737 41.0852H21.3936C21.3739 41.0852 21.3579 41.0693 21.3579 41.0497V39.875H23.6799C23.9758 39.875 24.2158 39.636 24.2158 39.3411C24.2158 39.0462 23.9759 38.8072 23.6799 38.8072H18.5359C18.24 38.8072 18 39.0462 18 39.3411C18 39.636 18.2399 39.875 18.5359 39.875H20.2863V41.0497C20.2863 41.6581 20.783 42.1531 21.3937 42.1531H24.2881C24.288 42.165 24.2872 42.1768 24.2872 42.1887C24.2872 44.0532 25.8096 45.5701 27.6808 45.5701C29.552 45.5701 31.0745 44.0532 31.0745 42.1887C31.0745 42.1767 31.0737 42.165 31.0735 42.1531H43.1496C43.1494 42.165 43.1486 42.1768 43.1486 42.1887C43.1486 44.0532 44.6711 45.5701 46.5423 45.5701C48.4135 45.5701 49.9359 44.0532 49.9359 42.1887C49.9359 42.1767 49.9351 42.165 49.9349 42.1531H51.6864C51.9823 42.1531 52.2222 41.9141 52.2222 41.6192V35.9241C52.2223 34.518 51.1811 33.3498 49.8266 33.1443ZM43.0773 27.3459H47.1139C47.764 27.3459 48.2928 27.8729 48.2928 28.5206V28.5561H43.0773V27.3459ZM43.0773 33.1122V29.624H47.8387L48.7139 33.1122H43.0773ZM27.6808 44.5024C26.4005 44.5024 25.3589 43.4646 25.3589 42.1888C25.3589 40.913 26.4005 39.8752 27.6808 39.8752C28.9612 39.8752 30.0028 40.913 30.0028 42.1888C30.0028 43.4646 28.9612 44.5024 27.6808 44.5024ZM46.5424 44.5024C45.2621 44.5024 44.2204 43.4646 44.2204 42.1888C44.2204 40.913 45.2621 39.8752 46.5424 39.8752C47.8227 39.8752 48.8644 40.913 48.8644 42.1888C48.8644 43.4646 47.8227 44.5024 46.5424 44.5024ZM51.1506 37.6683H50.5433C50.2085 37.6683 49.936 37.3968 49.936 37.0632V36.458H51.1506V37.6683H51.1506Z" fill="currentColor"/>
<path d="M27.6807 41.085C27.07 41.085 26.5732 41.5799 26.5732 42.1884C26.5732 42.7969 27.07 43.2918 27.6807 43.2918C28.2913 43.2918 28.7881 42.7969 28.7881 42.1884C28.7881 41.5799 28.2913 41.085 27.6807 41.085Z" fill="currentColor"/>
<path d="M46.543 41.085C45.9323 41.085 45.4355 41.5799 45.4355 42.1884C45.4355 42.7969 45.9323 43.2918 46.543 43.2918C47.1536 43.2918 47.6504 42.7969 47.6504 42.1884C47.6504 41.5799 47.1536 41.085 46.543 41.085Z" fill="currentColor"/>
<path d="M40.2555 38.8071H32.2536C31.9577 38.8071 31.7178 39.0462 31.7178 39.3411C31.7178 39.636 31.9577 39.875 32.2536 39.875H40.2555C40.5514 39.875 40.7914 39.636 40.7914 39.3411C40.7914 39.0462 40.5515 38.8071 40.2555 38.8071Z" fill="currentColor"/>
<path d="M26.5382 36.5293H19.6794C19.3835 36.5293 19.1436 36.7683 19.1436 37.0632C19.1436 37.3581 19.3834 37.5972 19.6794 37.5972H26.5382C26.8341 37.5972 27.074 37.3581 27.074 37.0632C27.074 36.7683 26.8341 36.5293 26.5382 36.5293Z" fill="currentColor"/>
<path d="M36.6334 29.2818C36.4242 29.0734 36.0848 29.0734 35.8756 29.2819L31.1104 34.0299L28.6315 31.5599C28.4222 31.3514 28.083 31.3514 27.8738 31.5599C27.6645 31.7684 27.6645 32.1064 27.8738 32.3149L30.7316 35.1625C30.8362 35.2668 30.9733 35.3189 31.1104 35.3189C31.2475 35.3189 31.3847 35.2668 31.4893 35.1625L36.6333 30.0369C36.8426 29.8283 36.8426 29.4904 36.6334 29.2818Z" fill="currentColor"/>
<rect x="1" y="1" width="68" height="68" rx="34" stroke="#F3D470" stroke-width="2"/>
</svg>
