<svg width="70" height="70" viewBox="0 0 70 70" fill="none" xmlns="http://www.w3.org/2000/svg">
<rect x="1" y="1" width="68" height="68" rx="34" fill="white"/>
<path d="M49.8667 28.0994H46.6492C48.6082 26.5235 48.9187 23.6578 47.3427 21.6989C46.4777 20.6237 45.1719 19.9989 43.7921 20H39.3536C37.5488 20.0006 35.9146 21.0665 35.1864 22.7179C34.4583 21.0665 32.8241 20.0006 31.0193 20H26.5808C24.0665 19.998 22.0268 22.0347 22.0249 24.5488C22.0238 25.9287 22.6486 27.2345 23.7237 28.0994H20.5062C20.2267 28.0994 20 28.3261 20 28.6056V33.6678C20 33.9473 20.2267 34.174 20.5062 34.174H21.5186V49.8667C21.5186 50.1462 21.7453 50.3729 22.0249 50.3729H48.348C48.6276 50.3729 48.8542 50.1462 48.8542 49.8667V34.174H49.8667C50.1462 34.174 50.3729 33.9473 50.3729 33.6678V28.6056C50.3729 28.3261 50.1462 28.0994 49.8667 28.0994ZM42.8946 21.0544C42.9356 21.0484 42.9761 21.0403 43.0171 21.0352C43.1453 21.0205 43.2742 21.0129 43.4033 21.0124H43.7921C45.7482 21.0146 47.3334 22.5999 47.3356 24.5559C47.3334 26.512 45.7482 28.0972 43.7921 28.0994H42.603C44.56 26.5224 44.868 23.6575 43.291 21.7004C43.1126 21.479 42.9137 21.2748 42.6971 21.0904C42.7624 21.0767 42.8283 21.0646 42.8946 21.0544ZM41.5809 21.5404C43.2511 22.5513 43.7856 24.7247 42.7747 26.3949C42.1328 27.4555 40.9822 28.1023 39.7424 28.0994H37.9853L40.157 23.1355C40.4555 22.4695 40.953 21.9123 41.5809 21.5404ZM37.9975 29.1119H41.4544L43.8452 33.8941L45.5041 37.2113H43.7921C43.6328 37.2113 43.4827 37.2863 43.3871 37.4138L42.3808 38.7552L39.9737 33.4602L37.9975 29.1119ZM38.7264 33.1616H37.7175V30.9423L38.7264 33.1616ZM28.7919 21.5404C29.4199 21.9123 29.9174 22.4695 30.2159 23.1355L32.3876 28.0994H30.6305C28.6782 28.104 27.0919 26.525 27.0874 24.5728C27.0845 23.333 27.7313 22.1824 28.7919 21.5404ZM32.3754 29.1119L30.4012 33.4582L27.9921 38.7552L26.9858 37.4138C26.8902 37.2863 26.7401 37.2113 26.5808 37.2113H24.8688L26.5302 33.8941L28.9185 29.1119H32.3754ZM23.0373 24.5559C23.0395 22.5999 24.6247 21.0146 26.5808 21.0124H26.9696C27.0986 21.0129 27.2276 21.0205 27.3558 21.0352C27.3968 21.0403 27.4373 21.0484 27.4783 21.0544C27.5446 21.0646 27.6104 21.0767 27.6757 21.0904C25.7618 22.7194 25.5308 25.5916 27.1598 27.5056C27.3442 27.7222 27.5484 27.921 27.7699 28.0994H26.5808C24.6247 28.0972 23.0395 26.512 23.0373 24.5559ZM21.0124 33.1616V29.1119H27.7866L25.7617 33.1616H21.0124ZM32.6554 49.3604H22.5311V34.174H25.2555L23.5967 37.4912C23.4717 37.7413 23.5731 38.0453 23.8232 38.1703C23.8936 38.2054 23.9711 38.2237 24.0497 38.2237H26.3277L27.6945 40.0461C27.7901 40.1735 27.9401 40.2486 28.0994 40.2486C28.1177 40.2486 28.1359 40.2476 28.1541 40.2455C28.3314 40.2259 28.4852 40.1143 28.5591 39.9519L31.1873 34.174H32.6554V49.3604ZM32.6554 33.1616H31.6465L32.6554 30.9423V33.1616ZM31.1433 22.73C30.8486 22.0592 30.3955 21.4699 29.8231 21.0124H31.0193C32.4271 21.0124 33.7013 21.8458 34.2656 23.1355L34.6337 23.9773L33.1616 27.3426L31.1433 22.73ZM36.7051 49.3604H33.6678V29.1119H36.7051V49.3604ZM33.9356 28.0994L36.1072 23.1355C36.6715 21.8458 37.9458 21.0124 39.3536 21.0124H40.5523C39.9799 21.4699 39.5269 22.0592 39.2321 22.73L36.8802 28.0994H33.9356ZM47.8418 49.3604H37.7175V34.174H39.1855L41.8128 39.9519C41.8866 40.1143 42.0405 40.2259 42.2178 40.2455C42.2362 40.2476 42.2548 40.2486 42.2734 40.2486C42.4328 40.2486 42.5828 40.1735 42.6784 40.0461L44.0452 38.2237H46.3232C46.6027 38.2252 46.8306 37.9998 46.8322 37.7203C46.8326 37.6408 46.8143 37.5624 46.7788 37.4912L45.1174 34.174H47.8418V49.3604ZM49.3605 33.1616H44.6111L42.5863 29.1119H49.3605V33.1616Z" fill="currentColor"/>
<rect x="1" y="1" width="68" height="68" rx="34" stroke="#F3D470" stroke-width="2"/>
</svg>
